<?xml version="1.0" encoding="UTF-8" standalone="no"?>
<!DOCTYPE svg PUBLIC "-//W3C//DTD SVG 1.1//EN" "http://www.w3.org/Graphics/SVG/1.1/DTD/svg11.dtd">
<!-- Generated by Microsoft Visio, SVG Export local-variables.svg local-variables -->
<svg xmlns="http://www.w3.org/2000/svg" xmlns:xlink="http://www.w3.org/1999/xlink" xmlns:ev="http://www.w3.org/2001/xml-events"
		xmlns:v="http://schemas.microsoft.com/visio/2003/SVGExtensions/" width="3.66062in" height="7.78391in"
		viewBox="0 0 263.565 560.441" xml:space="preserve" color-interpolation-filters="sRGB" class="st14">
	<v:documentProperties v:langID="1033" v:viewMarkup="false">
		<v:userDefs>
			<v:ud v:nameU="msvSubprocessMaster" v:prompt="" v:val="VT4(Rectangle)"/>
			<v:ud v:nameU="msvNoAutoConnect" v:val="VT0(1):26"/>
		</v:userDefs>
	</v:documentProperties>

	<style type="text/css">
	<![CDATA[
		.st1 {stroke:#305497;stroke-width:0.25}
		.st2 {fill:#4672c4;font-family:Calibri;font-size:1.00001em}
		.st3 {font-size:1em}
		.st4 {visibility:visible}
		.st5 {fill:#000000;fill-opacity:0.4;filter:url(#filter_2.6666667461395);stroke:#000000;stroke-opacity:0.4}
		.st6 {fill:#ffffff;stroke:#e8ebef;stroke-width:0.75}
		.st7 {fill:#4672c4;stroke:#c7c8c8;stroke-width:0.25}
		.st8 {fill:#ffffff;stroke:#ebeff5;stroke-width:0.75}
		.st9 {fill:url(#grad0-83);stroke:#3c63ac;stroke-width:0.75}
		.st10 {fill:#3c63ac;font-family:Calibri;font-size:1.00001em}
		.st11 {fill:#feffff;font-family:Calibri;font-size:0.833336em}
		.st12 {marker-end:url(#mrkr4-97);stroke:#4672c4;stroke-linecap:round;stroke-linejoin:round;stroke-width:1}
		.st13 {fill:#4672c4;fill-opacity:1;stroke:#4672c4;stroke-opacity:1;stroke-width:0.28409090909091}
		.st14 {fill:none;fill-rule:evenodd;font-size:12px;overflow:visible;stroke-linecap:square;stroke-miterlimit:3}
	]]>
	</style>

	<defs id="Patterns_And_Gradients">
		<linearGradient id="grad0-83" x1="0" y1="0" x2="1" y2="0" gradientTransform="rotate(60 0.5 0.5)">
			<stop offset="0" stop-color="#e8ebf4" stop-opacity="1"/>
			<stop offset="0.24" stop-color="#f4f5f9" stop-opacity="1"/>
			<stop offset="0.54" stop-color="#feffff" stop-opacity="1"/>
		</linearGradient>
	</defs>
	<defs id="Markers">
		<g id="lend4">
			<path d="M 2 1 L 0 0 L 2 -1 L 2 1 " style="stroke:none"/>
		</g>
		<marker id="mrkr4-97" class="st13" v:arrowType="4" v:arrowSize="2" v:setback="7.04" refX="-7.04" orient="auto"
				markerUnits="strokeWidth" overflow="visible">
			<use xlink:href="#lend4" transform="scale(-3.52,-3.52) "/>
		</marker>
	</defs>
	<defs id="Filters">
		<filter id="filter_2.6666667461395">
			<feGaussianBlur stdDeviation="2.6666667461395"/>
		</filter>
	</defs>
	<g v:mID="58" v:index="16" v:groupContext="foregroundPage">
		<v:userDefs>
			<v:ud v:nameU="msvThemeOrder" v:val="VT0(0):26"/>
		</v:userDefs>
		<title>local-variables</title>
		<v:pageProperties v:drawingScale="1" v:pageScale="1" v:drawingUnits="0" v:shadowOffsetX="9" v:shadowOffsetY="-9"/>
		<v:layer v:name="Connector" v:index="0"/>
		<g id="shape27-1" v:mID="27" v:groupContext="shape" transform="translate(-383.408,329.866) rotate(-90) scale(-1,1)">
			<title>Side brace</title>
			<desc>lambda Entry FIFO</desc>
			<v:userDefs>
				<v:ud v:nameU="TxtW" v:val="VT0(0.55555555555556):29"/>
				<v:ud v:nameU="TxtA" v:val="VT0(1.5707963267949):32"/>
				<v:ud v:nameU="TxtAState" v:val="VT0(0):26"/>
				<v:ud v:nameU="TxtWState" v:val="VT0(0):26"/>
				<v:ud v:nameU="MaxRadius" v:val="VT0(0.25):1"/>
				<v:ud v:nameU="PosCH1" v:prompt="Constrains X position of Control Handle #1" v:val="VT0(0):26"/>
				<v:ud v:nameU="PosCH2" v:prompt="Constrains Y position of Control Handle #2" v:val="VT0(0):26"/>
				<v:ud v:nameU="Scale" v:val="VT0(1):26"/>
				<v:ud v:nameU="AntiScale" v:val="VT0(1):26"/>
				<v:ud v:nameU="visVersion" v:val="VT0(15):26"/>
				<v:ud v:nameU="TxtW" v:prompt="" v:val="VT0(0.83333333333333):29"/>
				<v:ud v:nameU="MaxRadius" v:prompt="" v:val="VT0(0.27343781908241):1"/>
			</v:userDefs>
			<v:textBlock v:margins="rect(4,4,4,4)"/>
			<v:textRect cx="49.2187" cy="598.972" width="60" height="36.8038" transform="rotate(90)"/>
			<path d="M0 540.75 L0 551.91 A8.53117 8.53117 -180 0 0 8.53 560.44 L40.69 560.44 A8.53117 8.53117 0 0 1 49.22 568.97
						 A8.53117 8.53117 0 0 1 57.75 560.44 L91.78 560.44 A8.53117 8.53117 -180 0 0 100.31 551.91 L100.31 540.75"
					class="st1"/>
			<text x="580.75" y="45.62" transform="rotate(-90) scale(-1,1)" class="st2" v:langID="1033"><v:paragraph
						v:horizAlign="1"/><v:tabList/>lambda <tspan x="573.72" dy="1.2em" class="st3">Entry FIFO</tspan></text>		</g>
		<g id="group1002-6" transform="translate(25.5221,-130.263)" v:mID="1002" v:groupContext="group">
			<title>Sheet.1002</title>
			<g id="shape1003-7" v:mID="1003" v:groupContext="shape" transform="translate(-1.59872E-14,-2.0941)">
				<title>Rectangle.29</title>
				<v:userDefs>
					<v:ud v:nameU="visVersion" v:val="VT0(15):26"/>
				</v:userDefs>
				<g id="shadow1003-8" v:groupContext="shadow" v:shadowOffsetX="2.12132" v:shadowOffsetY="-2.12132" v:shadowType="1"
						transform="matrix(1,0,0,1,2.12132,2.12132)" class="st4">
					<rect x="0" y="458.944" width="101.497" height="101.497" class="st5"/>
				</g>
				<rect x="0" y="458.944" width="101.497" height="101.497" class="st6"/>
			</g>
			<g id="shape1004-12" v:mID="1004" v:groupContext="shape">
				<title>Rectangle.2</title>
				<v:userDefs>
					<v:ud v:nameU="visVersion" v:val="VT0(15):26"/>
				</v:userDefs>
				<g id="shadow1004-13" v:groupContext="shadow" v:shadowOffsetX="2.12132" v:shadowOffsetY="-2.12132" v:shadowType="1"
						transform="matrix(1,0,0,1,2.12132,2.12132)" class="st4">
					<rect x="0" y="543.525" width="101.497" height="16.9162" class="st5"/>
				</g>
				<rect x="0" y="543.525" width="101.497" height="16.9162" class="st7"/>
			</g>
			<g id="shape1005-17" v:mID="1005" v:groupContext="shape" transform="translate(-1.59872E-14,-16.9162)">
				<title>Rectangle.3</title>
				<v:userDefs>
					<v:ud v:nameU="visVersion" v:val="VT0(15):26"/>
				</v:userDefs>
				<g id="shadow1005-18" v:groupContext="shadow" v:shadowOffsetX="2.12132" v:shadowOffsetY="-2.12132" v:shadowType="1"
						transform="matrix(1,0,0,1,2.12132,2.12132)" class="st4">
					<rect x="0" y="543.525" width="101.497" height="16.9162" class="st5"/>
				</g>
				<rect x="0" y="543.525" width="101.497" height="16.9162" class="st7"/>
			</g>
			<g id="shape1006-22" v:mID="1006" v:groupContext="shape" transform="translate(-1.59872E-14,-86.675)">
				<title>Rectangle.7</title>
				<v:userDefs>
					<v:ud v:nameU="visVersion" v:val="VT0(15):26"/>
				</v:userDefs>
				<g id="shadow1006-23" v:groupContext="shadow" v:shadowOffsetX="2.12132" v:shadowOffsetY="-2.12132" v:shadowType="1"
						transform="matrix(1,0,0,1,2.12132,2.12132)" class="st4">
					<rect x="0" y="543.525" width="101.497" height="16.9162" class="st5"/>
				</g>
				<rect x="0" y="543.525" width="101.497" height="16.9162" class="st8"/>
			</g>
			<g id="shape1007-27" v:mID="1007" v:groupContext="shape" transform="translate(-1.59872E-14,-69.1669)">
				<title>Rectangle.36</title>
				<v:userDefs>
					<v:ud v:nameU="visVersion" v:val="VT0(15):26"/>
				</v:userDefs>
				<g id="shadow1007-28" v:groupContext="shadow" v:shadowOffsetX="2.12132" v:shadowOffsetY="-2.12132" v:shadowType="1"
						transform="matrix(1,0,0,1,2.12132,2.12132)" class="st4">
					<rect x="0" y="543.525" width="101.497" height="16.9162" class="st5"/>
				</g>
				<rect x="0" y="543.525" width="101.497" height="16.9162" class="st8"/>
			</g>
			<g id="shape1008-32" v:mID="1008" v:groupContext="shape" transform="translate(-1.59872E-14,-51.7088)">
				<title>Rectangle.37</title>
				<desc>w</desc>
				<v:userDefs>
					<v:ud v:nameU="visVersion" v:val="VT0(15):26"/>
				</v:userDefs>
				<v:textBlock v:margins="rect(4,4,4,4)"/>
				<v:textRect cx="50.7485" cy="551.983" width="101.5" height="16.9162"/>
				<g id="shadow1008-33" v:groupContext="shadow" v:shadowOffsetX="2.12132" v:shadowOffsetY="-2.12132" v:shadowType="1"
						transform="matrix(1,0,0,1,2.12132,2.12132)" class="st4">
					<rect x="0" y="543.525" width="101.497" height="16.9162" class="st5"/>
				</g>
				<rect x="0" y="543.525" width="101.497" height="16.9162" class="st8"/>
				<text x="46.46" y="555.58" class="st2" v:langID="1033"><v:paragraph v:horizAlign="1"/><v:tabList/>w</text>			</g>
		</g>
		<g id="shape1010-38" v:mID="1010" v:groupContext="shape" transform="translate(-385.095,23.5324) rotate(-90) scale(-1,1)">
			<title>Side brace.1010</title>
			<desc>F() Entry FIFO</desc>
			<v:userDefs>
				<v:ud v:nameU="TxtW" v:val="VT0(0.55555555555556):29"/>
				<v:ud v:nameU="TxtA" v:val="VT0(1.5707963267949):32"/>
				<v:ud v:nameU="TxtAState" v:val="VT0(0):26"/>
				<v:ud v:nameU="TxtWState" v:val="VT0(0):26"/>
				<v:ud v:nameU="MaxRadius" v:val="VT0(0.25):1"/>
				<v:ud v:nameU="PosCH1" v:prompt="Constrains X position of Control Handle #1" v:val="VT0(0):26"/>
				<v:ud v:nameU="PosCH2" v:prompt="Constrains Y position of Control Handle #2" v:val="VT0(0):26"/>
				<v:ud v:nameU="Scale" v:val="VT0(1):26"/>
				<v:ud v:nameU="AntiScale" v:val="VT0(1):26"/>
				<v:ud v:nameU="visVersion" v:val="VT0(15):26"/>
				<v:ud v:nameU="TxtW" v:prompt="" v:val="VT0(0.83333333333333):29"/>
				<v:ud v:nameU="MaxRadius" v:prompt="" v:val="VT0(0.27343781908241):1"/>
			</v:userDefs>
			<v:textBlock v:margins="rect(4,4,4,4)"/>
			<v:textRect cx="48.7981" cy="598.972" width="60" height="36.8038" transform="rotate(90)"/>
			<path d="M0 540.75 L0 551.91 A8.53117 8.53117 -180 0 0 8.53 560.44 L40.27 560.44 A8.53117 8.53117 0 0 1 48.8 568.97 A8.53117
						 8.53117 0 0 1 57.33 560.44 L90.94 560.44 A8.53117 8.53117 -180 0 0 99.47 551.91 L99.47 540.75" class="st1"/>
			<text x="578.32" y="45.2" transform="rotate(-90) scale(-1,1)" class="st2" v:langID="1033"><v:paragraph v:horizAlign="1"/><v:tabList/>F() Entry <tspan
						x="587.97" dy="1.2em" class="st3">FIFO</tspan></text>		</g>
		<g id="group1011-43" transform="translate(20.2537,-436.596)" v:mID="1011" v:groupContext="group">
			<title>Sheet.1011</title>
			<g id="shape1012-44" v:mID="1012" v:groupContext="shape" transform="translate(-1.59872E-14,-2.0941)">
				<title>Rectangle.29</title>
				<v:userDefs>
					<v:ud v:nameU="visVersion" v:val="VT0(15):26"/>
				</v:userDefs>
				<g id="shadow1012-45" v:groupContext="shadow" v:shadowOffsetX="2.12132" v:shadowOffsetY="-2.12132" v:shadowType="1"
						transform="matrix(1,0,0,1,2.12132,2.12132)" class="st4">
					<rect x="0" y="458.944" width="101.497" height="101.497" class="st5"/>
				</g>
				<rect x="0" y="458.944" width="101.497" height="101.497" class="st6"/>
			</g>
			<g id="shape1013-49" v:mID="1013" v:groupContext="shape">
				<title>Rectangle.2</title>
				<v:userDefs>
					<v:ud v:nameU="visVersion" v:val="VT0(15):26"/>
				</v:userDefs>
				<g id="shadow1013-50" v:groupContext="shadow" v:shadowOffsetX="2.12132" v:shadowOffsetY="-2.12132" v:shadowType="1"
						transform="matrix(1,0,0,1,2.12132,2.12132)" class="st4">
					<rect x="0" y="543.525" width="101.497" height="16.9162" class="st5"/>
				</g>
				<rect x="0" y="543.525" width="101.497" height="16.9162" class="st7"/>
			</g>
			<g id="shape1014-54" v:mID="1014" v:groupContext="shape" transform="translate(-1.59872E-14,-16.9162)">
				<title>Rectangle.3</title>
				<v:userDefs>
					<v:ud v:nameU="visVersion" v:val="VT0(15):26"/>
				</v:userDefs>
				<g id="shadow1014-55" v:groupContext="shadow" v:shadowOffsetX="2.12132" v:shadowOffsetY="-2.12132" v:shadowType="1"
						transform="matrix(1,0,0,1,2.12132,2.12132)" class="st4">
					<rect x="0" y="543.525" width="101.497" height="16.9162" class="st5"/>
				</g>
				<rect x="0" y="543.525" width="101.497" height="16.9162" class="st7"/>
			</g>
			<g id="shape1015-59" v:mID="1015" v:groupContext="shape" transform="translate(-1.59872E-14,-86.675)">
				<title>Rectangle.7</title>
				<v:userDefs>
					<v:ud v:nameU="visVersion" v:val="VT0(15):26"/>
				</v:userDefs>
				<g id="shadow1015-60" v:groupContext="shadow" v:shadowOffsetX="2.12132" v:shadowOffsetY="-2.12132" v:shadowType="1"
						transform="matrix(1,0,0,1,2.12132,2.12132)" class="st4">
					<rect x="0" y="543.525" width="101.497" height="16.9162" class="st5"/>
				</g>
				<rect x="0" y="543.525" width="101.497" height="16.9162" class="st8"/>
			</g>
			<g id="shape1016-64" v:mID="1016" v:groupContext="shape" transform="translate(-1.59872E-14,-69.1669)">
				<title>Rectangle.36</title>
				<v:userDefs>
					<v:ud v:nameU="visVersion" v:val="VT0(15):26"/>
				</v:userDefs>
				<g id="shadow1016-65" v:groupContext="shadow" v:shadowOffsetX="2.12132" v:shadowOffsetY="-2.12132" v:shadowType="1"
						transform="matrix(1,0,0,1,2.12132,2.12132)" class="st4">
					<rect x="0" y="543.525" width="101.497" height="16.9162" class="st5"/>
				</g>
				<rect x="0" y="543.525" width="101.497" height="16.9162" class="st8"/>
			</g>
			<g id="shape1017-69" v:mID="1017" v:groupContext="shape" transform="translate(-1.59872E-14,-51.7088)">
				<title>Rectangle.37</title>
				<desc>x, y</desc>
				<v:userDefs>
					<v:ud v:nameU="visVersion" v:val="VT0(15):26"/>
				</v:userDefs>
				<v:textBlock v:margins="rect(4,4,4,4)"/>
				<v:textRect cx="50.7485" cy="551.983" width="101.5" height="16.9162"/>
				<g id="shadow1017-70" v:groupContext="shadow" v:shadowOffsetX="2.12132" v:shadowOffsetY="-2.12132" v:shadowType="1"
						transform="matrix(1,0,0,1,2.12132,2.12132)" class="st4">
					<rect x="0" y="543.525" width="101.497" height="16.9162" class="st5"/>
				</g>
				<rect x="0" y="543.525" width="101.497" height="16.9162" class="st8"/>
				<text x="42.58" y="555.58" class="st2" v:langID="1033"><v:paragraph v:horizAlign="1"/><v:tabList/>x, y</text>			</g>
		</g>
		<g id="shape1018-75" v:mID="1018" v:groupContext="shape" transform="translate(20.2537,-471.187)">
			<title>Rectangle.36</title>
			<v:userDefs>
				<v:ud v:nameU="visVersion" v:val="VT0(15):26"/>
			</v:userDefs>
			<g id="shadow1018-76" v:groupContext="shadow" v:shadowOffsetX="2.12132" v:shadowOffsetY="-2.12132" v:shadowType="1"
					transform="matrix(1,0,0,1,2.12132,2.12132)" class="st4">
				<rect x="0" y="543.525" width="101.497" height="16.9162" class="st5"/>
			</g>
			<rect x="0" y="543.525" width="101.497" height="16.9162" class="st8"/>
		</g>
		<g id="shape1019-80" v:mID="1019" v:groupContext="shape" transform="translate(40.346,-342.75)">
			<title>Rectangle.1019</title>
			<desc>z</desc>
			<v:userDefs>
				<v:ud v:nameU="visVersion" v:val="VT0(15):26"/>
			</v:userDefs>
			<v:textBlock v:margins="rect(4,4,4,4)"/>
			<v:textRect cx="12.3785" cy="546.754" width="24.76" height="27.375"/>
			<rect x="0" y="533.066" width="24.757" height="27.375" class="st9"/>
			<text x="10.01" y="550.35" class="st10" v:langID="1033"><v:paragraph v:horizAlign="1"/><v:tabList/>z</text>		</g>
		<g id="shape1020-85" v:mID="1020" v:groupContext="shape" transform="translate(87.4382,-342.75)">
			<title>Rectangle.1020</title>
			<desc>y</desc>
			<v:userDefs>
				<v:ud v:nameU="visVersion" v:val="VT0(15):26"/>
			</v:userDefs>
			<v:textBlock v:margins="rect(4,4,4,4)"/>
			<v:textRect cx="12.3785" cy="546.754" width="24.76" height="27.375"/>
			<rect x="0" y="533.066" width="24.757" height="27.375" class="st9"/>
			<text x="9.66" y="550.35" class="st10" v:langID="1033"><v:paragraph v:horizAlign="1"/><v:tabList/>y</text>		</g>
		<g id="shape1021-89" v:mID="1021" v:groupContext="shape" transform="translate(34.8914,-383.604)">
			<title>Circle</title>
			<desc>* 15</desc>
			<v:userDefs>
				<v:ud v:nameU="visVersion" v:val="VT0(15):26"/>
			</v:userDefs>
			<v:textBlock v:margins="rect(4,4,4,4)"/>
			<v:textRect cx="17.8331" cy="542.608" width="31.21" height="26.7496"/>
			<path d="M0 542.61 A17.8331 17.8331 0 1 1 35.67 542.61 A17.8331 17.8331 0 0 1 0 542.61 Z" class="st7"/>
			<text x="9.14" y="545.61" class="st11" v:langID="1033"><v:paragraph v:horizAlign="1"/><v:tabList/>* 15</text>		</g>
		<g id="shape1022-92" v:mID="1022" v:groupContext="shape" v:layerMember="0" transform="translate(43.7245,-436.604)">
			<title>Dynamic connector.1022</title>
			<path d="M9 561.11 L9 570.73" class="st12"/>
		</g>
		<g id="shape1023-98" v:mID="1023" v:groupContext="shape" v:layerMember="0" transform="translate(93.5022,-436.387)">
			<title>Dynamic connector.1023</title>
			<path d="M9 560.44 L9 619.1" class="st12"/>
		</g>
		<g id="shape1024-103" v:mID="1024" v:groupContext="shape" v:layerMember="0" transform="translate(43.7245,-385.865)">
			<title>Dynamic connector.1024</title>
			<path d="M9 562.7 L9 569.14" class="st12"/>
		</g>
		<g id="shape1025-108" v:mID="1025" v:groupContext="shape" transform="translate(58.4375,-293.771)">
			<title>Circle.1025</title>
			<desc>+</desc>
			<v:userDefs>
				<v:ud v:nameU="visVersion" v:val="VT0(15):26"/>
			</v:userDefs>
			<v:textBlock v:margins="rect(4,4,4,4)"/>
			<v:textRect cx="17.8331" cy="542.608" width="31.21" height="26.7496"/>
			<path d="M0 542.61 A17.8331 17.8331 0 1 1 35.67 542.61 A17.8331 17.8331 0 0 1 0 542.61 Z" class="st7"/>
			<text x="15.34" y="545.61" class="st11" v:langID="1033"><v:paragraph v:horizAlign="1"/><v:tabList/>+</text>		</g>
		<g id="shape1026-111" v:mID="1026" v:groupContext="shape" transform="translate(63.8921,-250.125)">
			<title>Rectangle.1026</title>
			<desc>w</desc>
			<v:userDefs>
				<v:ud v:nameU="visVersion" v:val="VT0(15):26"/>
			</v:userDefs>
			<v:textBlock v:margins="rect(4,4,4,4)"/>
			<v:textRect cx="12.3785" cy="546.754" width="24.76" height="27.375"/>
			<rect x="0" y="533.066" width="24.757" height="27.375" class="st9"/>
			<text x="8.09" y="550.35" class="st10" v:langID="1033"><v:paragraph v:horizAlign="1"/><v:tabList/>w</text>		</g>
		<g id="shape1027-115" v:mID="1027" v:groupContext="shape" v:layerMember="0" transform="translate(49.1917,-342.75)">
			<title>Dynamic connector.1027</title>
			<path d="M3.53 560.44 L3.53 578.98 L7.43 578.98" class="st12"/>
		</g>
		<g id="shape1028-120" v:mID="1028" v:groupContext="shape" v:layerMember="0" transform="translate(103.349,-342.75)">
			<title>Dynamic connector.1028</title>
			<path d="M-3.53 560.44 L-3.53 578.98 L-7.43 578.98" class="st12"/>
		</g>
		<g id="shape1029-125" v:mID="1029" v:groupContext="shape" v:layerMember="0" transform="translate(67.2706,-294.636)">
			<title>Dynamic connector.1029</title>
			<path d="M9 561.31 L9 570.54" class="st12"/>
		</g>
		<g id="shape1030-130" v:mID="1030" v:groupContext="shape" v:layerMember="0" transform="translate(67.2706,-250.989)">
			<title>Dynamic connector.1030</title>
			<path d="M9 561.31 L9 570.54" class="st12"/>
		</g>
		<g id="shape1031-135" v:mID="1031" v:groupContext="shape" transform="translate(25.5221,-164.021)">
			<title>Rectangle.1031</title>
			<v:userDefs>
				<v:ud v:nameU="visVersion" v:val="VT0(15):26"/>
			</v:userDefs>
			<g id="shadow1031-136" v:groupContext="shadow" v:shadowOffsetX="2.12132" v:shadowOffsetY="-2.12132" v:shadowType="1"
					transform="matrix(1,0,0,1,2.12132,2.12132)" class="st4">
				<rect x="0" y="543.525" width="101.497" height="16.9162" class="st5"/>
			</g>
			<rect x="0" y="543.525" width="101.497" height="16.9162" class="st8"/>
		</g>
		<g id="shape1032-140" v:mID="1032" v:groupContext="shape" transform="translate(58.4375,-68.7713)">
			<title>Circle.1032</title>
			<desc>+ 3</desc>
			<v:userDefs>
				<v:ud v:nameU="visVersion" v:val="VT0(15):26"/>
			</v:userDefs>
			<v:textBlock v:margins="rect(4,4,4,4)"/>
			<v:textRect cx="17.8331" cy="542.608" width="31.21" height="26.7496"/>
			<path d="M0 542.61 A17.8331 17.8331 0 1 1 35.67 542.61 A17.8331 17.8331 0 0 1 0 542.61 Z" class="st7"/>
			<text x="11.68" y="545.61" class="st11" v:langID="1033"><v:paragraph v:horizAlign="1"/><v:tabList/>+ 3</text>		</g>
		<g id="shape1033-143" v:mID="1033" v:groupContext="shape" v:layerMember="0" transform="translate(67.2706,-132.357)">
			<title>Dynamic connector.1033</title>
			<path d="M9 560.44 L9 581.32" class="st12"/>
		</g>
		<g id="shape1034-148" v:mID="1034" v:groupContext="shape" transform="translate(63.8921,-18.75)">
			<title>Rectangle.1034</title>
			<desc>a</desc>
			<v:userDefs>
				<v:ud v:nameU="visVersion" v:val="VT0(15):26"/>
			</v:userDefs>
			<v:textBlock v:margins="rect(4,4,4,4)"/>
			<v:textRect cx="12.3785" cy="546.754" width="24.76" height="27.375"/>
			<rect x="0" y="533.066" width="24.757" height="27.375" class="st9"/>
			<text x="9.5" y="550.35" class="st10" v:langID="1033"><v:paragraph v:horizAlign="1"/><v:tabList/>a</text>		</g>
		<g id="shape1035-152" v:mID="1035" v:groupContext="shape" v:layerMember="0" transform="translate(67.2706,-68.7713)">
			<title>Dynamic connector.1035</title>
			<path d="M9 560.44 L9 576.05" class="st12"/>
		</g>
		<g id="shape1036-157" v:mID="1036" v:groupContext="shape" transform="translate(-398.441,190.316) rotate(-90) scale(-1,1)">
			<title>Side brace.1036</title>
			<desc>Pipeline Registers</desc>
			<v:userDefs>
				<v:ud v:nameU="TxtW" v:val="VT0(0.55555555555556):29"/>
				<v:ud v:nameU="TxtA" v:val="VT0(1.5707963267949):32"/>
				<v:ud v:nameU="TxtAState" v:val="VT0(0):26"/>
				<v:ud v:nameU="TxtWState" v:val="VT0(0):26"/>
				<v:ud v:nameU="MaxRadius" v:val="VT0(0.25):1"/>
				<v:ud v:nameU="PosCH1" v:prompt="Constrains X position of Control Handle #1" v:val="VT0(0):26"/>
				<v:ud v:nameU="PosCH2" v:prompt="Constrains Y position of Control Handle #2" v:val="VT0(0):26"/>
				<v:ud v:nameU="Scale" v:val="VT0(1):26"/>
				<v:ud v:nameU="AntiScale" v:val="VT0(1):26"/>
				<v:ud v:nameU="visVersion" v:val="VT0(15):26"/>
				<v:ud v:nameU="TxtW" v:prompt="" v:val="VT0(0.83333333333333):29"/>
				<v:ud v:nameU="MaxRadius" v:prompt="" v:val="VT0(0.095052051146698):1"/>
			</v:userDefs>
			<v:textBlock v:margins="rect(4,4,4,4)"/>
			<v:textRect cx="13.7812" cy="594.941" width="60" height="36.8038" transform="rotate(90)"/>
			<path d="M0 540.75 L0 555.94 A4.49993 4.49993 -180 0 0 4.5 560.44 L9.28 560.44 A4.49993 4.49993 0 0 1 13.78 564.94 A4.49993
						 4.49993 0 0 1 18.28 560.44 L22.87 560.44 A4.49993 4.49993 -180 0 0 27.37 555.94 L27.37 540.75" class="st1"/>
			<text x="575.44" y="10.18" transform="rotate(-90) scale(-1,1)" class="st2" v:langID="1033"><v:paragraph
						v:horizAlign="1"/><v:tabList/>Pipeline <tspan x="572.72" dy="1.2em" class="st3">Registers</tspan></text>		</g>
		<g id="shape1037-162" v:mID="1037" v:groupContext="shape" transform="translate(-398.441,282.941) rotate(-90) scale(-1,1)">
			<title>Side brace.1037</title>
			<desc>Pipeline Register</desc>
			<v:userDefs>
				<v:ud v:nameU="TxtW" v:val="VT0(0.55555555555556):29"/>
				<v:ud v:nameU="TxtA" v:val="VT0(1.5707963267949):32"/>
				<v:ud v:nameU="TxtAState" v:val="VT0(0):26"/>
				<v:ud v:nameU="TxtWState" v:val="VT0(0):26"/>
				<v:ud v:nameU="MaxRadius" v:val="VT0(0.25):1"/>
				<v:ud v:nameU="PosCH1" v:prompt="Constrains X position of Control Handle #1" v:val="VT0(0):26"/>
				<v:ud v:nameU="PosCH2" v:prompt="Constrains Y position of Control Handle #2" v:val="VT0(0):26"/>
				<v:ud v:nameU="Scale" v:val="VT0(1):26"/>
				<v:ud v:nameU="AntiScale" v:val="VT0(1):26"/>
				<v:ud v:nameU="visVersion" v:val="VT0(15):26"/>
				<v:ud v:nameU="TxtW" v:prompt="" v:val="VT0(0.83333333333333):29"/>
				<v:ud v:nameU="MaxRadius" v:prompt="" v:val="VT0(0.095052051146698):1"/>
			</v:userDefs>
			<v:textBlock v:margins="rect(4,4,4,4)"/>
			<v:textRect cx="13.7812" cy="594.941" width="60" height="36.8038" transform="rotate(90)"/>
			<path d="M0 540.75 L0 555.94 A4.49993 4.49993 -180 0 0 4.5 560.44 L9.28 560.44 A4.49993 4.49993 0 0 1 13.78 564.94 A4.49993
						 4.49993 0 0 1 18.28 560.44 L22.87 560.44 A4.49993 4.49993 -180 0 0 27.37 555.94 L27.37 540.75" class="st1"/>
			<text x="575.44" y="10.18" transform="rotate(-90) scale(-1,1)" class="st2" v:langID="1033"><v:paragraph
						v:horizAlign="1"/><v:tabList/>Pipeline <tspan x="575.06" dy="1.2em" class="st3">Register</tspan></text>		</g>
		<g id="shape1038-167" v:mID="1038" v:groupContext="shape" transform="translate(-398.441,514.316) rotate(-90) scale(-1,1)">
			<title>Side brace.1038</title>
			<desc>Pipeline Register</desc>
			<v:userDefs>
				<v:ud v:nameU="TxtW" v:val="VT0(0.55555555555556):29"/>
				<v:ud v:nameU="TxtA" v:val="VT0(1.5707963267949):32"/>
				<v:ud v:nameU="TxtAState" v:val="VT0(0):26"/>
				<v:ud v:nameU="TxtWState" v:val="VT0(0):26"/>
				<v:ud v:nameU="MaxRadius" v:val="VT0(0.25):1"/>
				<v:ud v:nameU="PosCH1" v:prompt="Constrains X position of Control Handle #1" v:val="VT0(0):26"/>
				<v:ud v:nameU="PosCH2" v:prompt="Constrains Y position of Control Handle #2" v:val="VT0(0):26"/>
				<v:ud v:nameU="Scale" v:val="VT0(1):26"/>
				<v:ud v:nameU="AntiScale" v:val="VT0(1):26"/>
				<v:ud v:nameU="visVersion" v:val="VT0(15):26"/>
				<v:ud v:nameU="TxtW" v:prompt="" v:val="VT0(0.83333333333333):29"/>
				<v:ud v:nameU="MaxRadius" v:prompt="" v:val="VT0(0.095052051146698):1"/>
			</v:userDefs>
			<v:textBlock v:margins="rect(4,4,4,4)"/>
			<v:textRect cx="13.7812" cy="594.941" width="60" height="36.8038" transform="rotate(90)"/>
			<path d="M0 540.75 L0 555.94 A4.49993 4.49993 -180 0 0 4.5 560.44 L9.28 560.44 A4.49993 4.49993 0 0 1 13.78 564.94 A4.49993
						 4.49993 0 0 1 18.28 560.44 L22.87 560.44 A4.49993 4.49993 -180 0 0 27.37 555.94 L27.37 540.75" class="st1"/>
			<text x="575.44" y="10.18" transform="rotate(-90) scale(-1,1)" class="st2" v:langID="1033"><v:paragraph
						v:horizAlign="1"/><v:tabList/>Pipeline <tspan x="575.06" dy="1.2em" class="st3">Register</tspan></text>		</g>
	</g>
</svg>
