<?xml version="1.0" encoding="UTF-8" standalone="no"?>
<!DOCTYPE svg PUBLIC "-//W3C//DTD SVG 1.1//EN" "http://www.w3.org/Graphics/SVG/1.1/DTD/svg11.dtd">
<!-- Generated by Microsoft Visio, SVG Export simple-pipeline.svg Page-1 -->
<svg xmlns="http://www.w3.org/2000/svg" xmlns:xlink="http://www.w3.org/1999/xlink" xmlns:ev="http://www.w3.org/2001/xml-events"
		xmlns:v="http://schemas.microsoft.com/visio/2003/SVGExtensions/" width="4.16219in" height="5.82213in"
		viewBox="0 0 299.677 419.193" xml:space="preserve" color-interpolation-filters="sRGB" class="st13">
	<v:documentProperties v:langID="1033" v:viewMarkup="false"/>

	<style type="text/css">
	<![CDATA[
		.st1 {fill:url(#grad0-4);stroke:#3c63ac;stroke-width:0.75}
		.st2 {fill:#3c63ac;font-family:Calibri;font-size:1.00001em}
		.st3 {marker-end:url(#mrkr4-11);stroke:#4672c4;stroke-linecap:round;stroke-linejoin:round;stroke-width:1}
		.st4 {fill:#4672c4;fill-opacity:1;stroke:#4672c4;stroke-opacity:1;stroke-width:0.28409090909091}
		.st5 {visibility:visible}
		.st6 {fill:#000000;fill-opacity:0.4;filter:url(#filter_2.6666667461395);stroke:#000000;stroke-opacity:0.4}
		.st7 {fill:#ffffff;stroke:#e8ebef;stroke-width:0.75}
		.st8 {fill:#4672c4;stroke:#c7c8c8;stroke-width:0.25}
		.st9 {fill:#ffffff;stroke:#ebeff5;stroke-width:0.75}
		.st10 {fill:#4672c4;font-family:Calibri;font-size:1.00001em}
		.st11 {stroke:#305497;stroke-width:0.25}
		.st12 {font-size:1em}
		.st13 {fill:none;fill-rule:evenodd;font-size:12px;overflow:visible;stroke-linecap:square;stroke-miterlimit:3}
	]]>
	</style>

	<defs id="Patterns_And_Gradients">
		<linearGradient id="grad0-4" x1="0" y1="0" x2="1" y2="0" gradientTransform="rotate(60 0.5 0.5)">
			<stop offset="0" stop-color="#e8ebf4" stop-opacity="1"/>
			<stop offset="0.24" stop-color="#f4f5f9" stop-opacity="1"/>
			<stop offset="0.54" stop-color="#feffff" stop-opacity="1"/>
		</linearGradient>
	</defs>
	<defs id="Markers">
		<g id="lend4">
			<path d="M 2 1 L 0 0 L 2 -1 L 2 1 " style="stroke:none"/>
		</g>
		<marker id="mrkr4-11" class="st4" v:arrowType="4" v:arrowSize="2" v:setback="7.04" refX="-7.04" orient="auto"
				markerUnits="strokeWidth" overflow="visible">
			<use xlink:href="#lend4" transform="scale(-3.52,-3.52) "/>
		</marker>
	</defs>
	<defs id="Filters">
		<filter id="filter_2.6666667461395">
			<feGaussianBlur stdDeviation="2.6666667461395"/>
		</filter>
	</defs>
	<g v:mID="0" v:index="1" v:groupContext="foregroundPage">
		<title>Page-1</title>
		<v:pageProperties v:drawingScale="1" v:pageScale="1" v:drawingUnits="0" v:shadowOffsetX="9" v:shadowOffsetY="-9"/>
		<v:layer v:name="Connector" v:index="0"/>
		<g id="shape28-1" v:mID="28" v:groupContext="shape" transform="translate(0.75,-185.144)">
			<title>Rectangle.28</title>
			<desc>F() Pipeline</desc>
			<v:userDefs>
				<v:ud v:nameU="visVersion" v:val="VT0(15):26"/>
			</v:userDefs>
			<v:textBlock v:margins="rect(4,4,4,4)"/>
			<v:textRect cx="126" cy="395.568" width="252" height="47.25"/>
			<rect x="0" y="371.943" width="252" height="47.25" class="st1"/>
			<text x="98.74" y="399.17" class="st2" v:langID="1033"><v:paragraph v:horizAlign="1"/><v:tabList/>F() Pipeline</text>		</g>
		<g id="shape29-6" v:mID="29" v:groupContext="shape" v:layerMember="0" transform="translate(135.776,-313.349)">
			<title>Dynamic connector.29</title>
			<path d="M-8.97 419.19 L-9.02 493.11" class="st3"/>
		</g>
		<g id="group1013-12" transform="translate(75.8438,-6.24632)" v:mID="1013" v:groupContext="group">
			<title>Sheet.1013</title>
			<g id="shape1014-13" v:mID="1014" v:groupContext="shape" transform="translate(-1.59872E-14,-2.0941)">
				<title>Rectangle.29</title>
				<v:userDefs>
					<v:ud v:nameU="visVersion" v:val="VT0(15):26"/>
				</v:userDefs>
				<g id="shadow1014-14" v:groupContext="shadow" v:shadowOffsetX="2.12132" v:shadowOffsetY="-2.12132" v:shadowType="1"
						transform="matrix(1,0,0,1,2.12132,2.12132)" class="st5">
					<rect x="0" y="317.696" width="101.497" height="101.497" class="st6"/>
				</g>
				<rect x="0" y="317.696" width="101.497" height="101.497" class="st7"/>
			</g>
			<g id="shape1015-18" v:mID="1015" v:groupContext="shape">
				<title>Rectangle.2</title>
				<v:userDefs>
					<v:ud v:nameU="visVersion" v:val="VT0(15):26"/>
				</v:userDefs>
				<g id="shadow1015-19" v:groupContext="shadow" v:shadowOffsetX="2.12132" v:shadowOffsetY="-2.12132" v:shadowType="1"
						transform="matrix(1,0,0,1,2.12132,2.12132)" class="st5">
					<rect x="0" y="402.277" width="101.497" height="16.9162" class="st6"/>
				</g>
				<rect x="0" y="402.277" width="101.497" height="16.9162" class="st8"/>
			</g>
			<g id="shape1016-23" v:mID="1016" v:groupContext="shape" transform="translate(-1.59872E-14,-16.9162)">
				<title>Rectangle.3</title>
				<v:userDefs>
					<v:ud v:nameU="visVersion" v:val="VT0(15):26"/>
				</v:userDefs>
				<g id="shadow1016-24" v:groupContext="shadow" v:shadowOffsetX="2.12132" v:shadowOffsetY="-2.12132" v:shadowType="1"
						transform="matrix(1,0,0,1,2.12132,2.12132)" class="st5">
					<rect x="0" y="402.277" width="101.497" height="16.9162" class="st6"/>
				</g>
				<rect x="0" y="402.277" width="101.497" height="16.9162" class="st8"/>
			</g>
			<g id="shape1017-28" v:mID="1017" v:groupContext="shape" transform="translate(-1.59872E-14,-86.675)">
				<title>Rectangle.7</title>
				<v:userDefs>
					<v:ud v:nameU="visVersion" v:val="VT0(15):26"/>
				</v:userDefs>
				<g id="shadow1017-29" v:groupContext="shadow" v:shadowOffsetX="2.12132" v:shadowOffsetY="-2.12132" v:shadowType="1"
						transform="matrix(1,0,0,1,2.12132,2.12132)" class="st5">
					<rect x="0" y="402.277" width="101.497" height="16.9162" class="st6"/>
				</g>
				<rect x="0" y="402.277" width="101.497" height="16.9162" class="st9"/>
			</g>
			<g id="shape1018-33" v:mID="1018" v:groupContext="shape" transform="translate(-1.59872E-14,-69.1669)">
				<title>Rectangle.36</title>
				<v:userDefs>
					<v:ud v:nameU="visVersion" v:val="VT0(15):26"/>
				</v:userDefs>
				<g id="shadow1018-34" v:groupContext="shadow" v:shadowOffsetX="2.12132" v:shadowOffsetY="-2.12132" v:shadowType="1"
						transform="matrix(1,0,0,1,2.12132,2.12132)" class="st5">
					<rect x="0" y="402.277" width="101.497" height="16.9162" class="st6"/>
				</g>
				<rect x="0" y="402.277" width="101.497" height="16.9162" class="st9"/>
			</g>
			<g id="shape1019-38" v:mID="1019" v:groupContext="shape" transform="translate(-1.59872E-14,-51.7088)">
				<title>Rectangle.37</title>
				<desc>z / 4</desc>
				<v:userDefs>
					<v:ud v:nameU="visVersion" v:val="VT0(15):26"/>
				</v:userDefs>
				<v:textBlock v:margins="rect(4,4,4,4)"/>
				<v:textRect cx="50.7485" cy="410.735" width="101.5" height="16.9162"/>
				<g id="shadow1019-39" v:groupContext="shadow" v:shadowOffsetX="2.12132" v:shadowOffsetY="-2.12132" v:shadowType="1"
						transform="matrix(1,0,0,1,2.12132,2.12132)" class="st5">
					<rect x="0" y="402.277" width="101.497" height="16.9162" class="st6"/>
				</g>
				<rect x="0" y="402.277" width="101.497" height="16.9162" class="st9"/>
				<text x="40.31" y="414.34" class="st10" v:langID="1033"><v:paragraph v:horizAlign="1"/><v:tabList/>z / 4</text>			</g>
		</g>
		<g id="shape1021-44" v:mID="1021" v:groupContext="shape" v:layerMember="0" transform="translate(135.671,-185.144)">
			<title>Dynamic connector.1021</title>
			<path d="M-8.92 419.19 L-9.06 487.46" class="st3"/>
		</g>
		<g id="group1022-49" transform="translate(76.0538,-313.349)" v:mID="1022" v:groupContext="group">
			<title>Sheet.1022</title>
			<g id="shape27-50" v:mID="27" v:groupContext="shape" transform="translate(-264.101,318.881) rotate(-90) scale(-1,1)">
				<title>Side brace</title>
				<desc>F() Entry FIFO</desc>
				<v:userDefs>
					<v:ud v:nameU="TxtW" v:val="VT0(0.55555555555556):29"/>
					<v:ud v:nameU="TxtA" v:val="VT0(1.5707963267949):32"/>
					<v:ud v:nameU="TxtAState" v:val="VT0(0):26"/>
					<v:ud v:nameU="TxtWState" v:val="VT0(0):26"/>
					<v:ud v:nameU="MaxRadius" v:val="VT0(0.25):1"/>
					<v:ud v:nameU="PosCH1" v:prompt="Constrains X position of Control Handle #1" v:val="VT0(0):26"/>
					<v:ud v:nameU="PosCH2" v:prompt="Constrains Y position of Control Handle #2" v:val="VT0(0):26"/>
					<v:ud v:nameU="Scale" v:val="VT0(1):26"/>
					<v:ud v:nameU="AntiScale" v:val="VT0(1):26"/>
					<v:ud v:nameU="visVersion" v:val="VT0(15):26"/>
					<v:ud v:nameU="TxtW" v:prompt="" v:val="VT0(0.83333333333333):29"/>
					<v:ud v:nameU="MaxRadius" v:prompt="" v:val="VT0(0.27343781908241):1"/>
				</v:userDefs>
				<v:textBlock v:margins="rect(4,4,4,4)"/>
				<v:textRect cx="49.2187" cy="457.725" width="60" height="36.8038" transform="rotate(90)"/>
				<path d="M0 399.51 L0 410.66 A8.53117 8.53117 -180 0 0 8.53 419.19 L40.69 419.19 A8.53117 8.53117 0 0 1 49.22 427.72
							 A8.53117 8.53117 0 0 1 57.75 419.19 L91.78 419.19 A8.53117 8.53117 -180 0 0 100.31 410.66 L100.31 399.51"
						class="st11"/>
				<text x="437.07" y="45.62" transform="rotate(-90) scale(-1,1)" class="st10" v:langID="1033"><v:paragraph
							v:horizAlign="1"/><v:tabList/>F() Entry <tspan x="446.73" dy="1.2em" class="st12">FIFO</tspan></text>			</g>
			<g id="group1002-55" transform="translate(-1.59872E-14,-1.09727E-06)" v:mID="1002" v:groupContext="group">
				<title>Sheet.1002</title>
				<g id="shape1003-56" v:mID="1003" v:groupContext="shape" transform="translate(-1.59872E-14,-2.0941)">
					<title>Rectangle.29</title>
					<v:userDefs>
						<v:ud v:nameU="visVersion" v:val="VT0(15):26"/>
					</v:userDefs>
					<g id="shadow1003-57" v:groupContext="shadow" v:shadowOffsetX="2.12132" v:shadowOffsetY="-2.12132"
							v:shadowType="1" transform="matrix(1,0,0,1,2.12132,2.12132)" class="st5">
						<rect x="0" y="317.696" width="101.497" height="101.497" class="st6"/>
					</g>
					<rect x="0" y="317.696" width="101.497" height="101.497" class="st7"/>
				</g>
				<g id="shape1004-61" v:mID="1004" v:groupContext="shape">
					<title>Rectangle.2</title>
					<v:userDefs>
						<v:ud v:nameU="visVersion" v:val="VT0(15):26"/>
					</v:userDefs>
					<g id="shadow1004-62" v:groupContext="shadow" v:shadowOffsetX="2.12132" v:shadowOffsetY="-2.12132"
							v:shadowType="1" transform="matrix(1,0,0,1,2.12132,2.12132)" class="st5">
						<rect x="0" y="402.277" width="101.497" height="16.9162" class="st6"/>
					</g>
					<rect x="0" y="402.277" width="101.497" height="16.9162" class="st8"/>
				</g>
				<g id="shape1005-66" v:mID="1005" v:groupContext="shape" transform="translate(-1.59872E-14,-16.9162)">
					<title>Rectangle.3</title>
					<v:userDefs>
						<v:ud v:nameU="visVersion" v:val="VT0(15):26"/>
					</v:userDefs>
					<g id="shadow1005-67" v:groupContext="shadow" v:shadowOffsetX="2.12132" v:shadowOffsetY="-2.12132"
							v:shadowType="1" transform="matrix(1,0,0,1,2.12132,2.12132)" class="st5">
						<rect x="0" y="402.277" width="101.497" height="16.9162" class="st6"/>
					</g>
					<rect x="0" y="402.277" width="101.497" height="16.9162" class="st8"/>
				</g>
				<g id="shape1006-71" v:mID="1006" v:groupContext="shape" transform="translate(-1.59872E-14,-86.675)">
					<title>Rectangle.7</title>
					<v:userDefs>
						<v:ud v:nameU="visVersion" v:val="VT0(15):26"/>
					</v:userDefs>
					<g id="shadow1006-72" v:groupContext="shadow" v:shadowOffsetX="2.12132" v:shadowOffsetY="-2.12132"
							v:shadowType="1" transform="matrix(1,0,0,1,2.12132,2.12132)" class="st5">
						<rect x="0" y="402.277" width="101.497" height="16.9162" class="st6"/>
					</g>
					<rect x="0" y="402.277" width="101.497" height="16.9162" class="st9"/>
				</g>
				<g id="shape1007-76" v:mID="1007" v:groupContext="shape" transform="translate(-1.59872E-14,-69.1669)">
					<title>Rectangle.36</title>
					<v:userDefs>
						<v:ud v:nameU="visVersion" v:val="VT0(15):26"/>
					</v:userDefs>
					<g id="shadow1007-77" v:groupContext="shadow" v:shadowOffsetX="2.12132" v:shadowOffsetY="-2.12132"
							v:shadowType="1" transform="matrix(1,0,0,1,2.12132,2.12132)" class="st5">
						<rect x="0" y="402.277" width="101.497" height="16.9162" class="st6"/>
					</g>
					<rect x="0" y="402.277" width="101.497" height="16.9162" class="st9"/>
				</g>
				<g id="shape1008-81" v:mID="1008" v:groupContext="shape" transform="translate(-1.59872E-14,-51.7088)">
					<title>Rectangle.37</title>
					<desc>x</desc>
					<v:userDefs>
						<v:ud v:nameU="visVersion" v:val="VT0(15):26"/>
					</v:userDefs>
					<v:textBlock v:margins="rect(4,4,4,4)"/>
					<v:textRect cx="50.7485" cy="410.735" width="101.5" height="16.9162"/>
					<g id="shadow1008-82" v:groupContext="shadow" v:shadowOffsetX="2.12132" v:shadowOffsetY="-2.12132"
							v:shadowType="1" transform="matrix(1,0,0,1,2.12132,2.12132)" class="st5">
						<rect x="0" y="402.277" width="101.497" height="16.9162" class="st6"/>
					</g>
					<rect x="0" y="402.277" width="101.497" height="16.9162" class="st9"/>
					<text x="48.15" y="414.34" class="st10" v:langID="1033"><v:paragraph v:horizAlign="1"/><v:tabList/>x</text>				</g>
			</g>
			<g id="shape1009-87" v:mID="1009" v:groupContext="shape" transform="translate(1.59872E-14,-34.2919)">
				<title>Rectangle.7</title>
				<v:userDefs>
					<v:ud v:nameU="visVersion" v:val="VT0(15):26"/>
				</v:userDefs>
				<g id="shadow1009-88" v:groupContext="shadow" v:shadowOffsetX="2.12132" v:shadowOffsetY="-2.12132" v:shadowType="1"
						transform="matrix(1,0,0,1,2.12132,2.12132)" class="st5">
					<rect x="0" y="402.277" width="101.497" height="16.9162" class="st6"/>
				</g>
				<rect x="0" y="402.277" width="101.497" height="16.9162" class="st9"/>
			</g>
		</g>
		<g id="group1023-92" transform="translate(75.8438,-6.24632)" v:mID="1023" v:groupContext="group">
			<title>Sheet.1023</title>
			<g id="shape1012-93" v:mID="1012" v:groupContext="shape"
					transform="translate(-264.101,318.881) rotate(-90) scale(-1,1)">
				<title>Side brace.1012</title>
				<desc>F() Exit FIFO</desc>
				<v:userDefs>
					<v:ud v:nameU="TxtW" v:val="VT0(0.55555555555556):29"/>
					<v:ud v:nameU="TxtA" v:val="VT0(1.5707963267949):32"/>
					<v:ud v:nameU="TxtAState" v:val="VT0(0):26"/>
					<v:ud v:nameU="TxtWState" v:val="VT0(0):26"/>
					<v:ud v:nameU="MaxRadius" v:val="VT0(0.25):1"/>
					<v:ud v:nameU="PosCH1" v:prompt="Constrains X position of Control Handle #1" v:val="VT0(0):26"/>
					<v:ud v:nameU="PosCH2" v:prompt="Constrains Y position of Control Handle #2" v:val="VT0(0):26"/>
					<v:ud v:nameU="Scale" v:val="VT0(1):26"/>
					<v:ud v:nameU="AntiScale" v:val="VT0(1):26"/>
					<v:ud v:nameU="visVersion" v:val="VT0(15):26"/>
					<v:ud v:nameU="TxtW" v:prompt="" v:val="VT0(0.83333333333333):29"/>
					<v:ud v:nameU="MaxRadius" v:prompt="" v:val="VT0(0.27343781908241):1"/>
				</v:userDefs>
				<v:textBlock v:margins="rect(4,4,4,4)"/>
				<v:textRect cx="49.2187" cy="457.725" width="60" height="36.8038" transform="rotate(90)"/>
				<path d="M0 399.51 L0 410.66 A8.53117 8.53117 -180 0 0 8.53 419.19 L40.69 419.19 A8.53117 8.53117 0 0 1 49.22 427.72
							 A8.53117 8.53117 0 0 1 57.75 419.19 L91.78 419.19 A8.53117 8.53117 -180 0 0 100.31 410.66 L100.31 399.51"
						class="st11"/>
				<text x="441.06" y="45.62" transform="rotate(-90) scale(-1,1)" class="st10" v:langID="1033"><v:paragraph
							v:horizAlign="1"/><v:tabList/>F() Exit <tspan x="446.73" dy="1.2em" class="st12">FIFO</tspan></text>			</g>
			<g id="shape1020-98" v:mID="1020" v:groupContext="shape" transform="translate(1.59872E-14,-34.2919)">
				<title>Rectangle.1020</title>
				<v:userDefs>
					<v:ud v:nameU="visVersion" v:val="VT0(15):26"/>
				</v:userDefs>
				<g id="shadow1020-99" v:groupContext="shadow" v:shadowOffsetX="2.12132" v:shadowOffsetY="-2.12132" v:shadowType="1"
						transform="matrix(1,0,0,1,2.12132,2.12132)" class="st5">
					<rect x="0" y="402.277" width="101.497" height="16.9162" class="st6"/>
				</g>
				<rect x="0" y="402.277" width="101.497" height="16.9162" class="st9"/>
			</g>
		</g>
	</g>
</svg>
