<?xml version="1.0" encoding="UTF-8" standalone="no"?>
<!DOCTYPE svg PUBLIC "-//W3C//DTD SVG 1.1//EN" "http://www.w3.org/Graphics/SVG/1.1/DTD/svg11.dtd">
<!-- Generated by Microsoft Visio, SVG Export sync-function-call.svg sync-function-call -->
<svg xmlns="http://www.w3.org/2000/svg" xmlns:xlink="http://www.w3.org/1999/xlink" xmlns:ev="http://www.w3.org/2001/xml-events"
		xmlns:v="http://schemas.microsoft.com/visio/2003/SVGExtensions/" width="9.76172in" height="8.02604in"
		viewBox="0 0 702.844 577.875" xml:space="preserve" color-interpolation-filters="sRGB" class="st16">
	<v:documentProperties v:langID="1033" v:viewMarkup="false">
		<v:userDefs>
			<v:ud v:nameU="msvSubprocessMaster" v:prompt="" v:val="VT4(Rectangle)"/>
			<v:ud v:nameU="msvNoAutoConnect" v:val="VT0(1):26"/>
		</v:userDefs>
	</v:documentProperties>

	<style type="text/css">
	<![CDATA[
		.st1 {fill:url(#grad0-4);stroke:#3c63ac;stroke-width:0.75}
		.st2 {fill:#3c63ac;font-family:Calibri;font-size:1.00001em}
		.st3 {fill:#4672c4;font-family:Calibri;font-size:1.00001em;font-style:italic}
		.st4 {font-size:1em;font-style:normal}
		.st5 {fill:#3c63ac;font-family:Calibri;font-size:1.00001em;font-style:italic}
		.st6 {marker-end:url(#mrkr4-22);stroke:#4672c4;stroke-linecap:round;stroke-linejoin:round;stroke-width:1}
		.st7 {fill:#4672c4;fill-opacity:1;stroke:#4672c4;stroke-opacity:1;stroke-width:0.28409090909091}
		.st8 {stroke:#305497;stroke-width:0.25}
		.st9 {fill:#4672c4;font-family:Calibri;font-size:1.00001em}
		.st10 {font-size:1em}
		.st11 {visibility:visible}
		.st12 {fill:#000000;fill-opacity:0.4;filter:url(#filter_2.6666667461395);stroke:#000000;stroke-opacity:0.4}
		.st13 {fill:#ffffff;stroke:#e8ebef;stroke-width:0.75}
		.st14 {fill:#4672c4;stroke:#c7c8c8;stroke-width:0.25}
		.st15 {fill:#ffffff;stroke:#ebeff5;stroke-width:0.75}
		.st16 {fill:none;fill-rule:evenodd;font-size:12px;overflow:visible;stroke-linecap:square;stroke-miterlimit:3}
	]]>
	</style>

	<defs id="Patterns_And_Gradients">
		<linearGradient id="grad0-4" x1="0" y1="0" x2="1" y2="0" gradientTransform="rotate(60 0.5 0.5)">
			<stop offset="0" stop-color="#e8ebf4" stop-opacity="1"/>
			<stop offset="0.24" stop-color="#f4f5f9" stop-opacity="1"/>
			<stop offset="0.54" stop-color="#feffff" stop-opacity="1"/>
		</linearGradient>
	</defs>
	<defs id="Markers">
		<g id="lend4">
			<path d="M 2 1 L 0 0 L 2 -1 L 2 1 " style="stroke:none"/>
		</g>
		<marker id="mrkr4-22" class="st7" v:arrowType="4" v:arrowSize="2" v:setback="7.04" refX="-7.04" orient="auto"
				markerUnits="strokeWidth" overflow="visible">
			<use xlink:href="#lend4" transform="scale(-3.52,-3.52) "/>
		</marker>
	</defs>
	<defs id="Filters">
		<filter id="filter_2.6666667461395">
			<feGaussianBlur stdDeviation="2.6666667461395"/>
		</filter>
	</defs>
	<g v:mID="24" v:index="7" v:groupContext="foregroundPage">
		<v:userDefs>
			<v:ud v:nameU="msvThemeOrder" v:val="VT0(0):26"/>
		</v:userDefs>
		<title>sync-function-call</title>
		<v:pageProperties v:drawingScale="1" v:pageScale="1" v:drawingUnits="0" v:shadowOffsetX="9" v:shadowOffsetY="-9"/>
		<v:layer v:name="Connector" v:index="0"/>
		<g id="shape11-1" v:mID="11" v:groupContext="shape" transform="translate(215.25,-511.875)">
			<title>Rectangle</title>
			<desc>F() Pipeline</desc>
			<v:userDefs>
				<v:ud v:nameU="visVersion" v:val="VT0(15):26"/>
			</v:userDefs>
			<v:textBlock v:margins="rect(4,4,4,4)"/>
			<v:textRect cx="126" cy="554.25" width="252" height="47.25"/>
			<rect x="0" y="530.625" width="252" height="47.25" class="st1"/>
			<text x="98.74" y="557.85" class="st2" v:langID="1033"><v:paragraph v:horizAlign="1"/><v:tabList/>F() Pipeline</text>		</g>
		<g id="shape12-6" v:mID="12" v:groupContext="shape" transform="translate(215.25,-450.75)">
			<title>Rectangle.12</title>
			<desc>call G()</desc>
			<v:userDefs>
				<v:ud v:nameU="visVersion" v:val="VT0(15):26"/>
			</v:userDefs>
			<v:textBlock v:margins="rect(4,4,4,4)"/>
			<v:textRect cx="126" cy="554.25" width="252" height="47.25"/>
			<rect x="0" y="530.625" width="252" height="47.25" class="st1"/>
			<text x="108.88" y="557.85" class="st3" v:langID="1033"><v:paragraph v:horizAlign="1"/><v:tabList/>call<tspan
						class="st4"> </tspan><tspan class="st4">G()</tspan></text>		</g>
		<g id="shape13-12" v:mID="13" v:groupContext="shape" transform="translate(215.25,-18.75)">
			<title>Rectangle.13</title>
			<desc>resume F()</desc>
			<v:userDefs>
				<v:ud v:nameU="visVersion" v:val="VT0(15):26"/>
			</v:userDefs>
			<v:textBlock v:margins="rect(4,4,4,4)"/>
			<v:textRect cx="126" cy="554.25" width="252" height="47.25"/>
			<rect x="0" y="530.625" width="252" height="47.25" class="st1"/>
			<text x="100.3" y="557.85" class="st5" v:langID="1033"><v:paragraph v:horizAlign="1"/><v:tabList/>resume <tspan
						class="st4">F()</tspan></text>		</g>
		<g id="shape14-17" v:mID="14" v:groupContext="shape" v:layerMember="0" transform="translate(341.25,-450.75)">
			<title>Dynamic connector</title>
			<path d="M0 577.87 L0 591.37 L162.75 591.37 L162.75 601.21" class="st6"/>
		</g>
		<g id="shape26-23" v:mID="26" v:groupContext="shape" v:layerMember="0" transform="translate(332.25,-513.937)">
			<title>Dynamic connector.26</title>
			<path d="M9 579.94 L9 586.77" class="st6"/>
		</g>
		<g id="shape28-28" v:mID="28" v:groupContext="shape" transform="translate(378,-247.125)">
			<title>Rectangle.28</title>
			<desc>G() Pipeline</desc>
			<v:userDefs>
				<v:ud v:nameU="visVersion" v:val="VT0(15):26"/>
			</v:userDefs>
			<v:textBlock v:margins="rect(4,4,4,4)"/>
			<v:textRect cx="126" cy="554.25" width="252" height="47.25"/>
			<rect x="0" y="530.625" width="252" height="47.25" class="st1"/>
			<text x="97.71" y="557.85" class="st2" v:langID="1033"><v:paragraph v:horizAlign="1"/><v:tabList/>G() Pipeline</text>		</g>
		<g id="shape29-32" v:mID="29" v:groupContext="shape" v:layerMember="0" transform="translate(495,-316.784)">
			<title>Dynamic connector.29</title>
			<path d="M9 577.87 L9 593.24" class="st6"/>
		</g>
		<g id="group1010-37" transform="translate(453.251,-316.784)" v:mID="1010" v:groupContext="group">
			<title>Sheet.1010</title>
			<g id="shape27-38" v:mID="27" v:groupContext="shape" transform="translate(-422.783,477.563) rotate(-90) scale(-1,1)">
				<title>Side brace</title>
				<desc>G() Entry FIFO</desc>
				<v:userDefs>
					<v:ud v:nameU="TxtW" v:val="VT0(0.55555555555556):29"/>
					<v:ud v:nameU="TxtA" v:val="VT0(1.5707963267949):32"/>
					<v:ud v:nameU="TxtAState" v:val="VT0(0):26"/>
					<v:ud v:nameU="TxtWState" v:val="VT0(0):26"/>
					<v:ud v:nameU="MaxRadius" v:val="VT0(0.25):1"/>
					<v:ud v:nameU="PosCH1" v:prompt="Constrains X position of Control Handle #1" v:val="VT0(0):26"/>
					<v:ud v:nameU="PosCH2" v:prompt="Constrains Y position of Control Handle #2" v:val="VT0(0):26"/>
					<v:ud v:nameU="Scale" v:val="VT0(1):26"/>
					<v:ud v:nameU="AntiScale" v:val="VT0(1):26"/>
					<v:ud v:nameU="visVersion" v:val="VT0(15):26"/>
					<v:ud v:nameU="TxtW" v:prompt="" v:val="VT0(0.83333333333333):29"/>
					<v:ud v:nameU="MaxRadius" v:prompt="" v:val="VT0(0.27343781908241):1"/>
				</v:userDefs>
				<v:textBlock v:margins="rect(4,4,4,4)"/>
				<v:textRect cx="49.2187" cy="616.406" width="60" height="36.8038" transform="rotate(90)"/>
				<path d="M0 558.19 L0 569.34 A8.53117 8.53117 -180 0 0 8.53 577.87 L40.69 577.87 A8.53117 8.53117 0 0 1 49.22 586.41
							 A8.53117 8.53117 0 0 1 57.75 577.87 L91.78 577.87 A8.53117 8.53117 -180 0 0 100.31 569.34 L100.31 558.19"
						class="st8"/>
				<text x="594.73" y="45.62" transform="rotate(-90) scale(-1,1)" class="st9" v:langID="1033"><v:paragraph
							v:horizAlign="1"/><v:tabList/>G() Entry <tspan x="605.41" dy="1.2em" class="st10">FIFO</tspan></text>			</g>
			<g id="group1002-43" transform="translate(-1.59872E-14,-1.09727E-06)" v:mID="1002" v:groupContext="group">
				<title>Sheet.1002</title>
				<g id="shape1003-44" v:mID="1003" v:groupContext="shape" transform="translate(-1.59872E-14,-2.0941)">
					<title>Rectangle.29</title>
					<v:userDefs>
						<v:ud v:nameU="visVersion" v:val="VT0(15):26"/>
					</v:userDefs>
					<g id="shadow1003-45" v:groupContext="shadow" v:shadowOffsetX="2.12132" v:shadowOffsetY="-2.12132"
							v:shadowType="1" transform="matrix(1,0,0,1,2.12132,2.12132)" class="st11">
						<rect x="0" y="476.378" width="101.497" height="101.497" class="st12"/>
					</g>
					<rect x="0" y="476.378" width="101.497" height="101.497" class="st13"/>
				</g>
				<g id="shape1004-49" v:mID="1004" v:groupContext="shape">
					<title>Rectangle.2</title>
					<v:userDefs>
						<v:ud v:nameU="visVersion" v:val="VT0(15):26"/>
					</v:userDefs>
					<g id="shadow1004-50" v:groupContext="shadow" v:shadowOffsetX="2.12132" v:shadowOffsetY="-2.12132"
							v:shadowType="1" transform="matrix(1,0,0,1,2.12132,2.12132)" class="st11">
						<rect x="0" y="560.959" width="101.497" height="16.9162" class="st12"/>
					</g>
					<rect x="0" y="560.959" width="101.497" height="16.9162" class="st14"/>
				</g>
				<g id="shape1005-54" v:mID="1005" v:groupContext="shape" transform="translate(-1.59872E-14,-16.9162)">
					<title>Rectangle.3</title>
					<v:userDefs>
						<v:ud v:nameU="visVersion" v:val="VT0(15):26"/>
					</v:userDefs>
					<g id="shadow1005-55" v:groupContext="shadow" v:shadowOffsetX="2.12132" v:shadowOffsetY="-2.12132"
							v:shadowType="1" transform="matrix(1,0,0,1,2.12132,2.12132)" class="st11">
						<rect x="0" y="560.959" width="101.497" height="16.9162" class="st12"/>
					</g>
					<rect x="0" y="560.959" width="101.497" height="16.9162" class="st14"/>
				</g>
				<g id="shape1006-59" v:mID="1006" v:groupContext="shape" transform="translate(-1.59872E-14,-86.675)">
					<title>Rectangle.7</title>
					<v:userDefs>
						<v:ud v:nameU="visVersion" v:val="VT0(15):26"/>
					</v:userDefs>
					<g id="shadow1006-60" v:groupContext="shadow" v:shadowOffsetX="2.12132" v:shadowOffsetY="-2.12132"
							v:shadowType="1" transform="matrix(1,0,0,1,2.12132,2.12132)" class="st11">
						<rect x="0" y="560.959" width="101.497" height="16.9162" class="st12"/>
					</g>
					<rect x="0" y="560.959" width="101.497" height="16.9162" class="st15"/>
				</g>
				<g id="shape1007-64" v:mID="1007" v:groupContext="shape" transform="translate(-1.59872E-14,-69.1669)">
					<title>Rectangle.36</title>
					<v:userDefs>
						<v:ud v:nameU="visVersion" v:val="VT0(15):26"/>
					</v:userDefs>
					<g id="shadow1007-65" v:groupContext="shadow" v:shadowOffsetX="2.12132" v:shadowOffsetY="-2.12132"
							v:shadowType="1" transform="matrix(1,0,0,1,2.12132,2.12132)" class="st11">
						<rect x="0" y="560.959" width="101.497" height="16.9162" class="st12"/>
					</g>
					<rect x="0" y="560.959" width="101.497" height="16.9162" class="st15"/>
				</g>
				<g id="shape1008-69" v:mID="1008" v:groupContext="shape" transform="translate(-1.59872E-14,-51.7088)">
					<title>Rectangle.37</title>
					<desc>a + 4</desc>
					<v:userDefs>
						<v:ud v:nameU="visVersion" v:val="VT0(15):26"/>
					</v:userDefs>
					<v:textBlock v:margins="rect(4,4,4,4)"/>
					<v:textRect cx="50.7485" cy="569.417" width="101.5" height="16.9162"/>
					<g id="shadow1008-70" v:groupContext="shadow" v:shadowOffsetX="2.12132" v:shadowOffsetY="-2.12132"
							v:shadowType="1" transform="matrix(1,0,0,1,2.12132,2.12132)" class="st11">
						<rect x="0" y="560.959" width="101.497" height="16.9162" class="st12"/>
					</g>
					<rect x="0" y="560.959" width="101.497" height="16.9162" class="st15"/>
					<text x="39.13" y="573.02" class="st9" v:langID="1033"><v:paragraph v:horizAlign="1"/><v:tabList/>a + 4</text>				</g>
			</g>
			<g id="shape1009-75" v:mID="1009" v:groupContext="shape" transform="translate(1.59872E-14,-34.2919)">
				<title>Rectangle.7</title>
				<v:userDefs>
					<v:ud v:nameU="visVersion" v:val="VT0(15):26"/>
				</v:userDefs>
				<g id="shadow1009-76" v:groupContext="shadow" v:shadowOffsetX="2.12132" v:shadowOffsetY="-2.12132" v:shadowType="1"
						transform="matrix(1,0,0,1,2.12132,2.12132)" class="st11">
					<rect x="0" y="560.959" width="101.497" height="16.9162" class="st12"/>
				</g>
				<rect x="0" y="560.959" width="101.497" height="16.9162" class="st15"/>
			</g>
		</g>
		<g id="shape1012-80" v:mID="1012" v:groupContext="shape" transform="translate(656.437,259.452) rotate(90) scale(-1,1)">
			<title>Side brace</title>
			<desc>Context FIFO</desc>
			<v:userDefs>
				<v:ud v:nameU="TxtW" v:val="VT0(0.55555555555556):29"/>
				<v:ud v:nameU="TxtA" v:val="VT0(1.5707963267949):32"/>
				<v:ud v:nameU="TxtAState" v:val="VT0(0):26"/>
				<v:ud v:nameU="TxtWState" v:val="VT0(0):26"/>
				<v:ud v:nameU="MaxRadius" v:val="VT0(0.25):1"/>
				<v:ud v:nameU="PosCH1" v:prompt="Constrains X position of Control Handle #1" v:val="VT0(0):26"/>
				<v:ud v:nameU="PosCH2" v:prompt="Constrains Y position of Control Handle #2" v:val="VT0(0):26"/>
				<v:ud v:nameU="Scale" v:val="VT0(1):26"/>
				<v:ud v:nameU="AntiScale" v:val="VT0(1):26"/>
				<v:ud v:nameU="visVersion" v:val="VT0(15):26"/>
				<v:ud v:nameU="TxtW" v:prompt="" v:val="VT0(0.83333333333333):29"/>
				<v:ud v:nameU="TxtA" v:prompt="" v:val="VT0(-1.5707963267949):32"/>
				<v:ud v:nameU="MaxRadius" v:prompt="" v:val="VT0(0.27343781908241):1"/>
			</v:userDefs>
			<v:textBlock v:margins="rect(4,4,4,4)"/>
			<v:textRect cx="50.1562" cy="616.406" width="60" height="36.8038" transform="rotate(-90)"/>
			<path d="M0 558.19 L0 569.34 A8.53117 8.53117 -180 0 0 8.53 577.87 L41.62 577.87 A8.53117 8.53117 0 0 1 50.16 586.41
						 A8.53117 8.53117 0 0 1 58.69 577.87 L91.78 577.87 A8.53117 8.53117 -180 0 0 100.31 569.34 L100.31 558.19"
					class="st8"/>
			<text x="-635.53" y="-53.76" transform="rotate(90) scale(-1,1)" class="st9" v:langID="1033"><v:paragraph
						v:horizAlign="1"/><v:tabList/>Context <tspan x="-627.4" dy="1.2em" class="st10">FIFO</tspan></text>		</g>
		<g id="group1013-85" transform="translate(131.753,-316.784)" v:mID="1013" v:groupContext="group">
			<title>Sheet.1013</title>
			<g id="shape1014-86" v:mID="1014" v:groupContext="shape" transform="translate(-1.59872E-14,-2.0941)">
				<title>Rectangle.29</title>
				<v:userDefs>
					<v:ud v:nameU="visVersion" v:val="VT0(15):26"/>
				</v:userDefs>
				<g id="shadow1014-87" v:groupContext="shadow" v:shadowOffsetX="2.12132" v:shadowOffsetY="-2.12132" v:shadowType="1"
						transform="matrix(1,0,0,1,2.12132,2.12132)" class="st11">
					<rect x="0" y="476.378" width="101.497" height="101.497" class="st12"/>
				</g>
				<rect x="0" y="476.378" width="101.497" height="101.497" class="st13"/>
			</g>
			<g id="shape1015-91" v:mID="1015" v:groupContext="shape">
				<title>Rectangle.2</title>
				<v:userDefs>
					<v:ud v:nameU="visVersion" v:val="VT0(15):26"/>
				</v:userDefs>
				<g id="shadow1015-92" v:groupContext="shadow" v:shadowOffsetX="2.12132" v:shadowOffsetY="-2.12132" v:shadowType="1"
						transform="matrix(1,0,0,1,2.12132,2.12132)" class="st11">
					<rect x="0" y="560.959" width="101.497" height="16.9162" class="st12"/>
				</g>
				<rect x="0" y="560.959" width="101.497" height="16.9162" class="st14"/>
			</g>
			<g id="shape1016-96" v:mID="1016" v:groupContext="shape" transform="translate(-1.59872E-14,-16.9162)">
				<title>Rectangle.3</title>
				<v:userDefs>
					<v:ud v:nameU="visVersion" v:val="VT0(15):26"/>
				</v:userDefs>
				<g id="shadow1016-97" v:groupContext="shadow" v:shadowOffsetX="2.12132" v:shadowOffsetY="-2.12132" v:shadowType="1"
						transform="matrix(1,0,0,1,2.12132,2.12132)" class="st11">
					<rect x="0" y="560.959" width="101.497" height="16.9162" class="st12"/>
				</g>
				<rect x="0" y="560.959" width="101.497" height="16.9162" class="st14"/>
			</g>
			<g id="shape1017-101" v:mID="1017" v:groupContext="shape" transform="translate(-1.59872E-14,-86.675)">
				<title>Rectangle.7</title>
				<v:userDefs>
					<v:ud v:nameU="visVersion" v:val="VT0(15):26"/>
				</v:userDefs>
				<g id="shadow1017-102" v:groupContext="shadow" v:shadowOffsetX="2.12132" v:shadowOffsetY="-2.12132"
						v:shadowType="1" transform="matrix(1,0,0,1,2.12132,2.12132)" class="st11">
					<rect x="0" y="560.959" width="101.497" height="16.9162" class="st12"/>
				</g>
				<rect x="0" y="560.959" width="101.497" height="16.9162" class="st15"/>
			</g>
			<g id="shape1018-106" v:mID="1018" v:groupContext="shape" transform="translate(-1.59872E-14,-69.1669)">
				<title>Rectangle.36</title>
				<v:userDefs>
					<v:ud v:nameU="visVersion" v:val="VT0(15):26"/>
				</v:userDefs>
				<g id="shadow1018-107" v:groupContext="shadow" v:shadowOffsetX="2.12132" v:shadowOffsetY="-2.12132"
						v:shadowType="1" transform="matrix(1,0,0,1,2.12132,2.12132)" class="st11">
					<rect x="0" y="560.959" width="101.497" height="16.9162" class="st12"/>
				</g>
				<rect x="0" y="560.959" width="101.497" height="16.9162" class="st15"/>
			</g>
			<g id="shape1019-111" v:mID="1019" v:groupContext="shape" transform="translate(-1.59872E-14,-51.7088)">
				<title>Rectangle.37</title>
				<desc>a, b</desc>
				<v:userDefs>
					<v:ud v:nameU="visVersion" v:val="VT0(15):26"/>
				</v:userDefs>
				<v:textBlock v:margins="rect(4,4,4,4)"/>
				<v:textRect cx="50.7485" cy="569.417" width="101.5" height="16.9162"/>
				<g id="shadow1019-112" v:groupContext="shadow" v:shadowOffsetX="2.12132" v:shadowOffsetY="-2.12132"
						v:shadowType="1" transform="matrix(1,0,0,1,2.12132,2.12132)" class="st11">
					<rect x="0" y="560.959" width="101.497" height="16.9162" class="st12"/>
				</g>
				<rect x="0" y="560.959" width="101.497" height="16.9162" class="st15"/>
				<text x="41.87" y="573.02" class="st9" v:langID="1033"><v:paragraph v:horizAlign="1"/><v:tabList/>a, b</text>			</g>
		</g>
		<g id="shape1020-117" v:mID="1020" v:groupContext="shape" transform="translate(131.753,-351.167)">
			<title>Rectangle.7</title>
			<v:userDefs>
				<v:ud v:nameU="visVersion" v:val="VT0(15):26"/>
			</v:userDefs>
			<g id="shadow1020-118" v:groupContext="shadow" v:shadowOffsetX="2.12132" v:shadowOffsetY="-2.12132" v:shadowType="1"
					transform="matrix(1,0,0,1,2.12132,2.12132)" class="st11">
				<rect x="0" y="560.959" width="101.497" height="16.9162" class="st12"/>
			</g>
			<rect x="0" y="560.959" width="101.497" height="16.9162" class="st15"/>
		</g>
		<g id="shape1021-122" v:mID="1021" v:groupContext="shape" v:layerMember="0" transform="translate(341.25,-450.75)">
			<title>Dynamic connector.1021</title>
			<path d="M0 577.87 L0 591.37 L-158.75 591.37 L-158.75 601.21" class="st6"/>
		</g>
		<g id="shape1030-127" v:mID="1030" v:groupContext="shape" transform="translate(29.9212,356.438) rotate(-90) scale(-1,1)">
			<title>Side brace.1030</title>
			<desc>G() Exit FIFO</desc>
			<v:userDefs>
				<v:ud v:nameU="TxtW" v:val="VT0(0.55555555555556):29"/>
				<v:ud v:nameU="TxtA" v:val="VT0(1.5707963267949):32"/>
				<v:ud v:nameU="TxtAState" v:val="VT0(0):26"/>
				<v:ud v:nameU="TxtWState" v:val="VT0(0):26"/>
				<v:ud v:nameU="MaxRadius" v:val="VT0(0.25):1"/>
				<v:ud v:nameU="PosCH1" v:prompt="Constrains X position of Control Handle #1" v:val="VT0(0):26"/>
				<v:ud v:nameU="PosCH2" v:prompt="Constrains Y position of Control Handle #2" v:val="VT0(0):26"/>
				<v:ud v:nameU="Scale" v:val="VT0(1):26"/>
				<v:ud v:nameU="AntiScale" v:val="VT0(1):26"/>
				<v:ud v:nameU="visVersion" v:val="VT0(15):26"/>
				<v:ud v:nameU="TxtW" v:prompt="" v:val="VT0(0.83333333333333):29"/>
				<v:ud v:nameU="MaxRadius" v:prompt="" v:val="VT0(0.27343781908241):1"/>
			</v:userDefs>
			<v:textBlock v:margins="rect(4,4,4,4)"/>
			<v:textRect cx="49.2187" cy="616.406" width="60" height="36.8038" transform="rotate(90)"/>
			<path d="M0 558.19 L0 569.34 A8.53117 8.53117 -180 0 0 8.53 577.87 L40.69 577.87 A8.53117 8.53117 0 0 1 49.22 586.41
						 A8.53117 8.53117 0 0 1 57.75 577.87 L91.78 577.87 A8.53117 8.53117 -180 0 0 100.31 569.34 L100.31 558.19"
					class="st8"/>
			<text x="598.71" y="45.62" transform="rotate(-90) scale(-1,1)" class="st9" v:langID="1033"><v:paragraph
						v:horizAlign="1"/><v:tabList/>G() Exit <tspan x="605.41" dy="1.2em" class="st10">FIFO</tspan></text>		</g>
		<g id="group1031-132" transform="translate(452.704,-121.125)" v:mID="1031" v:groupContext="group">
			<title>Sheet.1031</title>
			<g id="shape1032-133" v:mID="1032" v:groupContext="shape" transform="translate(-1.59872E-14,-2.0941)">
				<title>Rectangle.29</title>
				<v:userDefs>
					<v:ud v:nameU="visVersion" v:val="VT0(15):26"/>
				</v:userDefs>
				<g id="shadow1032-134" v:groupContext="shadow" v:shadowOffsetX="2.12132" v:shadowOffsetY="-2.12132"
						v:shadowType="1" transform="matrix(1,0,0,1,2.12132,2.12132)" class="st11">
					<rect x="0" y="476.378" width="101.497" height="101.497" class="st12"/>
				</g>
				<rect x="0" y="476.378" width="101.497" height="101.497" class="st13"/>
			</g>
			<g id="shape1033-138" v:mID="1033" v:groupContext="shape">
				<title>Rectangle.2</title>
				<v:userDefs>
					<v:ud v:nameU="visVersion" v:val="VT0(15):26"/>
				</v:userDefs>
				<g id="shadow1033-139" v:groupContext="shadow" v:shadowOffsetX="2.12132" v:shadowOffsetY="-2.12132"
						v:shadowType="1" transform="matrix(1,0,0,1,2.12132,2.12132)" class="st11">
					<rect x="0" y="560.959" width="101.497" height="16.9162" class="st12"/>
				</g>
				<rect x="0" y="560.959" width="101.497" height="16.9162" class="st14"/>
			</g>
			<g id="shape1034-143" v:mID="1034" v:groupContext="shape" transform="translate(-1.59872E-14,-16.9162)">
				<title>Rectangle.3</title>
				<v:userDefs>
					<v:ud v:nameU="visVersion" v:val="VT0(15):26"/>
				</v:userDefs>
				<g id="shadow1034-144" v:groupContext="shadow" v:shadowOffsetX="2.12132" v:shadowOffsetY="-2.12132"
						v:shadowType="1" transform="matrix(1,0,0,1,2.12132,2.12132)" class="st11">
					<rect x="0" y="560.959" width="101.497" height="16.9162" class="st12"/>
				</g>
				<rect x="0" y="560.959" width="101.497" height="16.9162" class="st14"/>
			</g>
			<g id="shape1035-148" v:mID="1035" v:groupContext="shape" transform="translate(-1.59872E-14,-86.675)">
				<title>Rectangle.7</title>
				<v:userDefs>
					<v:ud v:nameU="visVersion" v:val="VT0(15):26"/>
				</v:userDefs>
				<g id="shadow1035-149" v:groupContext="shadow" v:shadowOffsetX="2.12132" v:shadowOffsetY="-2.12132"
						v:shadowType="1" transform="matrix(1,0,0,1,2.12132,2.12132)" class="st11">
					<rect x="0" y="560.959" width="101.497" height="16.9162" class="st12"/>
				</g>
				<rect x="0" y="560.959" width="101.497" height="16.9162" class="st15"/>
			</g>
			<g id="shape1036-153" v:mID="1036" v:groupContext="shape" transform="translate(-1.59872E-14,-69.1669)">
				<title>Rectangle.36</title>
				<v:userDefs>
					<v:ud v:nameU="visVersion" v:val="VT0(15):26"/>
				</v:userDefs>
				<g id="shadow1036-154" v:groupContext="shadow" v:shadowOffsetX="2.12132" v:shadowOffsetY="-2.12132"
						v:shadowType="1" transform="matrix(1,0,0,1,2.12132,2.12132)" class="st11">
					<rect x="0" y="560.959" width="101.497" height="16.9162" class="st12"/>
				</g>
				<rect x="0" y="560.959" width="101.497" height="16.9162" class="st15"/>
			</g>
			<g id="shape1037-158" v:mID="1037" v:groupContext="shape" transform="translate(-1.59872E-14,-51.7088)">
				<title>Rectangle.37</title>
				<desc>x + 1</desc>
				<v:userDefs>
					<v:ud v:nameU="visVersion" v:val="VT0(15):26"/>
				</v:userDefs>
				<v:textBlock v:margins="rect(4,4,4,4)"/>
				<v:textRect cx="50.7485" cy="569.417" width="101.5" height="16.9162"/>
				<g id="shadow1037-159" v:groupContext="shadow" v:shadowOffsetX="2.12132" v:shadowOffsetY="-2.12132"
						v:shadowType="1" transform="matrix(1,0,0,1,2.12132,2.12132)" class="st11">
					<rect x="0" y="560.959" width="101.497" height="16.9162" class="st12"/>
				</g>
				<rect x="0" y="560.959" width="101.497" height="16.9162" class="st15"/>
				<text x="39.41" y="573.02" class="st9" v:langID="1033"><v:paragraph v:horizAlign="1"/><v:tabList/>x + 1</text>			</g>
		</g>
		<g id="shape1038-164" v:mID="1038" v:groupContext="shape" transform="translate(452.704,-155.417)">
			<title>Rectangle.1038</title>
			<v:userDefs>
				<v:ud v:nameU="visVersion" v:val="VT0(15):26"/>
			</v:userDefs>
			<g id="shadow1038-165" v:groupContext="shadow" v:shadowOffsetX="2.12132" v:shadowOffsetY="-2.12132" v:shadowType="1"
					transform="matrix(1,0,0,1,2.12132,2.12132)" class="st11">
				<rect x="0" y="560.959" width="101.497" height="16.9162" class="st12"/>
			</g>
			<rect x="0" y="560.959" width="101.497" height="16.9162" class="st15"/>
		</g>
		<g id="shape1039-169" v:mID="1039" v:groupContext="shape" v:layerMember="0" transform="translate(495,-247.125)">
			<title>Dynamic connector.1039</title>
			<path d="M9 577.87 L9 593.24" class="st6"/>
		</g>
		<g id="shape1041-174" v:mID="1041" v:groupContext="shape" v:layerMember="0" transform="translate(182.501,-318.878)">
			<title>Dynamic connector.1041</title>
			<path d="M0 577.87 L-0 639.69 L68.75 639.69 L68.75 823.71" class="st6"/>
		</g>
		<g id="shape1042-179" v:mID="1042" v:groupContext="shape" v:layerMember="0" transform="translate(503.452,-121.125)">
			<title>Dynamic connector.1042</title>
			<path d="M0 577.87 L0 602.62 L-76.7 602.62 L-76.7 625.96" class="st6"/>
		</g>
	</g>
</svg>
