<?xml version="1.0" encoding="UTF-8" standalone="no"?>
<!DOCTYPE svg PUBLIC "-//W3C//DTD SVG 1.1//EN" "http://www.w3.org/Graphics/SVG/1.1/DTD/svg11.dtd">
<!-- Generated by Microsoft Visio, SVG Export threads-move.svg threads-moving -->
<svg xmlns="http://www.w3.org/2000/svg" xmlns:xlink="http://www.w3.org/1999/xlink" xmlns:ev="http://www.w3.org/2001/xml-events"
		xmlns:v="http://schemas.microsoft.com/visio/2003/SVGExtensions/" width="6.31597in" height="13.8924in"
		viewBox="0 0 454.75 1000.25" xml:space="preserve" color-interpolation-filters="sRGB" class="st14">
	<v:documentProperties v:langID="1033" v:viewMarkup="false">
		<v:userDefs>
			<v:ud v:nameU="msvSubprocessMaster" v:prompt="" v:val="VT4(Rectangle)"/>
			<v:ud v:nameU="msvNoAutoConnect" v:val="VT0(1):26"/>
		</v:userDefs>
	</v:documentProperties>

	<style type="text/css">
	<![CDATA[
		.st1 {fill:none;stroke:#000000;stroke-width:0.25}
		.st2 {fill:#000000;font-family:Courier New;font-size:1.00001em}
		.st3 {font-size:1em}
		.st4 {fill:#4672c4;fill-opacity:0.25;stroke:#c7c8c8;stroke-width:0.25}
		.st5 {fill:#ffc000;fill-opacity:0.25;stroke:#c7c8c8;stroke-width:0.25}
		.st6 {fill:#a8d08d;fill-opacity:0.25;stroke:#c7c8c8;stroke-width:0.25}
		.st7 {stroke:#000000;stroke-width:0.25}
		.st8 {fill:none;stroke:none;stroke-width:0.25}
		.st9 {fill:#000000;font-family:Calibri;font-size:1.00001em}
		.st10 {marker-end:url(#mrkr4-151);stroke:#4672c4;stroke-linecap:round;stroke-linejoin:round;stroke-width:1}
		.st11 {fill:#4672c4;fill-opacity:1;stroke:#4672c4;stroke-opacity:1;stroke-width:0.28409090909091}
		.st12 {fill:#ffffff;stroke:none;stroke-linecap:butt;stroke-width:7.2}
		.st13 {fill:#3c63ac;font-family:Calibri;font-size:0.666664em}
		.st14 {fill:none;fill-rule:evenodd;font-size:12px;overflow:visible;stroke-linecap:square;stroke-miterlimit:3}
	]]>
	</style>

	<defs id="Markers">
		<g id="lend4">
			<path d="M 2 1 L 0 0 L 2 -1 L 2 1 " style="stroke:none"/>
		</g>
		<marker id="mrkr4-151" class="st11" v:arrowType="4" v:arrowSize="2" v:setback="7.04" refX="-7.04" orient="auto"
				markerUnits="strokeWidth" overflow="visible">
			<use xlink:href="#lend4" transform="scale(-3.52,-3.52) "/>
		</marker>
	</defs>
	<g v:mID="51" v:index="22" v:groupContext="foregroundPage">
		<v:userDefs>
			<v:ud v:nameU="msvThemeOrder" v:val="VT0(0):26"/>
		</v:userDefs>
		<title>threads-moving</title>
		<v:pageProperties v:drawingScale="1" v:pageScale="1" v:drawingUnits="0" v:shadowOffsetX="9" v:shadowOffsetY="-9"/>
		<v:layer v:name="Connector" v:index="0"/>
		<g id="shape1-1" v:mID="1" v:groupContext="shape" transform="translate(19.25,-829)">
			<title>Sheet.1</title>
			<desc>void F(uint32 x) { uint32 j = x + 3; for (const auto i : x) {...</desc>
			<v:textBlock v:margins="rect(4,4,4,4)" v:verticalAlign="0"/>
			<v:textRect cx="94.5" cy="923.75" width="189" height="153"/>
			<rect x="0" y="847.25" width="189" height="153" class="st1"/>
			<text x="4" y="862.05" class="st2" v:langID="1033"><v:paragraph/><v:tabList/>void F(uint32 x)<v:newlineChar/><tspan
						x="4" dy="1.2em" class="st3">{<v:newlineChar/></tspan><tspan x="4" dy="1.2em" class="st3">  </tspan>uint32 j = x + 3;<v:newlineChar/><v:newlineChar/><tspan
						x="4" dy="2.4em" class="st3">  </tspan>for (const auto i : x)<v:newlineChar/><tspan x="4" dy="1.2em"
						class="st3">  </tspan>{<v:newlineChar/><tspan x="4" dy="1.2em" class="st3">    </tspan>uint32 z = j * i;<v:newlineChar/><tspan
						x="4" dy="1.2em" class="st3">    </tspan>uint32 w = z - 4;<v:newlineChar/><tspan x="4" dy="1.2em"
						class="st3">  </tspan>}<v:newlineChar/><tspan x="4" dy="1.2em" class="st3">}</tspan></text>		</g>
		<g id="shape2-12" v:mID="2" v:groupContext="shape" transform="translate(19,-666.75)">
			<title>Sheet.2</title>
			<desc>void F(uint32 x) { uint32 j = x + 3; for (const auto i : x) {...</desc>
			<v:textBlock v:margins="rect(4,4,4,4)" v:verticalAlign="0"/>
			<v:textRect cx="94.5" cy="923.75" width="189" height="153"/>
			<rect x="0" y="847.25" width="189" height="153" class="st1"/>
			<text x="4" y="862.05" class="st2" v:langID="1033"><v:paragraph/><v:tabList/>void F(uint32 x)<v:newlineChar/><tspan
						x="4" dy="1.2em" class="st3">{<v:newlineChar/></tspan><tspan x="4" dy="1.2em" class="st3">  </tspan>uint32 j = x + 3;<v:newlineChar/><v:newlineChar/><tspan
						x="4" dy="2.4em" class="st3">  </tspan>for (const auto i : x)<v:newlineChar/><tspan x="4" dy="1.2em"
						class="st3">  </tspan>{<v:newlineChar/><tspan x="4" dy="1.2em" class="st3">    </tspan>uint32 z = j * i;<v:newlineChar/><tspan
						x="4" dy="1.2em" class="st3">    </tspan>uint32 w = z - 4;<v:newlineChar/><tspan x="4" dy="1.2em"
						class="st3">  </tspan>}<v:newlineChar/><tspan x="4" dy="1.2em" class="st3">}</tspan></text>		</g>
		<g id="shape3-23" v:mID="3" v:groupContext="shape" transform="translate(19,-504.75)">
			<title>Sheet.3</title>
			<desc>void F(uint32 x) { uint32 j = x + 3; for (const auto i : x) {...</desc>
			<v:textBlock v:margins="rect(4,4,4,4)" v:verticalAlign="0"/>
			<v:textRect cx="94.5" cy="923.75" width="189" height="153"/>
			<rect x="0" y="847.25" width="189" height="153" class="st1"/>
			<text x="4" y="862.05" class="st2" v:langID="1033"><v:paragraph/><v:tabList/>void F(uint32 x)<v:newlineChar/><tspan
						x="4" dy="1.2em" class="st3">{<v:newlineChar/></tspan><tspan x="4" dy="1.2em" class="st3">  </tspan>uint32 j = x + 3;<v:newlineChar/><v:newlineChar/><tspan
						x="4" dy="2.4em" class="st3">  </tspan>for (const auto i : x)<v:newlineChar/><tspan x="4" dy="1.2em"
						class="st3">  </tspan>{<v:newlineChar/><tspan x="4" dy="1.2em" class="st3">    </tspan>uint32 z = j * i;<v:newlineChar/><tspan
						x="4" dy="1.2em" class="st3">    </tspan>uint32 w = z - 4;<v:newlineChar/><tspan x="4" dy="1.2em"
						class="st3">  </tspan>}<v:newlineChar/><tspan x="4" dy="1.2em" class="st3">}</tspan></text>		</g>
		<g id="shape4-34" v:mID="4" v:groupContext="shape" transform="translate(19,-342.75)">
			<title>Sheet.4</title>
			<desc>void F(uint32 x) { uint32 j = x + 3; for (const auto i : x) {...</desc>
			<v:textBlock v:margins="rect(4,4,4,4)" v:verticalAlign="0"/>
			<v:textRect cx="94.5" cy="923.75" width="189" height="153"/>
			<rect x="0" y="847.25" width="189" height="153" class="st1"/>
			<text x="4" y="862.05" class="st2" v:langID="1033"><v:paragraph/><v:tabList/>void F(uint32 x)<v:newlineChar/><tspan
						x="4" dy="1.2em" class="st3">{<v:newlineChar/></tspan><tspan x="4" dy="1.2em" class="st3">  </tspan>uint32 j = x + 3;<v:newlineChar/><v:newlineChar/><tspan
						x="4" dy="2.4em" class="st3">  </tspan>for (const auto i : x)<v:newlineChar/><tspan x="4" dy="1.2em"
						class="st3">  </tspan>{<v:newlineChar/><tspan x="4" dy="1.2em" class="st3">    </tspan>uint32 z = j * i;<v:newlineChar/><tspan
						x="4" dy="1.2em" class="st3">    </tspan>uint32 w = z - 4;<v:newlineChar/><tspan x="4" dy="1.2em"
						class="st3">  </tspan>}<v:newlineChar/><tspan x="4" dy="1.2em" class="st3">}</tspan></text>		</g>
		<g id="shape7-45" v:mID="7" v:groupContext="shape" transform="translate(19,-933.797)">
			<title>Rectangle.7</title>
			<v:userDefs>
				<v:ud v:nameU="visVersion" v:val="VT0(15):26"/>
			</v:userDefs>
			<rect x="0" y="985.344" width="189" height="14.9062" class="st4"/>
		</g>
		<g id="shape8-47" v:mID="8" v:groupContext="shape" transform="translate(19,-537.547)">
			<title>Rectangle.8</title>
			<v:userDefs>
				<v:ud v:nameU="visVersion" v:val="VT0(15):26"/>
			</v:userDefs>
			<rect x="0" y="985.344" width="189" height="14.9062" class="st4"/>
		</g>
		<g id="shape9-49" v:mID="9" v:groupContext="shape" transform="translate(19.25,-390.594)">
			<title>Rectangle.9</title>
			<v:userDefs>
				<v:ud v:nameU="visVersion" v:val="VT0(15):26"/>
			</v:userDefs>
			<rect x="0" y="985.344" width="189" height="14.9062" class="st4"/>
		</g>
		<g id="shape11-51" v:mID="11" v:groupContext="shape" transform="translate(18.5,-180.5)">
			<title>Sheet.11</title>
			<desc>void F(uint32 x) { uint32 j = x + 3; for (const auto i : x) {...</desc>
			<v:textBlock v:margins="rect(4,4,4,4)" v:verticalAlign="0"/>
			<v:textRect cx="94.5" cy="923.75" width="189" height="153"/>
			<rect x="0" y="847.25" width="189" height="153" class="st1"/>
			<text x="4" y="862.05" class="st2" v:langID="1033"><v:paragraph/><v:tabList/>void F(uint32 x)<v:newlineChar/><tspan
						x="4" dy="1.2em" class="st3">{<v:newlineChar/></tspan><tspan x="4" dy="1.2em" class="st3">  </tspan>uint32 j = x + 3;<v:newlineChar/><v:newlineChar/><tspan
						x="4" dy="2.4em" class="st3">  </tspan>for (const auto i : x)<v:newlineChar/><tspan x="4" dy="1.2em"
						class="st3">  </tspan>{<v:newlineChar/><tspan x="4" dy="1.2em" class="st3">    </tspan>uint32 z = j * i;<v:newlineChar/><tspan
						x="4" dy="1.2em" class="st3">    </tspan>uint32 w = z - 4;<v:newlineChar/><tspan x="4" dy="1.2em"
						class="st3">  </tspan>}<v:newlineChar/><tspan x="4" dy="1.2em" class="st3">}</tspan></text>		</g>
		<g id="shape12-62" v:mID="12" v:groupContext="shape" transform="translate(18.75,-213.594)">
			<title>Rectangle.12</title>
			<v:userDefs>
				<v:ud v:nameU="visVersion" v:val="VT0(15):26"/>
			</v:userDefs>
			<rect x="0" y="985.344" width="189" height="14.9062" class="st4"/>
		</g>
		<g id="shape15-64" v:mID="15" v:groupContext="shape" transform="translate(19,-772.45)">
			<title>Rectangle.15</title>
			<v:userDefs>
				<v:ud v:nameU="visVersion" v:val="VT0(15):26"/>
			</v:userDefs>
			<rect x="0" y="985.344" width="189" height="14.9062" class="st5"/>
		</g>
		<g id="shape16-66" v:mID="16" v:groupContext="shape" transform="translate(18.25,-553.75)">
			<title>Rectangle.16</title>
			<v:userDefs>
				<v:ud v:nameU="visVersion" v:val="VT0(15):26"/>
			</v:userDefs>
			<rect x="0" y="985.344" width="189" height="14.9062" class="st5"/>
		</g>
		<g id="shape17-68" v:mID="17" v:groupContext="shape" transform="translate(18.25,-374.594)">
			<title>Rectangle.17</title>
			<v:userDefs>
				<v:ud v:nameU="visVersion" v:val="VT0(15):26"/>
			</v:userDefs>
			<rect x="0" y="985.344" width="189" height="14.9062" class="st5"/>
		</g>
		<g id="shape18-70" v:mID="18" v:groupContext="shape" transform="translate(18.25,-229.5)">
			<title>Rectangle.18</title>
			<v:userDefs>
				<v:ud v:nameU="visVersion" v:val="VT0(15):26"/>
			</v:userDefs>
			<rect x="0" y="985.344" width="189" height="14.9062" class="st5"/>
		</g>
		<g id="shape19-72" v:mID="19" v:groupContext="shape" transform="translate(18.25,-611.05)">
			<title>Rectangle.19</title>
			<v:userDefs>
				<v:ud v:nameU="visVersion" v:val="VT0(15):26"/>
			</v:userDefs>
			<rect x="0" y="985.344" width="189" height="14.9062" class="st6"/>
		</g>
		<g id="shape20-74" v:mID="20" v:groupContext="shape" transform="translate(18.25,-448.45)">
			<title>Rectangle.20</title>
			<v:userDefs>
				<v:ud v:nameU="visVersion" v:val="VT0(15):26"/>
			</v:userDefs>
			<rect x="0" y="985.344" width="189" height="14.9062" class="st6"/>
		</g>
		<g id="shape21-76" v:mID="21" v:groupContext="shape" transform="translate(18.25,-284.744)">
			<title>Rectangle.21</title>
			<v:userDefs>
				<v:ud v:nameU="visVersion" v:val="VT0(15):26"/>
			</v:userDefs>
			<rect x="0" y="985.344" width="189" height="14.9062" class="st6"/>
		</g>
		<g id="shape22-78" v:mID="22" v:groupContext="shape" transform="translate(18.5,-18.25)">
			<title>Sheet.22</title>
			<desc>void F(uint32 x) { uint32 j = x + 3; for (const auto i : x) {...</desc>
			<v:textBlock v:margins="rect(4,4,4,4)" v:verticalAlign="0"/>
			<v:textRect cx="94.5" cy="923.75" width="189" height="153"/>
			<rect x="0" y="847.25" width="189" height="153" class="st1"/>
			<text x="4" y="862.05" class="st2" v:langID="1033"><v:paragraph/><v:tabList/>void F(uint32 x)<v:newlineChar/><tspan
						x="4" dy="1.2em" class="st3">{<v:newlineChar/></tspan><tspan x="4" dy="1.2em" class="st3">  </tspan>uint32 j = x + 3;<v:newlineChar/><v:newlineChar/><tspan
						x="4" dy="2.4em" class="st3">  </tspan>for (const auto i : x)<v:newlineChar/><tspan x="4" dy="1.2em"
						class="st3">  </tspan>{<v:newlineChar/><tspan x="4" dy="1.2em" class="st3">    </tspan>uint32 z = j * i;<v:newlineChar/><tspan
						x="4" dy="1.2em" class="st3">    </tspan>uint32 w = z - 4;<v:newlineChar/><tspan x="4" dy="1.2em"
						class="st3">  </tspan>}<v:newlineChar/><tspan x="4" dy="1.2em" class="st3">}</tspan></text>		</g>
		<g id="shape24-89" v:mID="24" v:groupContext="shape" transform="translate(18.25,-50.65)">
			<title>Rectangle.24</title>
			<v:userDefs>
				<v:ud v:nameU="visVersion" v:val="VT0(15):26"/>
			</v:userDefs>
			<rect x="0" y="985.344" width="189" height="14.9062" class="st5"/>
		</g>
		<g id="shape25-91" v:mID="25" v:groupContext="shape" transform="translate(18.25,-67.2938)">
			<title>Rectangle.25</title>
			<v:userDefs>
				<v:ud v:nameU="visVersion" v:val="VT0(15):26"/>
			</v:userDefs>
			<rect x="0" y="985.344" width="189" height="14.9062" class="st6"/>
		</g>
		<g id="group32-93" transform="translate(198,-928.656)" v:mID="32" v:groupContext="group">
			<title>Sheet.32</title>
			<g id="shape26-94" v:mID="26" v:groupContext="shape" transform="translate(-980,979.156) rotate(-90) scale(-1,1)">
				<title>Side brace</title>
				<v:userDefs>
					<v:ud v:nameU="TxtW" v:val="VT0(0.55555555555556):29"/>
					<v:ud v:nameU="TxtA" v:val="VT0(1.5707963267949):32"/>
					<v:ud v:nameU="TxtAState" v:val="VT0(0):26"/>
					<v:ud v:nameU="TxtWState" v:val="VT0(0):26"/>
					<v:ud v:nameU="MaxRadius" v:val="VT0(0.25):1"/>
					<v:ud v:nameU="PosCH1" v:prompt="Constrains X position of Control Handle #1" v:val="VT0(0):26"/>
					<v:ud v:nameU="PosCH2" v:prompt="Constrains Y position of Control Handle #2" v:val="VT0(0):26"/>
					<v:ud v:nameU="Scale" v:val="VT0(1):26"/>
					<v:ud v:nameU="AntiScale" v:val="VT0(1):26"/>
					<v:ud v:nameU="visVersion" v:val="VT0(15):26"/>
					<v:ud v:nameU="MaxRadius" v:prompt="" v:val="VT0(0.07324219290167):1"/>
				</v:userDefs>
				<path d="M0 994.62 L0 995.75 A4.49992 4.49992 -180 0 0 4.5 1000.25 L6.05 1000.25 A4.49992 4.49992 0 0 1 10.55 1004.75
							 A4.49992 4.49992 0 0 1 15.05 1000.25 L16.59 1000.25 A4.49992 4.49992 -180 0 0 21.09 995.75 L21.09 994.62"
						class="st7"/>
			</g>
			<g id="shape27-97" v:mID="27" v:groupContext="shape" transform="translate(7.99361E-14,-0.546876)">
				<title>Sheet.27</title>
				<desc>Thread 0 enters F()</desc>
				<v:textBlock v:margins="rect(4,4,4,4)"/>
				<v:textRect cx="76" cy="990.25" width="152" height="20"/>
				<rect x="0" y="980.25" width="152" height="20" class="st8"/>
				<text x="29.74" y="993.85" class="st9" v:langID="1033"><v:paragraph v:horizAlign="1"/><v:tabList/>Thread 0 enters F()</text>			</g>
		</g>
		<g id="group33-100" transform="translate(198,-769.5)" v:mID="33" v:groupContext="group">
			<title>Sheet.33</title>
			<g id="shape34-101" v:mID="34" v:groupContext="shape" transform="translate(-980,979.156) rotate(-90) scale(-1,1)">
				<title>Side brace</title>
				<v:userDefs>
					<v:ud v:nameU="TxtW" v:val="VT0(0.55555555555556):29"/>
					<v:ud v:nameU="TxtA" v:val="VT0(1.5707963267949):32"/>
					<v:ud v:nameU="TxtAState" v:val="VT0(0):26"/>
					<v:ud v:nameU="TxtWState" v:val="VT0(0):26"/>
					<v:ud v:nameU="MaxRadius" v:val="VT0(0.25):1"/>
					<v:ud v:nameU="PosCH1" v:prompt="Constrains X position of Control Handle #1" v:val="VT0(0):26"/>
					<v:ud v:nameU="PosCH2" v:prompt="Constrains Y position of Control Handle #2" v:val="VT0(0):26"/>
					<v:ud v:nameU="Scale" v:val="VT0(1):26"/>
					<v:ud v:nameU="AntiScale" v:val="VT0(1):26"/>
					<v:ud v:nameU="visVersion" v:val="VT0(15):26"/>
					<v:ud v:nameU="MaxRadius" v:prompt="" v:val="VT0(0.07324219290167):1"/>
				</v:userDefs>
				<path d="M0 994.62 L0 995.75 A4.49992 4.49992 -180 0 0 4.5 1000.25 L6.05 1000.25 A4.49992 4.49992 0 0 1 10.55 1004.75
							 A4.49992 4.49992 0 0 1 15.05 1000.25 L16.59 1000.25 A4.49992 4.49992 -180 0 0 21.09 995.75 L21.09 994.62"
						class="st7"/>
			</g>
			<g id="shape35-104" v:mID="35" v:groupContext="shape" transform="translate(7.99361E-14,-0.546876)">
				<title>Sheet.35</title>
				<desc>Thread 1 enters F()</desc>
				<v:textBlock v:margins="rect(4,4,4,4)"/>
				<v:textRect cx="76" cy="990.25" width="152" height="20"/>
				<rect x="0" y="980.25" width="152" height="20" class="st8"/>
				<text x="29.74" y="993.85" class="st9" v:langID="1033"><v:paragraph v:horizAlign="1"/><v:tabList/>Thread 1 enters F()</text>			</g>
		</g>
		<g id="group36-107" transform="translate(198,-607.5)" v:mID="36" v:groupContext="group">
			<title>Sheet.36</title>
			<g id="shape37-108" v:mID="37" v:groupContext="shape" transform="translate(-980,979.156) rotate(-90) scale(-1,1)">
				<title>Side brace</title>
				<v:userDefs>
					<v:ud v:nameU="TxtW" v:val="VT0(0.55555555555556):29"/>
					<v:ud v:nameU="TxtA" v:val="VT0(1.5707963267949):32"/>
					<v:ud v:nameU="TxtAState" v:val="VT0(0):26"/>
					<v:ud v:nameU="TxtWState" v:val="VT0(0):26"/>
					<v:ud v:nameU="MaxRadius" v:val="VT0(0.25):1"/>
					<v:ud v:nameU="PosCH1" v:prompt="Constrains X position of Control Handle #1" v:val="VT0(0):26"/>
					<v:ud v:nameU="PosCH2" v:prompt="Constrains Y position of Control Handle #2" v:val="VT0(0):26"/>
					<v:ud v:nameU="Scale" v:val="VT0(1):26"/>
					<v:ud v:nameU="AntiScale" v:val="VT0(1):26"/>
					<v:ud v:nameU="visVersion" v:val="VT0(15):26"/>
					<v:ud v:nameU="MaxRadius" v:prompt="" v:val="VT0(0.07324219290167):1"/>
				</v:userDefs>
				<path d="M0 994.62 L0 995.75 A4.49992 4.49992 -180 0 0 4.5 1000.25 L6.05 1000.25 A4.49992 4.49992 0 0 1 10.55 1004.75
							 A4.49992 4.49992 0 0 1 15.05 1000.25 L16.59 1000.25 A4.49992 4.49992 -180 0 0 21.09 995.75 L21.09 994.62"
						class="st7"/>
			</g>
			<g id="shape38-111" v:mID="38" v:groupContext="shape" transform="translate(7.99361E-14,-0.546876)">
				<title>Sheet.38</title>
				<desc>Thread 2 enters F()</desc>
				<v:textBlock v:margins="rect(4,4,4,4)"/>
				<v:textRect cx="76" cy="990.25" width="152" height="20"/>
				<rect x="0" y="980.25" width="152" height="20" class="st8"/>
				<text x="29.74" y="993.85" class="st9" v:langID="1033"><v:paragraph v:horizAlign="1"/><v:tabList/>Thread 2 enters F()</text>			</g>
		</g>
		<g id="group42-114" transform="translate(211.5,-388.406)" v:mID="42" v:groupContext="group">
			<title>Sheet.42</title>
			<g id="shape40-115" v:mID="40" v:groupContext="shape" transform="translate(-993,979.156) rotate(-90) scale(-1,1)">
				<title>Side brace</title>
				<v:userDefs>
					<v:ud v:nameU="TxtW" v:val="VT0(0.55555555555556):29"/>
					<v:ud v:nameU="TxtA" v:val="VT0(1.5707963267949):32"/>
					<v:ud v:nameU="TxtAState" v:val="VT0(0):26"/>
					<v:ud v:nameU="TxtWState" v:val="VT0(0):26"/>
					<v:ud v:nameU="MaxRadius" v:val="VT0(0.25):1"/>
					<v:ud v:nameU="PosCH1" v:prompt="Constrains X position of Control Handle #1" v:val="VT0(0):26"/>
					<v:ud v:nameU="PosCH2" v:prompt="Constrains Y position of Control Handle #2" v:val="VT0(0):26"/>
					<v:ud v:nameU="Scale" v:val="VT0(1):26"/>
					<v:ud v:nameU="AntiScale" v:val="VT0(1):26"/>
					<v:ud v:nameU="visVersion" v:val="VT0(15):26"/>
					<v:ud v:nameU="MaxRadius" v:prompt="" v:val="VT0(0.07324219290167):1"/>
				</v:userDefs>
				<path d="M0 994.62 L0 995.75 A4.49992 4.49992 -180 0 0 4.5 1000.25 L6.05 1000.25 A4.49992 4.49992 0 0 1 10.55 1004.75
							 A4.49992 4.49992 0 0 1 15.05 1000.25 L16.59 1000.25 A4.49992 4.49992 -180 0 0 21.09 995.75 L21.09 994.62"
						class="st7"/>
			</g>
			<g id="shape41-118" v:mID="41" v:groupContext="shape" transform="translate(0,-1.09375)">
				<title>Sheet.41</title>
				<desc>Thread 0 runs another iteration</desc>
				<v:textBlock v:margins="rect(4,4,4,4)"/>
				<v:textRect cx="94.5" cy="990.25" width="189" height="20"/>
				<rect x="0" y="980.25" width="189" height="20" class="st8"/>
				<text x="17.64" y="993.85" class="st9" v:langID="1033"><v:paragraph v:horizAlign="1"/><v:tabList/>Thread 0 runs another iteration</text>			</g>
		</g>
		<g id="shape44-121" v:mID="44" v:groupContext="shape" transform="translate(-783.125,533.656) rotate(-90) scale(-1,1)">
			<title>Side brace</title>
			<v:userDefs>
				<v:ud v:nameU="TxtW" v:val="VT0(0.55555555555556):29"/>
				<v:ud v:nameU="TxtA" v:val="VT0(1.5707963267949):32"/>
				<v:ud v:nameU="TxtAState" v:val="VT0(0):26"/>
				<v:ud v:nameU="TxtWState" v:val="VT0(0):26"/>
				<v:ud v:nameU="MaxRadius" v:val="VT0(0.25):1"/>
				<v:ud v:nameU="PosCH1" v:prompt="Constrains X position of Control Handle #1" v:val="VT0(0):26"/>
				<v:ud v:nameU="PosCH2" v:prompt="Constrains Y position of Control Handle #2" v:val="VT0(0):26"/>
				<v:ud v:nameU="Scale" v:val="VT0(1):26"/>
				<v:ud v:nameU="AntiScale" v:val="VT0(1):26"/>
				<v:ud v:nameU="visVersion" v:val="VT0(15):26"/>
				<v:ud v:nameU="MaxRadius" v:prompt="" v:val="VT0(0.07324219290167):1"/>
			</v:userDefs>
			<path d="M0 994.62 L0 995.75 A4.49992 4.49992 -180 0 0 4.5 1000.25 L6.05 1000.25 A4.49992 4.49992 0 0 1 10.55 1004.75
						 A4.49992 4.49992 0 0 1 15.05 1000.25 L16.59 1000.25 A4.49992 4.49992 -180 0 0 21.09 995.75 L21.09 994.62"
					class="st7"/>
		</g>
		<g id="shape45-124" v:mID="45" v:groupContext="shape" transform="translate(216,-446.594)">
			<title>Sheet.45</title>
			<desc>Thread 2 stalls waiting to enter the loop</desc>
			<v:textBlock v:margins="rect(4,4,4,4)"/>
			<v:textRect cx="110.25" cy="990.25" width="220.5" height="20"/>
			<rect x="0" y="980.25" width="220.5" height="20" class="st8"/>
			<text x="12.9" y="993.85" class="st9" v:langID="1033"><v:paragraph v:horizAlign="1"/><v:tabList/>Thread 2 stalls waiting to enter the loop</text>		</g>
		<g id="group46-127" transform="translate(211.5,-225)" v:mID="46" v:groupContext="group">
			<title>Sheet.46</title>
			<g id="shape47-128" v:mID="47" v:groupContext="shape" transform="translate(-993,979.156) rotate(-90) scale(-1,1)">
				<title>Side brace</title>
				<v:userDefs>
					<v:ud v:nameU="TxtW" v:val="VT0(0.55555555555556):29"/>
					<v:ud v:nameU="TxtA" v:val="VT0(1.5707963267949):32"/>
					<v:ud v:nameU="TxtAState" v:val="VT0(0):26"/>
					<v:ud v:nameU="TxtWState" v:val="VT0(0):26"/>
					<v:ud v:nameU="MaxRadius" v:val="VT0(0.25):1"/>
					<v:ud v:nameU="PosCH1" v:prompt="Constrains X position of Control Handle #1" v:val="VT0(0):26"/>
					<v:ud v:nameU="PosCH2" v:prompt="Constrains Y position of Control Handle #2" v:val="VT0(0):26"/>
					<v:ud v:nameU="Scale" v:val="VT0(1):26"/>
					<v:ud v:nameU="AntiScale" v:val="VT0(1):26"/>
					<v:ud v:nameU="visVersion" v:val="VT0(15):26"/>
					<v:ud v:nameU="MaxRadius" v:prompt="" v:val="VT0(0.07324219290167):1"/>
				</v:userDefs>
				<path d="M0 994.62 L0 995.75 A4.49992 4.49992 -180 0 0 4.5 1000.25 L6.05 1000.25 A4.49992 4.49992 0 0 1 10.55 1004.75
							 A4.49992 4.49992 0 0 1 15.05 1000.25 L16.59 1000.25 A4.49992 4.49992 -180 0 0 21.09 995.75 L21.09 994.62"
						class="st7"/>
			</g>
			<g id="shape48-131" v:mID="48" v:groupContext="shape" transform="translate(0,-1.09375)">
				<title>Sheet.48</title>
				<desc>Thread 1 runs another Iteration</desc>
				<v:textBlock v:margins="rect(4,4,4,4)"/>
				<v:textRect cx="94.5" cy="990.25" width="189" height="20"/>
				<rect x="0" y="980.25" width="189" height="20" class="st8"/>
				<text x="17.5" y="993.85" class="st9" v:langID="1033"><v:paragraph v:horizAlign="1"/><v:tabList/>Thread 1 runs another Iteration</text>			</g>
		</g>
		<g id="shape50-134" v:mID="50" v:groupContext="shape" transform="translate(-781.5,960.906) rotate(-90) scale(-1,1)">
			<title>Side brace.50</title>
			<v:userDefs>
				<v:ud v:nameU="TxtW" v:val="VT0(0.55555555555556):29"/>
				<v:ud v:nameU="TxtA" v:val="VT0(1.5707963267949):32"/>
				<v:ud v:nameU="TxtAState" v:val="VT0(0):26"/>
				<v:ud v:nameU="TxtWState" v:val="VT0(0):26"/>
				<v:ud v:nameU="MaxRadius" v:val="VT0(0.25):1"/>
				<v:ud v:nameU="PosCH1" v:prompt="Constrains X position of Control Handle #1" v:val="VT0(0):26"/>
				<v:ud v:nameU="PosCH2" v:prompt="Constrains Y position of Control Handle #2" v:val="VT0(0):26"/>
				<v:ud v:nameU="Scale" v:val="VT0(1):26"/>
				<v:ud v:nameU="AntiScale" v:val="VT0(1):26"/>
				<v:ud v:nameU="visVersion" v:val="VT0(15):26"/>
				<v:ud v:nameU="MaxRadius" v:prompt="" v:val="VT0(0.07324219290167):1"/>
			</v:userDefs>
			<path d="M0 994.62 L0 995.75 A4.49992 4.49992 -180 0 0 4.5 1000.25 L6.05 1000.25 A4.49992 4.49992 0 0 1 10.55 1004.75
						 A4.49992 4.49992 0 0 1 15.05 1000.25 L16.59 1000.25 A4.49992 4.49992 -180 0 0 21.09 995.75 L21.09 994.62"
					class="st7"/>
		</g>
		<g id="shape51-137" v:mID="51" v:groupContext="shape" transform="translate(211.5,-19.3438)">
			<title>Sheet.51</title>
			<desc>Thread 0 exits F()</desc>
			<v:textBlock v:margins="rect(4,4,4,4)"/>
			<v:textRect cx="58.5" cy="990.25" width="117.01" height="20"/>
			<rect x="0" y="980.25" width="117" height="20" class="st8"/>
			<text x="16.5" y="993.85" class="st9" v:langID="1033"><v:paragraph v:horizAlign="1"/><v:tabList/>Thread 0 exits F()</text>		</g>
		<g id="shape53-140" v:mID="53" v:groupContext="shape" transform="translate(-781.5,917.703) rotate(-90) scale(-1,1)">
			<title>Side brace.53</title>
			<v:userDefs>
				<v:ud v:nameU="TxtW" v:val="VT0(0.55555555555556):29"/>
				<v:ud v:nameU="TxtA" v:val="VT0(1.5707963267949):32"/>
				<v:ud v:nameU="TxtAState" v:val="VT0(0):26"/>
				<v:ud v:nameU="TxtWState" v:val="VT0(0):26"/>
				<v:ud v:nameU="MaxRadius" v:val="VT0(0.25):1"/>
				<v:ud v:nameU="PosCH1" v:prompt="Constrains X position of Control Handle #1" v:val="VT0(0):26"/>
				<v:ud v:nameU="PosCH2" v:prompt="Constrains Y position of Control Handle #2" v:val="VT0(0):26"/>
				<v:ud v:nameU="Scale" v:val="VT0(1):26"/>
				<v:ud v:nameU="AntiScale" v:val="VT0(1):26"/>
				<v:ud v:nameU="visVersion" v:val="VT0(15):26"/>
				<v:ud v:nameU="MaxRadius" v:prompt="" v:val="VT0(0.07324219290167):1"/>
			</v:userDefs>
			<path d="M0 994.62 L0 995.75 A4.49992 4.49992 -180 0 0 4.5 1000.25 L6.05 1000.25 A4.49992 4.49992 0 0 1 10.55 1004.75
						 A4.49992 4.49992 0 0 1 15.05 1000.25 L16.59 1000.25 A4.49992 4.49992 -180 0 0 21.09 995.75 L21.09 994.62"
					class="st7"/>
		</g>
		<g id="shape54-143" v:mID="54" v:groupContext="shape" transform="translate(210.9,-62)">
			<title>Sheet.54</title>
			<desc>Thread 2 enters the loop</desc>
			<v:textBlock v:margins="rect(4,4,4,4)"/>
			<v:textRect cx="76" cy="990.25" width="152" height="20"/>
			<rect x="0" y="980.25" width="152" height="20" class="st8"/>
			<text x="15.78" y="993.85" class="st9" v:langID="1033"><v:paragraph v:horizAlign="1"/><v:tabList/>Thread 2 enters the loop</text>		</g>
		<g id="shape55-146" v:mID="55" v:groupContext="shape" v:layerMember="0" transform="translate(2.14577E-07,-981)">
			<title>Dynamic connector</title>
			<desc>Time</desc>
			<v:textBlock v:margins="rect(4,4,4,4)"/>
			<v:textRect cx="9" cy="1481.03" width="40" height="17.6036"/>
			<path d="M9 1000.25 L9 1954.77" class="st10"/>
			<rect v:rectContext="textBkgnd" x="0.947357" y="1476.23" width="16.1051" height="9.59985" class="st12"/>
			<text x="0.95" y="1483.43" class="st13" v:langID="1033"><v:paragraph v:horizAlign="1"/><v:tabList/>Time</text>		</g>
		<g id="shape56-154" v:mID="56" v:groupContext="shape" transform="translate(19,-714.094)">
			<title>Rectangle.56</title>
			<v:userDefs>
				<v:ud v:nameU="visVersion" v:val="VT0(15):26"/>
			</v:userDefs>
			<rect x="0" y="985.344" width="189" height="14.9062" class="st4"/>
		</g>
		<g id="shape59-156" v:mID="59" v:groupContext="shape" transform="translate(-781.625,694.25) rotate(-90) scale(-1,1)">
			<title>Side brace.59</title>
			<v:userDefs>
				<v:ud v:nameU="TxtW" v:val="VT0(0.55555555555556):29"/>
				<v:ud v:nameU="TxtA" v:val="VT0(1.5707963267949):32"/>
				<v:ud v:nameU="TxtAState" v:val="VT0(0):26"/>
				<v:ud v:nameU="TxtWState" v:val="VT0(0):26"/>
				<v:ud v:nameU="MaxRadius" v:val="VT0(0.25):1"/>
				<v:ud v:nameU="PosCH1" v:prompt="Constrains X position of Control Handle #1" v:val="VT0(0):26"/>
				<v:ud v:nameU="PosCH2" v:prompt="Constrains Y position of Control Handle #2" v:val="VT0(0):26"/>
				<v:ud v:nameU="Scale" v:val="VT0(1):26"/>
				<v:ud v:nameU="AntiScale" v:val="VT0(1):26"/>
				<v:ud v:nameU="visVersion" v:val="VT0(15):26"/>
				<v:ud v:nameU="MaxRadius" v:prompt="" v:val="VT0(0.07324219290167):1"/>
			</v:userDefs>
			<path d="M0 994.62 L0 995.75 A4.49992 4.49992 -180 0 0 4.5 1000.25 L6.05 1000.25 A4.49992 4.49992 0 0 1 10.55 1004.75
						 A4.49992 4.49992 0 0 1 15.05 1000.25 L16.59 1000.25 A4.49992 4.49992 -180 0 0 21.09 995.75 L21.09 994.62"
					class="st7"/>
		</g>
		<g id="shape60-159" v:mID="60" v:groupContext="shape" transform="translate(217.5,-286)">
			<title>Sheet.60</title>
			<desc>Thread 2 stalls waiting to enter the loop</desc>
			<v:textBlock v:margins="rect(4,4,4,4)"/>
			<v:textRect cx="110.25" cy="990.25" width="220.5" height="20"/>
			<rect x="0" y="980.25" width="220.5" height="20" class="st8"/>
			<text x="12.9" y="993.85" class="st9" v:langID="1033"><v:paragraph v:horizAlign="1"/><v:tabList/>Thread 2 stalls waiting to enter the loop</text>		</g>
		<g id="shape61-162" v:mID="61" v:groupContext="shape" transform="translate(18.5,-22.0638)">
			<title>Rectangle.61</title>
			<v:userDefs>
				<v:ud v:nameU="visVersion" v:val="VT0(15):26"/>
			</v:userDefs>
			<rect x="0" y="985.344" width="189" height="14.9062" class="st4"/>
		</g>
	</g>
</svg>
