<?xml version="1.0" encoding="UTF-8" standalone="no"?>
<!DOCTYPE svg PUBLIC "-//W3C//DTD SVG 1.1//EN" "http://www.w3.org/Graphics/SVG/1.1/DTD/svg11.dtd">
<!-- Generated by Microsoft Visio, SVG Export unrolled-for-serial.svg unrolled-for-serial -->
<svg xmlns="http://www.w3.org/2000/svg" xmlns:xlink="http://www.w3.org/1999/xlink" xmlns:ev="http://www.w3.org/2001/xml-events"
		xmlns:v="http://schemas.microsoft.com/visio/2003/SVGExtensions/" width="7.26732in" height="6.43038in"
		viewBox="0 0 523.247 462.987" xml:space="preserve" color-interpolation-filters="sRGB" class="st10">
	<v:documentProperties v:langID="1033" v:viewMarkup="false">
		<v:userDefs>
			<v:ud v:nameU="msvSubprocessMaster" v:prompt="" v:val="VT4(Rectangle)"/>
			<v:ud v:nameU="msvNoAutoConnect" v:val="VT0(1):26"/>
		</v:userDefs>
	</v:documentProperties>

	<style type="text/css">
	<![CDATA[
		.st1 {fill:url(#grad0-4);stroke:#3c63ac;stroke-width:0.75}
		.st2 {fill:#3c63ac;font-family:Calibri;font-size:0.833336em}
		.st3 {fill:#4672c4;stroke:#c7c8c8;stroke-width:0.25}
		.st4 {fill:#feffff;font-family:Calibri;font-size:0.833336em}
		.st5 {marker-end:url(#mrkr4-21);stroke:#4672c4;stroke-linecap:round;stroke-linejoin:round;stroke-width:1}
		.st6 {fill:#4672c4;fill-opacity:1;stroke:#4672c4;stroke-opacity:1;stroke-width:0.28409090909091}
		.st7 {fill:#ffffff;stroke:none;stroke-linecap:butt;stroke-width:7.2}
		.st8 {fill:#3c63ac;font-family:Calibri;font-size:0.666664em}
		.st9 {fill:#ffffff;stroke:none;stroke-linecap:butt}
		.st10 {fill:none;fill-rule:evenodd;font-size:12px;overflow:visible;stroke-linecap:square;stroke-miterlimit:3}
	]]>
	</style>

	<defs id="Patterns_And_Gradients">
		<linearGradient id="grad0-4" x1="0" y1="0" x2="1" y2="0" gradientTransform="rotate(60 0.5 0.5)">
			<stop offset="0" stop-color="#e8ebf4" stop-opacity="1"/>
			<stop offset="0.24" stop-color="#f4f5f9" stop-opacity="1"/>
			<stop offset="0.54" stop-color="#feffff" stop-opacity="1"/>
		</linearGradient>
	</defs>
	<defs id="Markers">
		<g id="lend4">
			<path d="M 2 1 L 0 0 L 2 -1 L 2 1 " style="stroke:none"/>
		</g>
		<marker id="mrkr4-21" class="st6" v:arrowType="4" v:arrowSize="2" v:setback="7.04" refX="-7.04" orient="auto"
				markerUnits="strokeWidth" overflow="visible">
			<use xlink:href="#lend4" transform="scale(-3.52,-3.52) "/>
		</marker>
	</defs>
	<g v:mID="48" v:index="23" v:groupContext="foregroundPage">
		<v:userDefs>
			<v:ud v:nameU="msvThemeOrder" v:val="VT0(0):26"/>
		</v:userDefs>
		<title>unrolled-for-serial</title>
		<v:pageProperties v:drawingScale="1" v:pageScale="1" v:drawingUnits="0" v:shadowOffsetX="9" v:shadowOffsetY="-9"/>
		<v:layer v:name="Connector" v:index="0"/>
		<g id="shape2-1" v:mID="2" v:groupContext="shape" transform="translate(28.9979,-420.245)">
			<title>Rectangle</title>
			<desc>x[0]</desc>
			<v:userDefs>
				<v:ud v:nameU="visVersion" v:val="VT0(15):26"/>
			</v:userDefs>
			<v:textBlock v:margins="rect(4,4,4,4)"/>
			<v:textRect cx="26.0786" cy="450.991" width="52.16" height="23.9923"/>
			<rect x="0" y="438.995" width="52.1573" height="23.9923" class="st1"/>
			<text x="18.31" y="453.99" class="st2" v:langID="1033"><v:paragraph v:horizAlign="1"/><v:tabList/>x[0]</text>		</g>
		<g id="shape6-6" v:mID="6" v:groupContext="shape" transform="translate(30.9414,-344.04)">
			<title>Circle</title>
			<desc>+ 2</desc>
			<v:userDefs>
				<v:ud v:nameU="visVersion" v:val="VT0(15):26"/>
			</v:userDefs>
			<v:textBlock v:margins="rect(4,4,4,4)"/>
			<v:textRect cx="24.1072" cy="438.88" width="42.19" height="36.1608"/>
			<path d="M0 438.88 A24.1072 24.1072 0 0 1 48.21 438.88 A24.1072 24.1072 0 1 1 0 438.88 Z" class="st3"/>
			<text x="17.95" y="441.88" class="st4" v:langID="1033"><v:paragraph v:horizAlign="1"/><v:tabList/>+ 2</text>		</g>
		<g id="shape7-9" v:mID="7" v:groupContext="shape" transform="translate(31.3914,-268.064)">
			<title>Circle.7</title>
			<desc>*</desc>
			<v:userDefs>
				<v:ud v:nameU="visVersion" v:val="VT0(15):26"/>
			</v:userDefs>
			<v:textBlock v:margins="rect(4,4,4,4)"/>
			<v:textRect cx="24.1072" cy="438.88" width="42.19" height="36.1608"/>
			<path d="M0 438.88 A24.1072 24.1072 0 0 1 48.21 438.88 A24.1072 24.1072 0 1 1 0 438.88 Z" class="st3"/>
			<text x="21.62" y="441.88" class="st4" v:langID="1033"><v:paragraph v:horizAlign="1"/><v:tabList/>*</text>		</g>
		<g id="shape8-12" v:mID="8" v:groupContext="shape" transform="translate(29.3985,-228.008)">
			<title>Rectangle.8</title>
			<desc>y[0]</desc>
			<v:userDefs>
				<v:ud v:nameU="visVersion" v:val="VT0(15):26"/>
			</v:userDefs>
			<v:textBlock v:margins="rect(4,4,4,4)"/>
			<v:textRect cx="26.0786" cy="450.991" width="52.16" height="23.9923"/>
			<rect x="0" y="438.995" width="52.1573" height="23.9923" class="st1"/>
			<text x="18.22" y="453.99" class="st2" v:langID="1033"><v:paragraph v:horizAlign="1"/><v:tabList/>y[0]</text>		</g>
		<g id="shape9-16" v:mID="9" v:groupContext="shape" v:layerMember="0" transform="translate(64.0625,-420.245)">
			<title>Dynamic connector</title>
			<path d="M-8.99 462.99 L-8.99 476.49 L-9.01 476.49 L-9.01 483.94" class="st5"/>
		</g>
		<g id="shape11-22" v:mID="11" v:groupContext="shape" v:layerMember="0" transform="translate(54.7979,-344.04)">
			<title>Dynamic connector.11</title>
			<path d="M0.25 462.99 L0.25 476.49 L17.75 476.49 L17.75 490.77" class="st5"/>
		</g>
		<g id="shape12-27" v:mID="12" v:groupContext="shape" v:layerMember="0" transform="translate(64.4879,-269.032)">
			<title>Dynamic connector.12</title>
			<path d="M-8.99 463.96 L-8.99 470.71 L-9.01 470.71 L-9.01 472.98" class="st5"/>
		</g>
		<g id="shape13-32" v:mID="13" v:groupContext="shape" transform="translate(106.156,-343.286)">
			<title>Circle.13</title>
			<desc>+</desc>
			<v:userDefs>
				<v:ud v:nameU="visVersion" v:val="VT0(15):26"/>
			</v:userDefs>
			<v:textBlock v:margins="rect(4,4,4,4)"/>
			<v:textRect cx="24.1072" cy="438.88" width="42.19" height="36.1608"/>
			<path d="M0 438.88 A24.1072 24.1072 0 0 1 48.21 438.88 A24.1072 24.1072 0 1 1 0 438.88 Z" class="st3"/>
			<text x="21.62" y="441.88" class="st4" v:langID="1033"><v:paragraph v:horizAlign="1"/><v:tabList/>+</text>		</g>
		<g id="shape14-35" v:mID="14" v:groupContext="shape" v:layerMember="0" transform="translate(55.0765,-420.245)">
			<title>Dynamic connector.14</title>
			<path d="M0 462.99 L-0 477.48 L58.14 477.48 L58.14 491.75" class="st5"/>
		</g>
		<g id="shape24-40" v:mID="24" v:groupContext="shape" transform="translate(170.508,-345.111)">
			<title>Rectangle.24</title>
			<desc>x[1]</desc>
			<v:userDefs>
				<v:ud v:nameU="visVersion" v:val="VT0(15):26"/>
			</v:userDefs>
			<v:textBlock v:margins="rect(4,4,4,4)"/>
			<v:textRect cx="26.0786" cy="450.991" width="52.16" height="23.9923"/>
			<rect x="0" y="438.995" width="52.1573" height="23.9923" class="st1"/>
			<text x="18.31" y="453.99" class="st2" v:langID="1033"><v:paragraph v:horizAlign="1"/><v:tabList/>x[1]</text>		</g>
		<g id="shape25-44" v:mID="25" v:groupContext="shape" transform="translate(172.291,-269.897)">
			<title>Circle.25</title>
			<desc>+ 2</desc>
			<v:userDefs>
				<v:ud v:nameU="visVersion" v:val="VT0(15):26"/>
			</v:userDefs>
			<v:textBlock v:margins="rect(4,4,4,4)"/>
			<v:textRect cx="24.1072" cy="438.88" width="42.19" height="36.1608"/>
			<path d="M0 438.88 A24.1072 24.1072 0 0 1 48.21 438.88 A24.1072 24.1072 0 1 1 0 438.88 Z" class="st3"/>
			<text x="17.95" y="441.88" class="st4" v:langID="1033"><v:paragraph v:horizAlign="1"/><v:tabList/>+ 2</text>		</g>
		<g id="shape26-47" v:mID="26" v:groupContext="shape" transform="translate(170.319,-197.235)">
			<title>Circle.26</title>
			<desc>*</desc>
			<v:userDefs>
				<v:ud v:nameU="visVersion" v:val="VT0(15):26"/>
			</v:userDefs>
			<v:textBlock v:margins="rect(4,4,4,4)"/>
			<v:textRect cx="24.1072" cy="438.88" width="42.19" height="36.1608"/>
			<path d="M0 438.88 A24.1072 24.1072 0 0 1 48.21 438.88 A24.1072 24.1072 0 1 1 0 438.88 Z" class="st3"/>
			<text x="21.62" y="441.88" class="st4" v:langID="1033"><v:paragraph v:horizAlign="1"/><v:tabList/>*</text>		</g>
		<g id="shape27-50" v:mID="27" v:groupContext="shape" transform="translate(168.315,-155.786)">
			<title>Rectangle.27</title>
			<desc>y[1]</desc>
			<v:userDefs>
				<v:ud v:nameU="visVersion" v:val="VT0(15):26"/>
			</v:userDefs>
			<v:textBlock v:margins="rect(4,4,4,4)"/>
			<v:textRect cx="26.0786" cy="450.991" width="52.16" height="23.9923"/>
			<rect x="0" y="438.995" width="52.1573" height="23.9923" class="st1"/>
			<text x="18.22" y="453.99" class="st2" v:langID="1033"><v:paragraph v:horizAlign="1"/><v:tabList/>y[1]</text>		</g>
		<g id="shape28-54" v:mID="28" v:groupContext="shape" v:layerMember="0" transform="translate(205.492,-345.111)">
			<title>Dynamic connector.28</title>
			<path d="M-8.91 462.99 L-8.91 471.99 L-9.09 471.99 L-9.09 482.95" class="st5"/>
		</g>
		<g id="shape29-59" v:mID="29" v:groupContext="shape" v:layerMember="0" transform="translate(194.936,-269.897)">
			<title>Dynamic connector.29</title>
			<path d="M1.46 462.99 L1.46 451.63 L16.54 451.63 L16.54 487.45" class="st5"/>
		</g>
		<g id="shape30-64" v:mID="30" v:groupContext="shape" v:layerMember="0" transform="translate(203.41,-197.506)">
			<title>Dynamic connector.30</title>
			<path d="M-8.98 463.26 L-8.98 470.01 L-9.02 470.01 L-9.02 473.68" class="st5"/>
		</g>
		<g id="shape31-69" v:mID="31" v:groupContext="shape" transform="translate(245.534,-270)">
			<title>Circle.31</title>
			<desc>+</desc>
			<v:userDefs>
				<v:ud v:nameU="visVersion" v:val="VT0(15):26"/>
			</v:userDefs>
			<v:textBlock v:margins="rect(4,4,4,4)"/>
			<v:textRect cx="24.1072" cy="438.88" width="42.19" height="36.1608"/>
			<path d="M0 438.88 A24.1072 24.1072 0 0 1 48.21 438.88 A24.1072 24.1072 0 1 1 0 438.88 Z" class="st3"/>
			<text x="21.62" y="441.88" class="st4" v:langID="1033"><v:paragraph v:horizAlign="1"/><v:tabList/>+</text>		</g>
		<g id="shape32-72" v:mID="32" v:groupContext="shape" v:layerMember="0" transform="translate(196.586,-345.111)">
			<title>Dynamic connector.32</title>
			<path d="M0 462.99 L0 470 L90.1 470 L90.1 489.9" class="st5"/>
		</g>
		<g id="shape33-77" v:mID="33" v:groupContext="shape" v:layerMember="0" transform="translate(130.263,-343.286)">
			<title>Dynamic connector.33</title>
			<desc>z (after iteration 0)</desc>
			<v:textBlock v:margins="rect(4,4,4,4)"/>
			<v:textRect cx="1.48493" cy="502.751" width="71.09" height="17.6036"/>
			<path d="M0 462.99 L0 543.69 L47.11 543.69 L47.11 560.84" class="st5"/>
			<rect v:rectContext="textBkgnd" x="-29.1495" y="497.951" width="61.2691" height="9.59985" class="st7"/>
			<text x="-29.15" y="505.15" class="st8" v:langID="1033"><v:paragraph v:horizAlign="1"/><v:tabList/>z (after iteration 0)</text>		</g>
		<g id="shape34-84" v:mID="34" v:groupContext="shape" v:layerMember="0" transform="translate(130.263,-343.286)">
			<title>Dynamic connector.34</title>
			<path d="M0 462.99 L0 477.77 L63.13 477.77 A3 3 0 0 1 69.13 477.77 L122.33 477.77 L122.33 488.08" class="st5"/>
		</g>
		<g id="shape35-89" v:mID="35" v:groupContext="shape" transform="translate(305.508,-275.361)">
			<title>Rectangle.35</title>
			<desc>x[2]</desc>
			<v:userDefs>
				<v:ud v:nameU="visVersion" v:val="VT0(15):26"/>
			</v:userDefs>
			<v:textBlock v:margins="rect(4,4,4,4)"/>
			<v:textRect cx="26.0786" cy="450.991" width="52.16" height="23.9923"/>
			<rect x="0" y="438.995" width="52.1573" height="23.9923" class="st1"/>
			<text x="18.31" y="453.99" class="st2" v:langID="1033"><v:paragraph v:horizAlign="1"/><v:tabList/>x[2]</text>		</g>
		<g id="shape36-93" v:mID="36" v:groupContext="shape" transform="translate(307.291,-200.147)">
			<title>Circle.36</title>
			<desc>+ 2</desc>
			<v:userDefs>
				<v:ud v:nameU="visVersion" v:val="VT0(15):26"/>
			</v:userDefs>
			<v:textBlock v:margins="rect(4,4,4,4)"/>
			<v:textRect cx="24.1072" cy="438.88" width="42.19" height="36.1608"/>
			<path d="M0 438.88 A24.1072 24.1072 0 0 1 48.21 438.88 A24.1072 24.1072 0 1 1 0 438.88 Z" class="st3"/>
			<text x="17.95" y="441.88" class="st4" v:langID="1033"><v:paragraph v:horizAlign="1"/><v:tabList/>+ 2</text>		</g>
		<g id="shape37-96" v:mID="37" v:groupContext="shape" transform="translate(305.319,-131.564)">
			<title>Circle.37</title>
			<desc>*</desc>
			<v:userDefs>
				<v:ud v:nameU="visVersion" v:val="VT0(15):26"/>
			</v:userDefs>
			<v:textBlock v:margins="rect(4,4,4,4)"/>
			<v:textRect cx="24.1072" cy="438.88" width="42.19" height="36.1608"/>
			<path d="M0 438.88 A24.1072 24.1072 0 0 1 48.21 438.88 A24.1072 24.1072 0 1 1 0 438.88 Z" class="st3"/>
			<text x="21.62" y="441.88" class="st4" v:langID="1033"><v:paragraph v:horizAlign="1"/><v:tabList/>*</text>		</g>
		<g id="shape38-99" v:mID="38" v:groupContext="shape" transform="translate(303.364,-90.9567)">
			<title>Rectangle.38</title>
			<desc>y[2]</desc>
			<v:userDefs>
				<v:ud v:nameU="visVersion" v:val="VT0(15):26"/>
			</v:userDefs>
			<v:textBlock v:margins="rect(4,4,4,4)"/>
			<v:textRect cx="26.0786" cy="450.991" width="52.16" height="23.9923"/>
			<rect x="0" y="438.995" width="52.1573" height="23.9923" class="st1"/>
			<text x="18.22" y="453.99" class="st2" v:langID="1033"><v:paragraph v:horizAlign="1"/><v:tabList/>y[2]</text>		</g>
		<g id="shape39-103" v:mID="39" v:groupContext="shape" v:layerMember="0" transform="translate(340.492,-275.361)">
			<title>Dynamic connector.39</title>
			<path d="M-8.91 462.99 L-8.91 471.99 L-9.09 471.99 L-9.09 482.95" class="st5"/>
		</g>
		<g id="shape40-108" v:mID="40" v:groupContext="shape" v:layerMember="0" transform="translate(329.936,-200.147)">
			<title>Dynamic connector.40</title>
			<path d="M1.46 462.99 L1.46 469.86 L16.54 469.86 L16.54 483.37" class="st5"/>
		</g>
		<g id="shape41-113" v:mID="41" v:groupContext="shape" v:layerMember="0" transform="translate(320.434,-132.256)">
			<title>Dynamic connector.41</title>
			<path d="M8.99 463.68 L8.99 470.43 L9.01 470.43 L9.01 473.25" class="st5"/>
		</g>
		<g id="shape42-118" v:mID="42" v:groupContext="shape" transform="translate(380.534,-199.286)">
			<title>Circle.42</title>
			<desc>+</desc>
			<v:userDefs>
				<v:ud v:nameU="visVersion" v:val="VT0(15):26"/>
			</v:userDefs>
			<v:textBlock v:margins="rect(4,4,4,4)"/>
			<v:textRect cx="24.1072" cy="438.88" width="42.19" height="36.1608"/>
			<path d="M0 438.88 A24.1072 24.1072 0 0 1 48.21 438.88 A24.1072 24.1072 0 1 1 0 438.88 Z" class="st3"/>
			<text x="21.62" y="441.88" class="st4" v:langID="1033"><v:paragraph v:horizAlign="1"/><v:tabList/>+</text>		</g>
		<g id="shape43-121" v:mID="43" v:groupContext="shape" v:layerMember="0" transform="translate(331.586,-275.361)">
			<title>Dynamic connector.43</title>
			<path d="M0 462.99 L0 469.43 L90.1 469.43 L90.1 490.87" class="st5"/>
		</g>
		<g id="shape44-126" v:mID="44" v:groupContext="shape" v:layerMember="0" transform="translate(269.641,-270)">
			<title>Dynamic connector.44</title>
			<desc>z (after iteration 1)</desc>
			<v:textBlock v:margins="rect(4,4,4,4)"/>
			<v:textRect cx="-0.642817" cy="503.197" width="72.89" height="17.6036"/>
			<path d="M0 462.99 L0 546.46 L42.74 546.46 L42.74 553.23" class="st5"/>
			<rect v:rectContext="textBkgnd" x="-32.1816" y="498.397" width="63.0777" height="9.59985" class="st9"/>
			<text x="-30.37" y="505.6" class="st8" v:langID="1033"><v:paragraph v:horizAlign="1"/><v:tabList/>z (after iteration 1)</text>		</g>
		<g id="shape45-133" v:mID="45" v:groupContext="shape" v:layerMember="0" transform="translate(269.641,-259.5)">
			<title>Dynamic connector.45</title>
			<path d="M0 462.99 L58.76 462.99 A3 3 0 1 1 64.76 462.99 L117.95 462.99 L117.95 475.01" class="st5"/>
		</g>
		<g id="shape46-138" v:mID="46" v:groupContext="shape" transform="translate(448.894,-207.604)">
			<title>Rectangle.46</title>
			<desc>x[3]</desc>
			<v:userDefs>
				<v:ud v:nameU="visVersion" v:val="VT0(15):26"/>
			</v:userDefs>
			<v:textBlock v:margins="rect(4,4,4,4)"/>
			<v:textRect cx="26.0786" cy="450.991" width="52.16" height="23.9923"/>
			<rect x="0" y="438.995" width="52.1573" height="23.9923" class="st1"/>
			<text x="18.31" y="453.99" class="st2" v:langID="1033"><v:paragraph v:horizAlign="1"/><v:tabList/>x[3]</text>		</g>
		<g id="shape47-142" v:mID="47" v:groupContext="shape" transform="translate(450.677,-131.786)">
			<title>Circle.47</title>
			<desc>+ 2</desc>
			<v:userDefs>
				<v:ud v:nameU="visVersion" v:val="VT0(15):26"/>
			</v:userDefs>
			<v:textBlock v:margins="rect(4,4,4,4)"/>
			<v:textRect cx="24.1072" cy="438.88" width="42.19" height="36.1608"/>
			<path d="M0 438.88 A24.1072 24.1072 0 0 1 48.21 438.88 A24.1072 24.1072 0 1 1 0 438.88 Z" class="st3"/>
			<text x="17.95" y="441.88" class="st4" v:langID="1033"><v:paragraph v:horizAlign="1"/><v:tabList/>+ 2</text>		</g>
		<g id="shape48-145" v:mID="48" v:groupContext="shape" transform="translate(448.706,-66.7347)">
			<title>Circle.48</title>
			<desc>*</desc>
			<v:userDefs>
				<v:ud v:nameU="visVersion" v:val="VT0(15):26"/>
			</v:userDefs>
			<v:textBlock v:margins="rect(4,4,4,4)"/>
			<v:textRect cx="24.1072" cy="438.88" width="42.19" height="36.1608"/>
			<path d="M0 438.88 A24.1072 24.1072 0 0 1 48.21 438.88 A24.1072 24.1072 0 1 1 0 438.88 Z" class="st3"/>
			<text x="21.62" y="441.88" class="st4" v:langID="1033"><v:paragraph v:horizAlign="1"/><v:tabList/>*</text>		</g>
		<g id="shape49-148" v:mID="49" v:groupContext="shape" transform="translate(446.734,-24.0038)">
			<title>Rectangle.49</title>
			<desc>y[3]</desc>
			<v:userDefs>
				<v:ud v:nameU="visVersion" v:val="VT0(15):26"/>
			</v:userDefs>
			<v:textBlock v:margins="rect(4,4,4,4)"/>
			<v:textRect cx="26.0786" cy="450.991" width="52.16" height="23.9923"/>
			<rect x="0" y="438.995" width="52.1573" height="23.9923" class="st1"/>
			<text x="18.22" y="453.99" class="st2" v:langID="1033"><v:paragraph v:horizAlign="1"/><v:tabList/>y[3]</text>		</g>
		<g id="shape50-152" v:mID="50" v:groupContext="shape" v:layerMember="0" transform="translate(483.878,-207.604)">
			<title>Dynamic connector.50</title>
			<path d="M-8.91 462.99 L-8.91 476.49 L-9.09 476.49 L-9.09 483.55" class="st5"/>
		</g>
		<g id="shape51-157" v:mID="51" v:groupContext="shape" v:layerMember="0" transform="translate(473.323,-131.786)">
			<title>Dynamic connector.51</title>
			<path d="M1.46 462.99 L1.46 469.74 L16.54 469.74 L16.54 479.84" class="st5"/>
		</g>
		<g id="shape52-162" v:mID="52" v:groupContext="shape" v:layerMember="0" transform="translate(463.813,-66.7347)">
			<title>Dynamic connector.52</title>
			<path d="M9 462.99 L9 474.69" class="st5"/>
		</g>
		<g id="shape55-167" v:mID="55" v:groupContext="shape" v:layerMember="0" transform="translate(404.641,-199.286)">
			<title>Dynamic connector.55</title>
			<desc>z (after iteration 2)</desc>
			<v:textBlock v:margins="rect(4,4,4,4)"/>
			<v:textRect cx="-0.642825" cy="499.342" width="71.09" height="17.6036"/>
			<path d="M0 462.99 L0 540.57 L51.12 540.57 L51.12 547.34" class="st5"/>
			<rect v:rectContext="textBkgnd" x="-31.2773" y="494.543" width="61.2691" height="9.59985" class="st7"/>
			<text x="-31.28" y="501.74" class="st8" v:langID="1033"><v:paragraph v:horizAlign="1"/><v:tabList/>z (after iteration 2)</text>		</g>
		<g id="shape56-174" v:mID="56" v:groupContext="shape" transform="translate(30.8783,-322.532)">
			<title>Rectangle.56</title>
			<desc>3</desc>
			<v:userDefs>
				<v:ud v:nameU="visVersion" v:val="VT0(15):26"/>
			</v:userDefs>
			<v:textBlock v:margins="rect(4,4,4,4)"/>
			<v:textRect cx="7.55412" cy="454.214" width="15.11" height="17.5474"/>
			<rect x="0" y="445.44" width="15.1082" height="17.5474" class="st1"/>
			<text x="5.02" y="457.21" class="st2" v:langID="1033"><v:paragraph v:horizAlign="1"/><v:tabList/>3</text>		</g>
		<g id="shape57-178" v:mID="57" v:groupContext="shape" v:layerMember="0" transform="translate(29.4412,-324.876)">
			<title>Dynamic connector.57</title>
			<path d="M8.99 465.33 L8.99 468.71 L9.01 468.71 L9.01 471.6" class="st5"/>
		</g>
		<g id="shape58-183" v:mID="58" v:groupContext="shape" transform="translate(139.262,-403.082)">
			<title>Rectangle.58</title>
			<desc>3</desc>
			<v:userDefs>
				<v:ud v:nameU="visVersion" v:val="VT0(15):26"/>
			</v:userDefs>
			<v:textBlock v:margins="rect(4,4,4,4)"/>
			<v:textRect cx="7.55412" cy="454.214" width="15.11" height="17.5474"/>
			<rect x="0" y="445.44" width="15.1082" height="17.5474" class="st1"/>
			<text x="5.02" y="457.21" class="st2" v:langID="1033"><v:paragraph v:horizAlign="1"/><v:tabList/>3</text>		</g>
		<g id="shape60-187" v:mID="60" v:groupContext="shape" v:layerMember="0" transform="translate(138.064,-403.082)">
			<title>Dynamic connector.60</title>
			<path d="M8.75 462.99 L9.25 462.99 L9.25 474.59" class="st5"/>
		</g>
	</g>
</svg>
