<?xml version="1.0" encoding="UTF-8" standalone="no"?>
<!DOCTYPE svg PUBLIC "-//W3C//DTD SVG 1.1//EN" "http://www.w3.org/Graphics/SVG/1.1/DTD/svg11.dtd">
<!-- Generated by Microsoft Visio, SVG Export unrolled-for-parallel.svg Page-1 -->
<svg xmlns="http://www.w3.org/2000/svg" xmlns:xlink="http://www.w3.org/1999/xlink" xmlns:ev="http://www.w3.org/2001/xml-events"
		xmlns:v="http://schemas.microsoft.com/visio/2003/SVGExtensions/" width="3.80344in" height="3.13733in"
		viewBox="0 0 273.848 225.888" xml:space="preserve" color-interpolation-filters="sRGB" class="st7">
	<v:documentProperties v:langID="1033" v:viewMarkup="false"/>

	<style type="text/css">
	<![CDATA[
		.st1 {fill:url(#grad0-4);stroke:#3c63ac;stroke-width:0.75}
		.st2 {fill:#3c63ac;font-family:Calibri;font-size:0.833336em}
		.st3 {fill:#4672c4;stroke:#c7c8c8;stroke-width:0.25}
		.st4 {fill:#feffff;font-family:Calibri;font-size:0.833336em}
		.st5 {marker-end:url(#mrkr4-21);stroke:#4672c4;stroke-linecap:round;stroke-linejoin:round;stroke-width:1}
		.st6 {fill:#4672c4;fill-opacity:1;stroke:#4672c4;stroke-opacity:1;stroke-width:0.28409090909091}
		.st7 {fill:none;fill-rule:evenodd;font-size:12px;overflow:visible;stroke-linecap:square;stroke-miterlimit:3}
	]]>
	</style>

	<defs id="Patterns_And_Gradients">
		<linearGradient id="grad0-4" x1="0" y1="0" x2="1" y2="0" gradientTransform="rotate(60 0.5 0.5)">
			<stop offset="0" stop-color="#e8ebf4" stop-opacity="1"/>
			<stop offset="0.24" stop-color="#f4f5f9" stop-opacity="1"/>
			<stop offset="0.54" stop-color="#feffff" stop-opacity="1"/>
		</linearGradient>
	</defs>
	<defs id="Markers">
		<g id="lend4">
			<path d="M 2 1 L 0 0 L 2 -1 L 2 1 " style="stroke:none"/>
		</g>
		<marker id="mrkr4-21" class="st6" v:arrowType="4" v:arrowSize="2" v:setback="7.04" refX="-7.04" orient="auto"
				markerUnits="strokeWidth" overflow="visible">
			<use xlink:href="#lend4" transform="scale(-3.52,-3.52) "/>
		</marker>
	</defs>
	<g v:mID="0" v:index="1" v:groupContext="foregroundPage">
		<title>Page-1</title>
		<v:pageProperties v:drawingScale="1" v:pageScale="1" v:drawingUnits="0" v:shadowOffsetX="9" v:shadowOffsetY="-9"/>
		<v:layer v:name="Connector" v:index="0"/>
		<g id="shape2-1" v:mID="2" v:groupContext="shape" transform="translate(0.75,-200.916)">
			<title>Rectangle</title>
			<desc>x[0]</desc>
			<v:userDefs>
				<v:ud v:nameU="visVersion" v:val="VT0(15):26"/>
			</v:userDefs>
			<v:textBlock v:margins="rect(4,4,4,4)"/>
			<v:textRect cx="26.0786" cy="213.892" width="52.16" height="23.9923"/>
			<rect x="0" y="201.896" width="52.1573" height="23.9923" class="st1"/>
			<text x="18.31" y="216.89" class="st2" v:langID="1033"><v:paragraph v:horizAlign="1"/><v:tabList/>x[0]</text>		</g>
		<g id="shape6-6" v:mID="6" v:groupContext="shape" transform="translate(2.69355,-124.71)">
			<title>Circle</title>
			<desc>+ 2</desc>
			<v:userDefs>
				<v:ud v:nameU="visVersion" v:val="VT0(15):26"/>
			</v:userDefs>
			<v:textBlock v:margins="rect(4,4,4,4)"/>
			<v:textRect cx="24.1072" cy="201.781" width="42.19" height="36.1608"/>
			<path d="M0 201.78 A24.1072 24.1072 0 0 1 48.21 201.78 A24.1072 24.1072 0 1 1 0 201.78 Z" class="st3"/>
			<text x="17.95" y="204.78" class="st4" v:langID="1033"><v:paragraph v:horizAlign="1"/><v:tabList/>+ 2</text>		</g>
		<g id="shape7-9" v:mID="7" v:groupContext="shape" transform="translate(2.69355,-48.7347)">
			<title>Circle.7</title>
			<desc>* 3</desc>
			<v:userDefs>
				<v:ud v:nameU="visVersion" v:val="VT0(15):26"/>
			</v:userDefs>
			<v:textBlock v:margins="rect(4,4,4,4)"/>
			<v:textRect cx="24.1072" cy="201.781" width="42.19" height="36.1608"/>
			<path d="M0 201.78 A24.1072 24.1072 0 0 1 48.21 201.78 A24.1072 24.1072 0 1 1 0 201.78 Z" class="st3"/>
			<text x="17.95" y="204.78" class="st4" v:langID="1033"><v:paragraph v:horizAlign="1"/><v:tabList/>* 3</text>		</g>
		<g id="shape8-12" v:mID="8" v:groupContext="shape" transform="translate(0.836926,-0.750031)">
			<title>Rectangle.8</title>
			<desc>y[0]</desc>
			<v:userDefs>
				<v:ud v:nameU="visVersion" v:val="VT0(15):26"/>
			</v:userDefs>
			<v:textBlock v:margins="rect(4,4,4,4)"/>
			<v:textRect cx="26.0786" cy="213.892" width="52.16" height="23.9923"/>
			<rect x="0" y="201.896" width="52.1573" height="23.9923" class="st1"/>
			<text x="18.22" y="216.89" class="st2" v:langID="1033"><v:paragraph v:horizAlign="1"/><v:tabList/>y[0]</text>		</g>
		<g id="shape9-16" v:mID="9" v:groupContext="shape" v:layerMember="0" transform="translate(35.8147,-200.916)">
			<title>Dynamic connector</title>
			<path d="M-8.99 225.89 L-9.01 246.84" class="st5"/>
		</g>
		<g id="shape11-22" v:mID="11" v:groupContext="shape" v:layerMember="0" transform="translate(17.8007,-124.71)">
			<title>Dynamic connector.11</title>
			<path d="M9 225.89 L9 246.61" class="st5"/>
		</g>
		<g id="shape12-27" v:mID="12" v:groupContext="shape" v:layerMember="0" transform="translate(17.8581,-48.7347)">
			<title>Dynamic connector.12</title>
			<path d="M8.94 225.89 L9.02 242.84" class="st5"/>
		</g>
		<g id="shape19-32" v:mID="19" v:groupContext="shape" transform="translate(76.8996,-200.916)">
			<title>Rectangle.19</title>
			<desc>x[1]</desc>
			<v:userDefs>
				<v:ud v:nameU="visVersion" v:val="VT0(15):26"/>
			</v:userDefs>
			<v:textBlock v:margins="rect(4,4,4,4)"/>
			<v:textRect cx="26.0786" cy="213.892" width="52.16" height="23.9923"/>
			<rect x="0" y="201.896" width="52.1573" height="23.9923" class="st1"/>
			<text x="18.31" y="216.89" class="st2" v:langID="1033"><v:paragraph v:horizAlign="1"/><v:tabList/>x[1]</text>		</g>
		<g id="shape20-36" v:mID="20" v:groupContext="shape" transform="translate(78.8431,-124.71)">
			<title>Circle.20</title>
			<desc>+ 2</desc>
			<v:userDefs>
				<v:ud v:nameU="visVersion" v:val="VT0(15):26"/>
			</v:userDefs>
			<v:textBlock v:margins="rect(4,4,4,4)"/>
			<v:textRect cx="24.1072" cy="201.781" width="42.19" height="36.1608"/>
			<path d="M0 201.78 A24.1072 24.1072 0 0 1 48.21 201.78 A24.1072 24.1072 0 1 1 0 201.78 Z" class="st3"/>
			<text x="17.95" y="204.78" class="st4" v:langID="1033"><v:paragraph v:horizAlign="1"/><v:tabList/>+ 2</text>		</g>
		<g id="shape21-39" v:mID="21" v:groupContext="shape" transform="translate(78.8431,-48.7347)">
			<title>Circle.21</title>
			<desc>* 3</desc>
			<v:userDefs>
				<v:ud v:nameU="visVersion" v:val="VT0(15):26"/>
			</v:userDefs>
			<v:textBlock v:margins="rect(4,4,4,4)"/>
			<v:textRect cx="24.1072" cy="201.781" width="42.19" height="36.1608"/>
			<path d="M0 201.78 A24.1072 24.1072 0 0 1 48.21 201.78 A24.1072 24.1072 0 1 1 0 201.78 Z" class="st3"/>
			<text x="17.95" y="204.78" class="st4" v:langID="1033"><v:paragraph v:horizAlign="1"/><v:tabList/>* 3</text>		</g>
		<g id="shape22-42" v:mID="22" v:groupContext="shape" transform="translate(76.9865,-0.75)">
			<title>Rectangle.22</title>
			<desc>y[1]</desc>
			<v:userDefs>
				<v:ud v:nameU="visVersion" v:val="VT0(15):26"/>
			</v:userDefs>
			<v:textBlock v:margins="rect(4,4,4,4)"/>
			<v:textRect cx="26.0786" cy="213.892" width="52.16" height="23.9923"/>
			<rect x="0" y="201.896" width="52.1573" height="23.9923" class="st1"/>
			<text x="18.22" y="216.89" class="st2" v:langID="1033"><v:paragraph v:horizAlign="1"/><v:tabList/>y[1]</text>		</g>
		<g id="shape23-46" v:mID="23" v:groupContext="shape" v:layerMember="0" transform="translate(111.964,-200.916)">
			<title>Dynamic connector.23</title>
			<path d="M-8.99 225.89 L-9.01 246.84" class="st5"/>
		</g>
		<g id="shape24-51" v:mID="24" v:groupContext="shape" v:layerMember="0" transform="translate(93.9503,-124.71)">
			<title>Dynamic connector.24</title>
			<path d="M9 225.89 L9 246.61" class="st5"/>
		</g>
		<g id="shape25-56" v:mID="25" v:groupContext="shape" v:layerMember="0" transform="translate(94.0077,-48.7347)">
			<title>Dynamic connector.25</title>
			<path d="M8.94 225.89 L9.02 242.84" class="st5"/>
		</g>
		<g id="shape33-61" v:mID="33" v:groupContext="shape" transform="translate(148.877,-201.146)">
			<title>Rectangle.33</title>
			<desc>x[2]</desc>
			<v:userDefs>
				<v:ud v:nameU="visVersion" v:val="VT0(15):26"/>
			</v:userDefs>
			<v:textBlock v:margins="rect(4,4,4,4)"/>
			<v:textRect cx="26.0786" cy="213.892" width="52.16" height="23.9923"/>
			<rect x="0" y="201.896" width="52.1573" height="23.9923" class="st1"/>
			<text x="18.31" y="216.89" class="st2" v:langID="1033"><v:paragraph v:horizAlign="1"/><v:tabList/>x[2]</text>		</g>
		<g id="shape34-65" v:mID="34" v:groupContext="shape" transform="translate(150.82,-124.94)">
			<title>Circle.34</title>
			<desc>+ 2</desc>
			<v:userDefs>
				<v:ud v:nameU="visVersion" v:val="VT0(15):26"/>
			</v:userDefs>
			<v:textBlock v:margins="rect(4,4,4,4)"/>
			<v:textRect cx="24.1072" cy="201.781" width="42.19" height="36.1608"/>
			<path d="M0 201.78 A24.1072 24.1072 0 0 1 48.21 201.78 A24.1072 24.1072 0 1 1 0 201.78 Z" class="st3"/>
			<text x="17.95" y="204.78" class="st4" v:langID="1033"><v:paragraph v:horizAlign="1"/><v:tabList/>+ 2</text>		</g>
		<g id="shape35-68" v:mID="35" v:groupContext="shape" transform="translate(150.82,-48.9644)">
			<title>Circle.35</title>
			<desc>* 3</desc>
			<v:userDefs>
				<v:ud v:nameU="visVersion" v:val="VT0(15):26"/>
			</v:userDefs>
			<v:textBlock v:margins="rect(4,4,4,4)"/>
			<v:textRect cx="24.1072" cy="201.781" width="42.19" height="36.1608"/>
			<path d="M0 201.78 A24.1072 24.1072 0 0 1 48.21 201.78 A24.1072 24.1072 0 1 1 0 201.78 Z" class="st3"/>
			<text x="17.95" y="204.78" class="st4" v:langID="1033"><v:paragraph v:horizAlign="1"/><v:tabList/>* 3</text>		</g>
		<g id="shape36-71" v:mID="36" v:groupContext="shape" transform="translate(148.964,-0.979714)">
			<title>Rectangle.36</title>
			<desc>y[2]</desc>
			<v:userDefs>
				<v:ud v:nameU="visVersion" v:val="VT0(15):26"/>
			</v:userDefs>
			<v:textBlock v:margins="rect(4,4,4,4)"/>
			<v:textRect cx="26.0786" cy="213.892" width="52.16" height="23.9923"/>
			<rect x="0" y="201.896" width="52.1573" height="23.9923" class="st1"/>
			<text x="18.22" y="216.89" class="st2" v:langID="1033"><v:paragraph v:horizAlign="1"/><v:tabList/>y[2]</text>		</g>
		<g id="shape37-75" v:mID="37" v:groupContext="shape" v:layerMember="0" transform="translate(183.941,-201.146)">
			<title>Dynamic connector.37</title>
			<path d="M-8.99 225.89 L-9.01 246.84" class="st5"/>
		</g>
		<g id="shape38-80" v:mID="38" v:groupContext="shape" v:layerMember="0" transform="translate(165.927,-124.94)">
			<title>Dynamic connector.38</title>
			<path d="M9 225.89 L9 246.61" class="st5"/>
		</g>
		<g id="shape39-85" v:mID="39" v:groupContext="shape" v:layerMember="0" transform="translate(165.985,-48.9644)">
			<title>Dynamic connector.39</title>
			<path d="M8.94 225.89 L9.02 242.84" class="st5"/>
		</g>
		<g id="shape47-90" v:mID="47" v:groupContext="shape" transform="translate(220.854,-200.916)">
			<title>Rectangle.47</title>
			<desc>x[3]</desc>
			<v:userDefs>
				<v:ud v:nameU="visVersion" v:val="VT0(15):26"/>
			</v:userDefs>
			<v:textBlock v:margins="rect(4,4,4,4)"/>
			<v:textRect cx="26.0786" cy="213.892" width="52.16" height="23.9923"/>
			<rect x="0" y="201.896" width="52.1573" height="23.9923" class="st1"/>
			<text x="18.31" y="216.89" class="st2" v:langID="1033"><v:paragraph v:horizAlign="1"/><v:tabList/>x[3]</text>		</g>
		<g id="shape48-94" v:mID="48" v:groupContext="shape" transform="translate(222.797,-124.71)">
			<title>Circle.48</title>
			<desc>+ 2</desc>
			<v:userDefs>
				<v:ud v:nameU="visVersion" v:val="VT0(15):26"/>
			</v:userDefs>
			<v:textBlock v:margins="rect(4,4,4,4)"/>
			<v:textRect cx="24.1072" cy="201.781" width="42.19" height="36.1608"/>
			<path d="M0 201.78 A24.1072 24.1072 0 0 1 48.21 201.78 A24.1072 24.1072 0 1 1 0 201.78 Z" class="st3"/>
			<text x="17.95" y="204.78" class="st4" v:langID="1033"><v:paragraph v:horizAlign="1"/><v:tabList/>+ 2</text>		</g>
		<g id="shape49-97" v:mID="49" v:groupContext="shape" transform="translate(222.797,-48.7347)">
			<title>Circle.49</title>
			<desc>* 3</desc>
			<v:userDefs>
				<v:ud v:nameU="visVersion" v:val="VT0(15):26"/>
			</v:userDefs>
			<v:textBlock v:margins="rect(4,4,4,4)"/>
			<v:textRect cx="24.1072" cy="201.781" width="42.19" height="36.1608"/>
			<path d="M0 201.78 A24.1072 24.1072 0 0 1 48.21 201.78 A24.1072 24.1072 0 1 1 0 201.78 Z" class="st3"/>
			<text x="17.95" y="204.78" class="st4" v:langID="1033"><v:paragraph v:horizAlign="1"/><v:tabList/>* 3</text>		</g>
		<g id="shape50-100" v:mID="50" v:groupContext="shape" transform="translate(220.941,-0.75)">
			<title>Rectangle.50</title>
			<desc>y[3]</desc>
			<v:userDefs>
				<v:ud v:nameU="visVersion" v:val="VT0(15):26"/>
			</v:userDefs>
			<v:textBlock v:margins="rect(4,4,4,4)"/>
			<v:textRect cx="26.0786" cy="213.892" width="52.16" height="23.9923"/>
			<rect x="0" y="201.896" width="52.1573" height="23.9923" class="st1"/>
			<text x="18.22" y="216.89" class="st2" v:langID="1033"><v:paragraph v:horizAlign="1"/><v:tabList/>y[3]</text>		</g>
		<g id="shape51-104" v:mID="51" v:groupContext="shape" v:layerMember="0" transform="translate(255.918,-200.916)">
			<title>Dynamic connector.51</title>
			<path d="M-8.99 225.89 L-9.01 246.84" class="st5"/>
		</g>
		<g id="shape52-109" v:mID="52" v:groupContext="shape" v:layerMember="0" transform="translate(237.904,-124.71)">
			<title>Dynamic connector.52</title>
			<path d="M9 225.89 L9 246.61" class="st5"/>
		</g>
		<g id="shape53-114" v:mID="53" v:groupContext="shape" v:layerMember="0" transform="translate(237.962,-48.7347)">
			<title>Dynamic connector.53</title>
			<path d="M8.94 225.89 L9.02 242.84" class="st5"/>
		</g>
	</g>
</svg>
