<?xml version="1.0" encoding="UTF-8" standalone="no"?>
<!DOCTYPE svg PUBLIC "-//W3C//DTD SVG 1.1//EN" "http://www.w3.org/Graphics/SVG/1.1/DTD/svg11.dtd">
<!-- Generated by Microsoft Visio, SVG Export wait-for-do-while.svg wait-for-do-while -->
<svg xmlns="http://www.w3.org/2000/svg" xmlns:xlink="http://www.w3.org/1999/xlink" xmlns:ev="http://www.w3.org/2001/xml-events"
		xmlns:v="http://schemas.microsoft.com/visio/2003/SVGExtensions/" width="8.30209in" height="11.7721in"
		viewBox="0 0 597.75 847.591" xml:space="preserve" color-interpolation-filters="sRGB" class="st17">
	<v:documentProperties v:langID="1033" v:viewMarkup="false">
		<v:userDefs>
			<v:ud v:nameU="msvSubprocessMaster" v:prompt="" v:val="VT4(Rectangle)"/>
			<v:ud v:nameU="msvNoAutoConnect" v:val="VT0(1):26"/>
		</v:userDefs>
	</v:documentProperties>

	<style type="text/css">
	<![CDATA[
		.st1 {fill:url(#grad0-4);stroke:#3c63ac;stroke-width:0.75}
		.st2 {fill:#3c63ac;font-family:Calibri;font-size:1.00001em}
		.st3 {stroke:#305497;stroke-width:0.25}
		.st4 {fill:#4672c4;font-family:Calibri;font-size:1.00001em}
		.st5 {font-size:1em}
		.st6 {visibility:visible}
		.st7 {fill:#000000;fill-opacity:0.4;filter:url(#filter_2.6666667461395);stroke:#000000;stroke-opacity:0.4}
		.st8 {fill:#ffffff;stroke:#e8ebef;stroke-width:0.75}
		.st9 {fill:#4672c4;stroke:#c7c8c8;stroke-width:0.25}
		.st10 {fill:#ffffff;stroke:#ebeff5;stroke-width:0.75}
		.st11 {fill:#feffff;font-family:Calibri;font-size:0.833336em}
		.st12 {fill:#3c63ac;stroke:#31528f;stroke-width:0.75}
		.st13 {marker-end:url(#mrkr4-150);stroke:#4672c4;stroke-linecap:round;stroke-linejoin:round;stroke-width:1}
		.st14 {fill:#4672c4;fill-opacity:1;stroke:#4672c4;stroke-opacity:1;stroke-width:0.28409090909091}
		.st15 {fill:none;stroke:none;stroke-width:0.25}
		.st16 {fill:#4672c4;font-family:Calibri;font-size:1.00001em;font-style:italic}
		.st17 {fill:none;fill-rule:evenodd;font-size:12px;overflow:visible;stroke-linecap:square;stroke-miterlimit:3}
	]]>
	</style>

	<defs id="Patterns_And_Gradients">
		<linearGradient id="grad0-4" x1="0" y1="0" x2="1" y2="0" gradientTransform="rotate(60 0.5 0.5)">
			<stop offset="0" stop-color="#e8ebf4" stop-opacity="1"/>
			<stop offset="0.24" stop-color="#f4f5f9" stop-opacity="1"/>
			<stop offset="0.54" stop-color="#feffff" stop-opacity="1"/>
		</linearGradient>
	</defs>
	<defs id="Markers">
		<g id="lend4">
			<path d="M 2 1 L 0 0 L 2 -1 L 2 1 " style="stroke:none"/>
		</g>
		<marker id="mrkr4-150" class="st14" v:arrowType="4" v:arrowSize="2" v:setback="7.04" refX="-7.04" orient="auto"
				markerUnits="strokeWidth" overflow="visible">
			<use xlink:href="#lend4" transform="scale(-3.52,-3.52) "/>
		</marker>
	</defs>
	<defs id="Filters">
		<filter id="filter_2.6666667461395">
			<feGaussianBlur stdDeviation="2.6666667461395"/>
		</filter>
	</defs>
	<g v:mID="34" v:index="3" v:groupContext="foregroundPage">
		<v:userDefs>
			<v:ud v:nameU="msvThemeOrder" v:val="VT0(0):26"/>
		</v:userDefs>
		<title>wait-for-do-while</title>
		<v:pageProperties v:drawingScale="1" v:pageScale="1" v:drawingUnits="0" v:shadowOffsetX="9" v:shadowOffsetY="-9"/>
		<v:layer v:name="Connector" v:index="0"/>
		<v:layer v:name="Flowchart" v:index="1"/>
		<g id="shape11-1" v:mID="11" v:groupContext="shape" transform="translate(52.4533,-781.591)">
			<title>Rectangle</title>
			<desc>Before Loop</desc>
			<v:userDefs>
				<v:ud v:nameU="visVersion" v:val="VT0(15):26"/>
			</v:userDefs>
			<v:textBlock v:margins="rect(4,4,4,4)"/>
			<v:textRect cx="126" cy="823.966" width="252" height="47.25"/>
			<rect x="0" y="800.341" width="252" height="47.25" class="st1"/>
			<text x="96.32" y="827.57" class="st2" v:langID="1033"><v:paragraph v:horizAlign="1"/><v:tabList/>Before Loop</text>		</g>
		<g id="shape27-6" v:mID="27" v:groupContext="shape" transform="translate(-336.372,649.591) rotate(-90) scale(-1,1)">
			<title>Side brace.27</title>
			<desc>Backward Link FIFO</desc>
			<v:userDefs>
				<v:ud v:nameU="TxtW" v:val="VT0(0.55555555555556):29"/>
				<v:ud v:nameU="TxtA" v:val="VT0(1.5707963267949):32"/>
				<v:ud v:nameU="TxtAState" v:val="VT0(0):26"/>
				<v:ud v:nameU="TxtWState" v:val="VT0(0):26"/>
				<v:ud v:nameU="MaxRadius" v:val="VT0(0.25):1"/>
				<v:ud v:nameU="PosCH1" v:prompt="Constrains X position of Control Handle #1" v:val="VT0(0):26"/>
				<v:ud v:nameU="PosCH2" v:prompt="Constrains Y position of Control Handle #2" v:val="VT0(0):26"/>
				<v:ud v:nameU="Scale" v:val="VT0(1):26"/>
				<v:ud v:nameU="AntiScale" v:val="VT0(1):26"/>
				<v:ud v:nameU="visVersion" v:val="VT0(15):26"/>
				<v:ud v:nameU="TxtW" v:prompt="" v:val="VT0(0.83333333333333):29"/>
				<v:ud v:nameU="MaxRadius" v:prompt="" v:val="VT0(0.27343781908241):1"/>
			</v:userDefs>
			<v:textBlock v:margins="rect(4,4,4,4)"/>
			<v:textRect cx="49.3125" cy="886.122" width="60" height="36.8038" transform="rotate(90)"/>
			<path d="M0 827.9 L0 839.06 A8.53117 8.53117 -180 0 0 8.53 847.59 L40.78 847.59 A8.53117 8.53117 0 0 1 49.31 856.12 A8.53117
						 8.53117 0 0 1 57.84 847.59 L91.78 847.59 A8.53117 8.53117 -180 0 0 100.31 839.06 L100.31 827.9"
					class="st3"/>
			<text x="862.31" y="45.71" transform="rotate(-90) scale(-1,1)" class="st4" v:langID="1033"><v:paragraph
						v:horizAlign="1"/><v:tabList/>Backward <tspan x="863.99" dy="1.2em" class="st5">Link FIFO</tspan></text>		</g>
		<g id="group1002-11" transform="translate(365.127,-93)" v:mID="1002" v:groupContext="group">
			<title>Sheet.1002</title>
			<g id="shape1003-12" v:mID="1003" v:groupContext="shape" transform="translate(-1.59872E-14,-2.0941)">
				<title>Rectangle.29</title>
				<v:userDefs>
					<v:ud v:nameU="visVersion" v:val="VT0(15):26"/>
				</v:userDefs>
				<g id="shadow1003-13" v:groupContext="shadow" v:shadowOffsetX="2.12132" v:shadowOffsetY="-2.12132" v:shadowType="1"
						transform="matrix(1,0,0,1,2.12132,2.12132)" class="st6">
					<rect x="0" y="746.094" width="101.497" height="101.497" class="st7"/>
				</g>
				<rect x="0" y="746.094" width="101.497" height="101.497" class="st8"/>
			</g>
			<g id="shape1004-17" v:mID="1004" v:groupContext="shape">
				<title>Rectangle.2</title>
				<v:userDefs>
					<v:ud v:nameU="visVersion" v:val="VT0(15):26"/>
				</v:userDefs>
				<g id="shadow1004-18" v:groupContext="shadow" v:shadowOffsetX="2.12132" v:shadowOffsetY="-2.12132" v:shadowType="1"
						transform="matrix(1,0,0,1,2.12132,2.12132)" class="st6">
					<rect x="0" y="830.675" width="101.497" height="16.9162" class="st7"/>
				</g>
				<rect x="0" y="830.675" width="101.497" height="16.9162" class="st9"/>
			</g>
			<g id="shape1005-22" v:mID="1005" v:groupContext="shape" transform="translate(-1.59872E-14,-16.9162)">
				<title>Rectangle.3</title>
				<v:userDefs>
					<v:ud v:nameU="visVersion" v:val="VT0(15):26"/>
				</v:userDefs>
				<g id="shadow1005-23" v:groupContext="shadow" v:shadowOffsetX="2.12132" v:shadowOffsetY="-2.12132" v:shadowType="1"
						transform="matrix(1,0,0,1,2.12132,2.12132)" class="st6">
					<rect x="0" y="830.675" width="101.497" height="16.9162" class="st7"/>
				</g>
				<rect x="0" y="830.675" width="101.497" height="16.9162" class="st9"/>
			</g>
			<g id="shape1006-27" v:mID="1006" v:groupContext="shape" transform="translate(-1.59872E-14,-86.675)">
				<title>Rectangle.7</title>
				<v:userDefs>
					<v:ud v:nameU="visVersion" v:val="VT0(15):26"/>
				</v:userDefs>
				<g id="shadow1006-28" v:groupContext="shadow" v:shadowOffsetX="2.12132" v:shadowOffsetY="-2.12132" v:shadowType="1"
						transform="matrix(1,0,0,1,2.12132,2.12132)" class="st6">
					<rect x="0" y="830.675" width="101.497" height="16.9162" class="st7"/>
				</g>
				<rect x="0" y="830.675" width="101.497" height="16.9162" class="st10"/>
			</g>
			<g id="shape1007-32" v:mID="1007" v:groupContext="shape" transform="translate(-1.59872E-14,-69.1669)">
				<title>Rectangle.36</title>
				<v:userDefs>
					<v:ud v:nameU="visVersion" v:val="VT0(15):26"/>
				</v:userDefs>
				<g id="shadow1007-33" v:groupContext="shadow" v:shadowOffsetX="2.12132" v:shadowOffsetY="-2.12132" v:shadowType="1"
						transform="matrix(1,0,0,1,2.12132,2.12132)" class="st6">
					<rect x="0" y="830.675" width="101.497" height="16.9162" class="st7"/>
				</g>
				<rect x="0" y="830.675" width="101.497" height="16.9162" class="st10"/>
			</g>
			<g id="shape1008-37" v:mID="1008" v:groupContext="shape" transform="translate(-1.59872E-14,-51.7088)">
				<title>Rectangle.37</title>
				<v:userDefs>
					<v:ud v:nameU="visVersion" v:val="VT0(15):26"/>
				</v:userDefs>
				<g id="shadow1008-38" v:groupContext="shadow" v:shadowOffsetX="2.12132" v:shadowOffsetY="-2.12132" v:shadowType="1"
						transform="matrix(1,0,0,1,2.12132,2.12132)" class="st6">
					<rect x="0" y="830.675" width="101.497" height="16.9162" class="st7"/>
				</g>
				<rect x="0" y="830.675" width="101.497" height="16.9162" class="st10"/>
			</g>
		</g>
		<g id="shape1009-42" v:mID="1009" v:groupContext="shape" transform="translate(365.127,-127.292)">
			<title>Rectangle.1009</title>
			<v:userDefs>
				<v:ud v:nameU="visVersion" v:val="VT0(15):26"/>
			</v:userDefs>
			<g id="shadow1009-43" v:groupContext="shadow" v:shadowOffsetX="2.12132" v:shadowOffsetY="-2.12132" v:shadowType="1"
					transform="matrix(1,0,0,1,2.12132,2.12132)" class="st6">
				<rect x="0" y="830.675" width="101.497" height="16.9162" class="st7"/>
			</g>
			<rect x="0" y="830.675" width="101.497" height="16.9162" class="st10"/>
		</g>
		<g id="shape1012-47" v:mID="1012" v:groupContext="shape" transform="translate(-579.372,114.935) rotate(-90) scale(-1,1)">
			<title>Side brace</title>
			<desc>Loop Entry FIFO</desc>
			<v:userDefs>
				<v:ud v:nameU="TxtW" v:val="VT0(0.55555555555556):29"/>
				<v:ud v:nameU="TxtA" v:val="VT0(1.5707963267949):32"/>
				<v:ud v:nameU="TxtAState" v:val="VT0(0):26"/>
				<v:ud v:nameU="TxtWState" v:val="VT0(0):26"/>
				<v:ud v:nameU="MaxRadius" v:val="VT0(0.25):1"/>
				<v:ud v:nameU="PosCH1" v:prompt="Constrains X position of Control Handle #1" v:val="VT0(0):26"/>
				<v:ud v:nameU="PosCH2" v:prompt="Constrains Y position of Control Handle #2" v:val="VT0(0):26"/>
				<v:ud v:nameU="Scale" v:val="VT0(1):26"/>
				<v:ud v:nameU="AntiScale" v:val="VT0(1):26"/>
				<v:ud v:nameU="visVersion" v:val="VT0(15):26"/>
				<v:ud v:nameU="TxtW" v:prompt="" v:val="VT0(0.83333333333333):29"/>
				<v:ud v:nameU="MaxRadius" v:prompt="" v:val="VT0(0.27343781908241):1"/>
			</v:userDefs>
			<v:textBlock v:margins="rect(4,4,4,4)"/>
			<v:textRect cx="49.2187" cy="886.122" width="60" height="36.8038" transform="rotate(90)"/>
			<path d="M0 827.9 L0 839.06 A8.53117 8.53117 -180 0 0 8.53 847.59 L40.69 847.59 A8.53117 8.53117 0 0 1 49.22 856.12 A8.53117
						 8.53117 0 0 1 57.75 847.59 L91.78 847.59 A8.53117 8.53117 -180 0 0 100.31 839.06 L100.31 827.9"
					class="st3"/>
			<text x="874.12" y="45.62" transform="rotate(-90) scale(-1,1)" class="st4" v:langID="1033"><v:paragraph
						v:horizAlign="1"/><v:tabList/>Loop <tspan x="860.87" dy="1.2em" class="st5">Entry FIFO</tspan></text>		</g>
		<g id="group1013-52" transform="translate(127.705,-630.091)" v:mID="1013" v:groupContext="group">
			<title>Sheet.1013</title>
			<g id="shape1014-53" v:mID="1014" v:groupContext="shape" transform="translate(-1.59872E-14,-2.0941)">
				<title>Rectangle.29</title>
				<v:userDefs>
					<v:ud v:nameU="visVersion" v:val="VT0(15):26"/>
				</v:userDefs>
				<g id="shadow1014-54" v:groupContext="shadow" v:shadowOffsetX="2.12132" v:shadowOffsetY="-2.12132" v:shadowType="1"
						transform="matrix(1,0,0,1,2.12132,2.12132)" class="st6">
					<rect x="0" y="746.094" width="101.497" height="101.497" class="st7"/>
				</g>
				<rect x="0" y="746.094" width="101.497" height="101.497" class="st8"/>
			</g>
			<g id="shape1015-58" v:mID="1015" v:groupContext="shape">
				<title>Rectangle.2</title>
				<v:userDefs>
					<v:ud v:nameU="visVersion" v:val="VT0(15):26"/>
				</v:userDefs>
				<g id="shadow1015-59" v:groupContext="shadow" v:shadowOffsetX="2.12132" v:shadowOffsetY="-2.12132" v:shadowType="1"
						transform="matrix(1,0,0,1,2.12132,2.12132)" class="st6">
					<rect x="0" y="830.675" width="101.497" height="16.9162" class="st7"/>
				</g>
				<rect x="0" y="830.675" width="101.497" height="16.9162" class="st9"/>
			</g>
			<g id="shape1016-63" v:mID="1016" v:groupContext="shape" transform="translate(-1.59872E-14,-16.9162)">
				<title>Rectangle.3</title>
				<v:userDefs>
					<v:ud v:nameU="visVersion" v:val="VT0(15):26"/>
				</v:userDefs>
				<g id="shadow1016-64" v:groupContext="shadow" v:shadowOffsetX="2.12132" v:shadowOffsetY="-2.12132" v:shadowType="1"
						transform="matrix(1,0,0,1,2.12132,2.12132)" class="st6">
					<rect x="0" y="830.675" width="101.497" height="16.9162" class="st7"/>
				</g>
				<rect x="0" y="830.675" width="101.497" height="16.9162" class="st9"/>
			</g>
			<g id="shape1017-68" v:mID="1017" v:groupContext="shape" transform="translate(-1.59872E-14,-86.675)">
				<title>Rectangle.7</title>
				<v:userDefs>
					<v:ud v:nameU="visVersion" v:val="VT0(15):26"/>
				</v:userDefs>
				<g id="shadow1017-69" v:groupContext="shadow" v:shadowOffsetX="2.12132" v:shadowOffsetY="-2.12132" v:shadowType="1"
						transform="matrix(1,0,0,1,2.12132,2.12132)" class="st6">
					<rect x="0" y="830.675" width="101.497" height="16.9162" class="st7"/>
				</g>
				<rect x="0" y="830.675" width="101.497" height="16.9162" class="st10"/>
			</g>
			<g id="shape1018-73" v:mID="1018" v:groupContext="shape" transform="translate(-1.59872E-14,-69.1669)">
				<title>Rectangle.36</title>
				<v:userDefs>
					<v:ud v:nameU="visVersion" v:val="VT0(15):26"/>
				</v:userDefs>
				<g id="shadow1018-74" v:groupContext="shadow" v:shadowOffsetX="2.12132" v:shadowOffsetY="-2.12132" v:shadowType="1"
						transform="matrix(1,0,0,1,2.12132,2.12132)" class="st6">
					<rect x="0" y="830.675" width="101.497" height="16.9162" class="st7"/>
				</g>
				<rect x="0" y="830.675" width="101.497" height="16.9162" class="st10"/>
			</g>
			<g id="shape1019-78" v:mID="1019" v:groupContext="shape" transform="translate(-1.59872E-14,-51.7088)">
				<title>Rectangle.37</title>
				<v:userDefs>
					<v:ud v:nameU="visVersion" v:val="VT0(15):26"/>
				</v:userDefs>
				<g id="shadow1019-79" v:groupContext="shadow" v:shadowOffsetX="2.12132" v:shadowOffsetY="-2.12132" v:shadowType="1"
						transform="matrix(1,0,0,1,2.12132,2.12132)" class="st6">
					<rect x="0" y="830.675" width="101.497" height="16.9162" class="st7"/>
				</g>
				<rect x="0" y="830.675" width="101.497" height="16.9162" class="st10"/>
			</g>
		</g>
		<g id="shape1020-83" v:mID="1020" v:groupContext="shape" transform="translate(127.705,-664.383)">
			<title>Rectangle.7</title>
			<v:userDefs>
				<v:ud v:nameU="visVersion" v:val="VT0(15):26"/>
			</v:userDefs>
			<g id="shadow1020-84" v:groupContext="shadow" v:shadowOffsetX="2.12132" v:shadowOffsetY="-2.12132" v:shadowType="1"
					transform="matrix(1,0,0,1,2.12132,2.12132)" class="st6">
				<rect x="0" y="830.675" width="101.497" height="16.9162" class="st7"/>
			</g>
			<rect x="0" y="830.675" width="101.497" height="16.9162" class="st10"/>
		</g>
		<g id="shape1022-88" v:mID="1022" v:groupContext="shape" transform="translate(934.122,754.591) rotate(90) scale(-1,1)">
			<title>Side brace.1022</title>
			<desc>Loop Exit FIFO/Reorder Buffer</desc>
			<v:userDefs>
				<v:ud v:nameU="TxtW" v:val="VT0(0.55555555555556):29"/>
				<v:ud v:nameU="TxtA" v:val="VT0(1.5707963267949):32"/>
				<v:ud v:nameU="TxtAState" v:val="VT0(0):26"/>
				<v:ud v:nameU="TxtWState" v:val="VT0(0):26"/>
				<v:ud v:nameU="MaxRadius" v:val="VT0(0.25):1"/>
				<v:ud v:nameU="PosCH1" v:prompt="Constrains X position of Control Handle #1" v:val="VT0(0):26"/>
				<v:ud v:nameU="PosCH2" v:prompt="Constrains Y position of Control Handle #2" v:val="VT0(0):26"/>
				<v:ud v:nameU="Scale" v:val="VT0(1):26"/>
				<v:ud v:nameU="AntiScale" v:val="VT0(1):26"/>
				<v:ud v:nameU="visVersion" v:val="VT0(15):26"/>
				<v:ud v:nameU="TxtW" v:prompt="" v:val="VT0(0.83333333333333):29"/>
				<v:ud v:nameU="TxtA" v:prompt="" v:val="VT0(-1.5707963267949):32"/>
				<v:ud v:nameU="MaxRadius" v:prompt="" v:val="VT0(0.27343781908241):1"/>
			</v:userDefs>
			<v:textBlock v:margins="rect(4,4,4,4)"/>
			<v:textRect cx="49.2187" cy="886.122" width="60" height="65.604" transform="rotate(-90)"/>
			<path d="M0 827.9 L0 839.06 A8.53117 8.53117 -180 0 0 8.53 847.59 L40.69 847.59 A8.53117 8.53117 0 0 1 49.22 856.12 A8.53117
						 8.53117 0 0 1 57.75 847.59 L91.78 847.59 A8.53117 8.53117 -180 0 0 100.31 839.06 L100.31 827.9"
					class="st3"/>
			<text x="-908.4" y="-67.22" transform="rotate(90) scale(-1,1)" class="st4" v:langID="1033"><v:paragraph
						v:horizAlign="1"/><v:tabList/>Loop Exit <tspan x="-899.44" dy="1.2em" class="st5">FIFO/</tspan><tspan
						x="-905.85" dy="1.2em" class="st5">Reorder </tspan><tspan x="-901.28" dy="1.2em" class="st5">Buffer</tspan></text>		</g>
		<g id="group1023-95" transform="translate(127.696,-93)" v:mID="1023" v:groupContext="group">
			<title>Sheet.1023</title>
			<g id="shape1024-96" v:mID="1024" v:groupContext="shape" transform="translate(-1.59872E-14,-2.0941)">
				<title>Rectangle.29</title>
				<v:userDefs>
					<v:ud v:nameU="visVersion" v:val="VT0(15):26"/>
				</v:userDefs>
				<g id="shadow1024-97" v:groupContext="shadow" v:shadowOffsetX="2.12132" v:shadowOffsetY="-2.12132" v:shadowType="1"
						transform="matrix(1,0,0,1,2.12132,2.12132)" class="st6">
					<rect x="0" y="746.094" width="101.497" height="101.497" class="st7"/>
				</g>
				<rect x="0" y="746.094" width="101.497" height="101.497" class="st8"/>
			</g>
			<g id="shape1025-101" v:mID="1025" v:groupContext="shape">
				<title>Rectangle.2</title>
				<v:userDefs>
					<v:ud v:nameU="visVersion" v:val="VT0(15):26"/>
				</v:userDefs>
				<g id="shadow1025-102" v:groupContext="shadow" v:shadowOffsetX="2.12132" v:shadowOffsetY="-2.12132"
						v:shadowType="1" transform="matrix(1,0,0,1,2.12132,2.12132)" class="st6">
					<rect x="0" y="830.675" width="101.497" height="16.9162" class="st7"/>
				</g>
				<rect x="0" y="830.675" width="101.497" height="16.9162" class="st9"/>
			</g>
			<g id="shape1026-106" v:mID="1026" v:groupContext="shape" transform="translate(-1.59872E-14,-16.9162)">
				<title>Rectangle.3</title>
				<v:userDefs>
					<v:ud v:nameU="visVersion" v:val="VT0(15):26"/>
				</v:userDefs>
				<g id="shadow1026-107" v:groupContext="shadow" v:shadowOffsetX="2.12132" v:shadowOffsetY="-2.12132"
						v:shadowType="1" transform="matrix(1,0,0,1,2.12132,2.12132)" class="st6">
					<rect x="0" y="830.675" width="101.497" height="16.9162" class="st7"/>
				</g>
				<rect x="0" y="830.675" width="101.497" height="16.9162" class="st9"/>
			</g>
			<g id="shape1027-111" v:mID="1027" v:groupContext="shape" transform="translate(-1.59872E-14,-86.675)">
				<title>Rectangle.7</title>
				<v:userDefs>
					<v:ud v:nameU="visVersion" v:val="VT0(15):26"/>
				</v:userDefs>
				<g id="shadow1027-112" v:groupContext="shadow" v:shadowOffsetX="2.12132" v:shadowOffsetY="-2.12132"
						v:shadowType="1" transform="matrix(1,0,0,1,2.12132,2.12132)" class="st6">
					<rect x="0" y="830.675" width="101.497" height="16.9162" class="st7"/>
				</g>
				<rect x="0" y="830.675" width="101.497" height="16.9162" class="st10"/>
			</g>
			<g id="shape1028-116" v:mID="1028" v:groupContext="shape" transform="translate(-1.59872E-14,-69.1669)">
				<title>Rectangle.36</title>
				<v:userDefs>
					<v:ud v:nameU="visVersion" v:val="VT0(15):26"/>
				</v:userDefs>
				<g id="shadow1028-117" v:groupContext="shadow" v:shadowOffsetX="2.12132" v:shadowOffsetY="-2.12132"
						v:shadowType="1" transform="matrix(1,0,0,1,2.12132,2.12132)" class="st6">
					<rect x="0" y="830.675" width="101.497" height="16.9162" class="st7"/>
				</g>
				<rect x="0" y="830.675" width="101.497" height="16.9162" class="st10"/>
			</g>
			<g id="shape1029-121" v:mID="1029" v:groupContext="shape" transform="translate(-1.59872E-14,-51.7088)">
				<title>Rectangle.37</title>
				<v:userDefs>
					<v:ud v:nameU="visVersion" v:val="VT0(15):26"/>
				</v:userDefs>
				<g id="shadow1029-122" v:groupContext="shadow" v:shadowOffsetX="2.12132" v:shadowOffsetY="-2.12132"
						v:shadowType="1" transform="matrix(1,0,0,1,2.12132,2.12132)" class="st6">
					<rect x="0" y="830.675" width="101.497" height="16.9162" class="st7"/>
				</g>
				<rect x="0" y="830.675" width="101.497" height="16.9162" class="st10"/>
			</g>
		</g>
		<g id="shape1030-126" v:mID="1030" v:groupContext="shape" transform="translate(127.859,-127.292)">
			<title>Rectangle.1030</title>
			<v:userDefs>
				<v:ud v:nameU="visVersion" v:val="VT0(15):26"/>
			</v:userDefs>
			<g id="shadow1030-127" v:groupContext="shadow" v:shadowOffsetX="2.12132" v:shadowOffsetY="-2.12132" v:shadowType="1"
					transform="matrix(1,0,0,1,2.12132,2.12132)" class="st6">
				<rect x="0" y="830.675" width="101.497" height="16.9162" class="st7"/>
			</g>
			<rect x="0" y="830.675" width="101.497" height="16.9162" class="st10"/>
		</g>
		<g id="shape1031-131" v:mID="1031" v:groupContext="shape" transform="translate(127.705,1101.09) scale(1,-1)">
			<title>Trapezoid.1118</title>
			<desc>Mux</desc>
			<v:userDefs>
				<v:ud v:nameU="visVersion" v:prompt="" v:val="VT0(15):26"/>
			</v:userDefs>
			<v:textBlock v:margins="rect(4,4,4,4)"/>
			<v:textRect cx="48.6243" cy="832.396" width="97.25" height="30.3902"/>
			<path d="M0 847.59 L97.25 847.59 L80.53 817.2 L16.71 817.2 L0 847.59 Z" class="st9"/>
			<text x="39.56" y="-829.4" transform="scale(1,-1)" class="st11" v:langID="1033"><v:paragraph v:horizAlign="1"/><v:tabList/>Mux</text>		</g>
		<g id="shape1032-134" v:mID="1032" v:groupContext="shape" transform="translate(52.4533,-483.841)">
			<title>Rectangle.1032</title>
			<desc>Loop Body</desc>
			<v:userDefs>
				<v:ud v:nameU="visVersion" v:val="VT0(15):26"/>
			</v:userDefs>
			<v:textBlock v:margins="rect(4,4,4,4)"/>
			<v:textRect cx="126" cy="823.966" width="252" height="47.25"/>
			<rect x="0" y="800.341" width="252" height="47.25" class="st1"/>
			<text x="100.34" y="827.57" class="st2" v:langID="1033"><v:paragraph v:horizAlign="1"/><v:tabList/>Loop Body</text>		</g>
		<g id="shape1033-138" v:mID="1033" v:groupContext="shape" transform="translate(52.4533,-18.75)">
			<title>Rectangle.1033</title>
			<desc>After Loop</desc>
			<v:userDefs>
				<v:ud v:nameU="visVersion" v:val="VT0(15):26"/>
			</v:userDefs>
			<v:textBlock v:margins="rect(4,4,4,4)"/>
			<v:textRect cx="126" cy="823.966" width="252" height="47.25"/>
			<rect x="0" y="800.341" width="252" height="47.25" class="st1"/>
			<text x="100.25" y="827.57" class="st2" v:langID="1033"><v:paragraph v:horizAlign="1"/><v:tabList/>After Loop</text>		</g>
		<g id="shape1034-142" v:mID="1034" v:groupContext="shape" v:layerMember="1" transform="translate(151.444,-228)">
			<title>Decision.1119</title>
			<desc>Loop Condition</desc>
			<v:custProps>
				<v:cp v:nameU="Cost" v:lbl="Cost" v:prompt="" v:type="7" v:format="@" v:sortKey="" v:invis="false" v:ask="false"
						v:langID="1033" v:cal="0"/>
				<v:cp v:nameU="ProcessNumber" v:lbl="Process Number" v:prompt="" v:type="2" v:format="" v:sortKey=""
						v:invis="false" v:ask="false" v:langID="1033" v:cal="0"/>
				<v:cp v:nameU="Owner" v:lbl="Owner" v:prompt="" v:type="0" v:format="" v:sortKey="" v:invis="false" v:ask="false"
						v:langID="1033" v:cal="0"/>
				<v:cp v:nameU="Function" v:lbl="Function" v:prompt="" v:type="0" v:format="" v:sortKey="" v:invis="false"
						v:ask="false" v:langID="1033" v:cal="0" v:val="VT4()"/>
				<v:cp v:nameU="StartDate" v:lbl="Start Date" v:prompt="" v:type="5" v:format="" v:sortKey="" v:invis="false"
						v:ask="false" v:langID="1033" v:cal="0"/>
				<v:cp v:nameU="EndDate" v:lbl="End Date" v:prompt="" v:type="5" v:format="" v:sortKey="" v:invis="false"
						v:ask="false" v:langID="1033" v:cal="0"/>
				<v:cp v:nameU="Status" v:lbl="Status" v:prompt="" v:type="4"
						v:format=";Not Started;In Progress;Completed;Deferred;Waiting on Input" v:sortKey="" v:invis="false"
						v:ask="false" v:langID="1033" v:cal="0" v:val="VT4()"/>
			</v:custProps>
			<v:userDefs>
				<v:ud v:nameU="visVersion" v:prompt="" v:val="VT0(15):26"/>
				<v:ud v:nameU="DefaultWidth" v:prompt="" v:val="VT0(1):0"/>
				<v:ud v:nameU="DefaultHeight" v:prompt="" v:val="VT0(0.75):0"/>
				<v:ud v:nameU="ResizeTxtHeight" v:prompt="" v:val="VT0(0.75):0"/>
			</v:userDefs>
			<v:textBlock v:margins="rect(2,2,2,2)"/>
			<v:textRect cx="-62.9999" cy="827.904" width="108.01" height="30.375"/>
			<path d="M0 827.34 L27 807.09 L54 827.34 L27 847.59 L0 827.34 Z" class="st12"/>
			<text x="-100.11" y="831.5" class="st4" v:langID="1033"><v:paragraph v:horizAlign="1"/><v:tabList/>Loop Condition</text>		</g>
		<g id="shape1036-145" v:mID="1036" v:groupContext="shape" v:layerMember="0" transform="translate(205.444,-248.25)">
			<title>Dynamic connector</title>
			<path d="M0 847.59 L210.43 847.59 L210.43 892.21" class="st13"/>
		</g>
		<g id="shape1037-151" v:mID="1037" v:groupContext="shape" v:layerMember="0" transform="translate(415.875,-93)">
			<title>Dynamic connector.1037</title>
			<path d="M0 847.59 L0 861.09 L160.12 861.09 L160.12 333 L-215.23 333 L-215.23 339.46" class="st13"/>
		</g>
		<g id="shape1038-156" v:mID="1038" v:groupContext="shape" v:layerMember="0" transform="translate(178.453,-632.185)">
			<title>Dynamic connector.1038</title>
			<path d="M0 847.59 L0 861.09 L-26.44 861.09 L-26.44 878.65" class="st13"/>
		</g>
		<g id="shape1109-161" v:mID="1109" v:groupContext="shape" v:layerMember="0" transform="translate(185.224,-563.701)">
			<title>Dynamic connector.1109</title>
			<path d="M-8.89 847.59 L-9.06 873.16" class="st13"/>
		</g>
		<g id="shape1111-166" v:mID="1111" v:groupContext="shape" v:layerMember="0" transform="translate(169.444,-228)">
			<title>Dynamic connector.1111</title>
			<path d="M9 847.59 L9 847.59 L9 871.96" class="st13"/>
		</g>
		<g id="shape1112-171" v:mID="1112" v:groupContext="shape" v:layerMember="0" transform="translate(169.449,-95.0941)">
			<title>Dynamic connector.1112</title>
			<path d="M9 847.59 L9 861.09 L9 861.09 L9 869.65" class="st13"/>
		</g>
		<g id="shape1113-176" v:mID="1113" v:groupContext="shape" transform="translate(435.844,-612.75)">
			<title>Sheet.1113</title>
			<desc>Looped-back Threads</desc>
			<v:textBlock v:margins="rect(4,4,4,4)"/>
			<v:textRect cx="63" cy="840.841" width="126" height="13.5"/>
			<rect x="0" y="834.091" width="126" height="13.5" class="st15"/>
			<text x="4" y="844.44" class="st16" v:langID="1033"><v:paragraph/><v:tabList/>Looped-back Threads</text>		</g>
		<g id="shape1114-179" v:mID="1114" v:groupContext="shape" v:layerMember="0" transform="translate(187.453,-781.591)">
			<title>Dynamic connector.1114</title>
			<path d="M-9 847.59 L-9 888.46" class="st13"/>
		</g>
		<g id="shape1133-184" v:mID="1133" v:groupContext="shape" transform="translate(-563.637,379.824) rotate(-90) scale(-1,1)">
			<title>Side brace.1133</title>
			<desc>Context FIFO</desc>
			<v:userDefs>
				<v:ud v:nameU="TxtW" v:val="VT0(0.55555555555556):29"/>
				<v:ud v:nameU="TxtA" v:val="VT0(1.5707963267949):32"/>
				<v:ud v:nameU="TxtAState" v:val="VT0(0):26"/>
				<v:ud v:nameU="TxtWState" v:val="VT0(0):26"/>
				<v:ud v:nameU="MaxRadius" v:val="VT0(0.25):1"/>
				<v:ud v:nameU="PosCH1" v:prompt="Constrains X position of Control Handle #1" v:val="VT0(0):26"/>
				<v:ud v:nameU="PosCH2" v:prompt="Constrains Y position of Control Handle #2" v:val="VT0(0):26"/>
				<v:ud v:nameU="Scale" v:val="VT0(1):26"/>
				<v:ud v:nameU="AntiScale" v:val="VT0(1):26"/>
				<v:ud v:nameU="visVersion" v:val="VT0(15):26"/>
				<v:ud v:nameU="TxtW" v:prompt="" v:val="VT0(0.83333333333333):29"/>
				<v:ud v:nameU="MaxRadius" v:prompt="" v:val="VT0(0.27343781908241):1"/>
			</v:userDefs>
			<v:textBlock v:margins="rect(4,4,4,4)"/>
			<v:textRect cx="49.2187" cy="886.122" width="60" height="36.8038" transform="rotate(90)"/>
			<path d="M0 827.9 L0 839.06 A8.53117 8.53117 -180 0 0 8.53 847.59 L40.69 847.59 A8.53117 8.53117 0 0 1 49.22 856.12 A8.53117
						 8.53117 0 0 1 57.75 847.59 L91.78 847.59 A8.53117 8.53117 -180 0 0 100.31 839.06 L100.31 827.9"
					class="st3"/>
			<text x="867" y="45.62" transform="rotate(-90) scale(-1,1)" class="st4" v:langID="1033"><v:paragraph v:horizAlign="1"/><v:tabList/>Context<v:newlineChar/><tspan
						x="875.12" dy="1.2em" class="st5">FIFO</tspan></text>		</g>
		<g id="group1134-189" transform="translate(128.861,-367.454)" v:mID="1134" v:groupContext="group">
			<title>Sheet.1134</title>
			<g id="shape1135-190" v:mID="1135" v:groupContext="shape" transform="translate(-1.59872E-14,-2.0941)">
				<title>Rectangle.29</title>
				<v:userDefs>
					<v:ud v:nameU="visVersion" v:val="VT0(15):26"/>
				</v:userDefs>
				<g id="shadow1135-191" v:groupContext="shadow" v:shadowOffsetX="2.12132" v:shadowOffsetY="-2.12132"
						v:shadowType="1" transform="matrix(1,0,0,1,2.12132,2.12132)" class="st6">
					<rect x="0" y="746.094" width="101.497" height="101.497" class="st7"/>
				</g>
				<rect x="0" y="746.094" width="101.497" height="101.497" class="st8"/>
			</g>
			<g id="shape1136-195" v:mID="1136" v:groupContext="shape">
				<title>Rectangle.2</title>
				<v:userDefs>
					<v:ud v:nameU="visVersion" v:val="VT0(15):26"/>
				</v:userDefs>
				<g id="shadow1136-196" v:groupContext="shadow" v:shadowOffsetX="2.12132" v:shadowOffsetY="-2.12132"
						v:shadowType="1" transform="matrix(1,0,0,1,2.12132,2.12132)" class="st6">
					<rect x="0" y="830.675" width="101.497" height="16.9162" class="st7"/>
				</g>
				<rect x="0" y="830.675" width="101.497" height="16.9162" class="st9"/>
			</g>
			<g id="shape1137-200" v:mID="1137" v:groupContext="shape" transform="translate(-1.59872E-14,-16.9162)">
				<title>Rectangle.3</title>
				<v:userDefs>
					<v:ud v:nameU="visVersion" v:val="VT0(15):26"/>
				</v:userDefs>
				<g id="shadow1137-201" v:groupContext="shadow" v:shadowOffsetX="2.12132" v:shadowOffsetY="-2.12132"
						v:shadowType="1" transform="matrix(1,0,0,1,2.12132,2.12132)" class="st6">
					<rect x="0" y="830.675" width="101.497" height="16.9162" class="st7"/>
				</g>
				<rect x="0" y="830.675" width="101.497" height="16.9162" class="st9"/>
			</g>
			<g id="shape1138-205" v:mID="1138" v:groupContext="shape" transform="translate(-1.59872E-14,-86.675)">
				<title>Rectangle.7</title>
				<v:userDefs>
					<v:ud v:nameU="visVersion" v:val="VT0(15):26"/>
				</v:userDefs>
				<g id="shadow1138-206" v:groupContext="shadow" v:shadowOffsetX="2.12132" v:shadowOffsetY="-2.12132"
						v:shadowType="1" transform="matrix(1,0,0,1,2.12132,2.12132)" class="st6">
					<rect x="0" y="830.675" width="101.497" height="16.9162" class="st7"/>
				</g>
				<rect x="0" y="830.675" width="101.497" height="16.9162" class="st10"/>
			</g>
			<g id="shape1139-210" v:mID="1139" v:groupContext="shape" transform="translate(-1.59872E-14,-69.1669)">
				<title>Rectangle.36</title>
				<v:userDefs>
					<v:ud v:nameU="visVersion" v:val="VT0(15):26"/>
				</v:userDefs>
				<g id="shadow1139-211" v:groupContext="shadow" v:shadowOffsetX="2.12132" v:shadowOffsetY="-2.12132"
						v:shadowType="1" transform="matrix(1,0,0,1,2.12132,2.12132)" class="st6">
					<rect x="0" y="830.675" width="101.497" height="16.9162" class="st7"/>
				</g>
				<rect x="0" y="830.675" width="101.497" height="16.9162" class="st10"/>
			</g>
			<g id="shape1140-215" v:mID="1140" v:groupContext="shape" transform="translate(-1.59872E-14,-51.7088)">
				<title>Rectangle.37</title>
				<desc>x, y</desc>
				<v:userDefs>
					<v:ud v:nameU="visVersion" v:val="VT0(15):26"/>
				</v:userDefs>
				<v:textBlock v:margins="rect(4,4,4,4)"/>
				<v:textRect cx="50.7485" cy="839.133" width="101.5" height="16.9162"/>
				<g id="shadow1140-216" v:groupContext="shadow" v:shadowOffsetX="2.12132" v:shadowOffsetY="-2.12132"
						v:shadowType="1" transform="matrix(1,0,0,1,2.12132,2.12132)" class="st6">
					<rect x="0" y="830.675" width="101.497" height="16.9162" class="st7"/>
				</g>
				<rect x="0" y="830.675" width="101.497" height="16.9162" class="st10"/>
				<text x="42.58" y="842.73" class="st4" v:langID="1033"><v:paragraph v:horizAlign="1"/><v:tabList/>x, y</text>			</g>
		</g>
		<g id="shape1141-221" v:mID="1141" v:groupContext="shape" transform="translate(128.861,-400.036)">
			<title>Rectangle.1141</title>
			<v:userDefs>
				<v:ud v:nameU="visVersion" v:val="VT0(15):26"/>
			</v:userDefs>
			<g id="shadow1141-222" v:groupContext="shadow" v:shadowOffsetX="2.12132" v:shadowOffsetY="-2.12132" v:shadowType="1"
					transform="matrix(1,0,0,1,2.12132,2.12132)" class="st6">
				<rect x="0" y="830.675" width="101.497" height="16.9162" class="st7"/>
			</g>
			<rect x="0" y="830.675" width="101.497" height="16.9162" class="st10"/>
		</g>
		<g id="shape1142-226" v:mID="1142" v:groupContext="shape" transform="translate(54,-301.665)">
			<title>Rectangle.1024</title>
			<desc>count &#62;= x</desc>
			<v:userDefs>
				<v:ud v:nameU="visVersion" v:val="VT0(15):26"/>
			</v:userDefs>
			<v:textBlock v:margins="rect(4,4,4,4)"/>
			<v:textRect cx="126" cy="823.966" width="252" height="47.25"/>
			<rect x="0" y="800.341" width="252" height="47.25" class="st1"/>
			<text x="100.7" y="827.57" class="st2" v:langID="1033"><v:paragraph v:horizAlign="1"/><v:tabList/>count &#62;= x</text>		</g>
		<g id="shape1145-230" v:mID="1145" v:groupContext="shape" v:layerMember="0" transform="translate(170.655,-367.454)">
			<title>Dynamic connector.1027</title>
			<path d="M8.81 847.59 L9.05 859.09" class="st13"/>
		</g>
		<g id="shape1147-235" v:mID="1147" v:groupContext="shape" v:layerMember="0" transform="translate(178.172,-301.665)">
			<title>Dynamic connector.1029</title>
			<path d="M0 847.59 L0 857.27 L142.24 857.27 L142.24 822.84 L133.22 822.84" class="st13"/>
		</g>
		<g id="shape1148-240" v:mID="1148" v:groupContext="shape" v:layerMember="0" transform="translate(188.045,-301.665)">
			<title>Dynamic connector.1148</title>
			<path d="M-8.3 847.59 L-9.7 847.59 L-9.7 873.72" class="st13"/>
		</g>
		<g id="shape1149-245" v:mID="1149" v:groupContext="shape" v:layerMember="0" transform="translate(169.882,-486.443)">
			<title>Dynamic connector.1149</title>
			<path d="M8.42 850.19 L9.58 850.19 L9.58 855.95" class="st13"/>
		</g>
	</g>
</svg>
